{"glyphs":{"0":{"ha":751,"x_min":0,"x_max":0,"o":"m 342 906 b 0 314 153 906 0 640 b 342 -278 0 -12 153 -278 b 682 314 529 -278 682 -12 b 342 906 682 640 529 906 z m 342 -226 b 154 314 239 -226 154 15 b 342 854 154 613 239 854 b 528 314 444 854 528 613 b 342 -226 528 15 444 -226 z "},"1":{"ha":328,"x_min":0,"x_max":0,"o":"m 226 -260 b 213 -228 218 -251 213 -240 l 213 904 l 203 904 b 0 765 203 904 101 803 b 58 617 56 747 58 674 l 58 -228 b 13 -274 58 -253 38 -274 l 13 -278 l 258 -278 l 258 -274 b 226 -260 246 -274 235 -268 z "},"2":{"ha":739,"x_min":0,"x_max":0,"o":"m 426 -78 b 94 -189 347 -100 168 -189 b 63 -167 75 -189 63 -183 b 669 651 63 -106 669 306 b 358 906 669 811 529 906 b 50 729 79 906 50 731 b 47 693 47 715 47 704 b 94 536 47 615 94 589 b 93 518 94 531 94 525 b 179 625 163 550 179 588 b 164 728 179 660 164 696 l 164 733 b 332 854 169 804 235 854 l 333 854 b 511 675 347 854 511 850 l 511 663 b 0 -201 511 344 0 -90 b 133 -278 0 -219 8 -278 b 458 -204 271 -278 361 -204 b 653 -286 554 -204 638 -272 b 649 -107 651 -240 649 -107 b 511 -65 649 -107 599 -65 b 426 -78 485 -65 457 -69 z "},"3":{"ha":743,"x_min":0,"x_max":0,"o":"m 674 65 b 672 75 674 68 674 72 l 672 85 b 658 147 669 107 665 126 b 507 293 629 229 564 265 b 338 356 451 319 338 314 b 615 640 338 401 615 382 b 321 906 615 800 492 906 b 40 729 68 906 40 731 b 38 693 38 717 38 704 b 85 536 38 617 85 590 b 83 518 85 531 85 525 b 169 625 153 550 169 588 b 154 728 169 660 154 696 l 154 733 b 311 854 158 804 213 854 b 463 618 321 854 463 850 l 463 615 b 210 351 463 304 210 469 b 515 122 210 269 490 350 l 517 92 l 517 90 b 518 50 518 78 518 64 b 303 -225 518 -101 432 -225 b 124 22 213 -225 124 -131 l 124 39 l 0 -87 b 307 -278 46 -192 174 -278 b 674 50 503 -278 674 -131 z "},"4":{"ha":725,"x_min":0,"x_max":0,"o":"m 611 729 l 596 729 b 426 578 596 729 526 638 b 456 456 447 561 456 572 l 456 211 b 149 183 346 210 228 183 b 82 196 121 183 99 186 b 68 222 72 201 68 211 b 343 731 68 315 314 579 b 350 801 349 757 350 782 b 328 906 350 872 328 906 l 153 906 b 203 774 153 906 203 863 b 197 719 203 757 201 739 b 6 286 172 589 6 414 b 161 146 6 160 96 146 b 438 156 222 146 338 156 l 456 156 l 456 -226 b 411 -272 456 -251 435 -272 l 411 -278 l 656 -278 l 656 -272 b 611 -226 631 -272 611 -251 z "},"5":{"ha":783,"x_min":0,"x_max":0,"o":"m 678 915 b 432 878 678 915 539 878 l 426 878 b 106 906 319 881 118 906 b 53 342 94 906 53 374 b 58 329 53 333 54 329 b 335 475 83 329 185 475 b 558 114 503 475 558 247 b 349 -225 558 -76 461 -225 b 203 -62 250 -225 203 -160 b 206 -21 203 -49 204 -35 b 211 58 210 8 211 35 b 113 213 211 181 163 213 b 0 174 58 213 0 174 b 79 -46 0 174 75 154 b 335 -278 81 -139 121 -278 b 714 150 640 -278 714 -14 b 381 528 714 331 600 528 b 129 428 224 528 129 428 l 158 828 b 392 749 158 828 275 764 b 540 738 451 742 500 738 b 639 749 579 738 611 742 b 678 915 653 794 678 915 z "},"6":{"ha":760,"x_min":0,"x_max":0,"o":"m 458 432 b 432 433 449 433 440 433 b 201 260 296 433 281 301 b 172 253 192 254 181 253 l 164 253 l 164 256 b 499 885 176 494 240 717 l 499 889 b 497 906 499 896 497 906 b 0 229 406 886 0 690 b 356 -278 0 -167 217 -278 b 690 76 536 -278 690 -140 b 458 432 690 342 524 425 z m 371 -225 b 165 197 251 -225 176 -24 b 203 178 178 186 190 178 l 207 178 b 367 393 303 200 279 393 b 535 79 451 393 535 265 b 371 -225 535 -126 435 -225 z "},"7":{"ha":690,"x_min":0,"x_max":0,"o":"m 0 904 b 53 768 0 904 36 813 b 488 857 313 768 439 857 b 513 818 504 857 511 847 l 513 817 b 243 335 513 726 307 475 b 126 -278 178 194 126 -278 l 336 -278 b 329 64 336 -278 329 -107 b 349 376 329 194 333 324 b 621 854 363 425 621 740 b 526 903 621 892 585 903 b 190 881 444 903 318 881 b 0 904 125 881 60 886 z "},"8":{"ha":751,"x_min":0,"x_max":0,"o":"m 681 65 b 514 293 681 197 572 265 b 432 371 458 319 432 329 b 507 425 432 392 457 406 b 638 539 557 443 613 472 b 639 542 638 539 639 540 b 649 617 646 565 649 590 b 340 906 649 776 511 906 b 31 617 168 906 31 776 l 31 594 b 32 586 32 592 32 589 b 33 578 32 583 32 581 b 174 425 47 485 114 446 b 251 383 225 406 251 404 b 167 293 251 342 222 319 b 0 75 110 265 0 201 l 0 50 b 340 -278 0 -131 153 -278 b 682 50 529 -278 682 -131 b 681 65 682 56 681 60 z m 340 -225 b 154 50 238 -225 154 -101 l 154 63 b 325 351 154 332 325 290 b 257 414 325 394 283 401 b 183 617 221 431 183 471 b 340 854 183 747 253 854 b 496 618 426 854 496 749 l 496 615 b 421 413 496 467 458 429 b 356 351 396 401 356 392 b 526 50 356 290 526 289 b 340 -225 526 -101 443 -225 z "},"9":{"ha":761,"x_min":0,"x_max":0,"o":"m 232 197 b 258 196 242 196 250 196 b 489 369 394 196 411 328 b 518 376 500 375 510 376 l 526 376 l 526 374 b 136 -260 514 135 414 -87 b 150 -278 142 -267 150 -278 b 692 400 251 -278 692 -85 b 336 906 692 796 474 906 b 0 553 154 906 0 769 b 232 197 0 288 168 204 z m 319 854 b 525 432 439 854 514 653 b 488 451 513 443 500 451 l 483 451 b 324 236 388 429 411 236 b 156 550 239 236 156 364 b 319 854 156 756 256 854 z "}," ":{"ha":417,"x_min":0,"x_max":0,"o":""}," ":{"ha":417,"x_min":0,"x_max":0,"o":""},"!":{"ha":276,"x_min":0,"x_max":0,"o":"m 115 -24 l 207 906 l 0 906 l 90 -24 z m 103 -124 b 25 -200 60 -124 25 -158 b 103 -278 25 -243 60 -278 b 181 -200 146 -278 181 -243 b 103 -124 181 -158 146 -124 z "},"\"":{"ha":410,"x_min":0,"x_max":0,"o":"m 156 828 b 78 906 156 871 121 906 b 0 828 35 906 0 871 b 78 750 0 785 35 750 b 97 753 85 750 92 751 b 99 740 99 749 99 744 b 86 704 99 722 90 708 b 156 826 154 742 156 813 z m 339 828 b 261 906 339 871 304 906 b 183 828 218 906 183 871 b 261 750 183 785 218 750 b 281 753 268 750 275 751 b 282 740 282 749 282 744 b 269 704 282 722 274 708 b 339 826 338 742 339 813 z "},"#":{"ha":1396,"x_min":0,"x_max":0,"o":"m 1313 443 l 1326 494 l 900 494 l 1013 906 l 958 906 l 846 494 l 581 494 l 693 906 l 639 906 l 526 494 l 99 493 l 85 442 l 513 442 l 442 186 l 15 186 l 0 135 l 428 135 l 314 -278 l 368 -278 l 481 135 l 747 135 l 633 -278 l 688 -278 l 800 135 l 1228 135 l 1242 186 l 815 186 l 885 443 z m 761 186 l 496 186 l 565 442 l 832 443 z "},"$":{"ha":838,"x_min":0,"x_max":0,"o":"m 394 854 b 547 708 472 844 547 794 b 533 596 547 671 533 631 b 663 501 533 551 557 514 b 639 565 646 526 639 547 b 671 688 639 607 671 639 b 394 906 671 799 543 900 l 394 1081 l 343 1081 l 343 904 b 36 631 151 892 36 782 b 343 263 36 475 193 364 l 343 -219 b 101 -31 188 -203 101 -115 b 233 107 101 71 168 31 b 265 188 256 132 265 161 b 153 297 265 246 218 297 l 149 297 b 156 257 153 283 156 269 b 0 -31 156 144 0 88 b 343 -274 0 -118 115 -253 l 343 -451 l 394 -451 l 394 -278 l 408 -278 b 768 35 547 -278 768 -187 b 394 429 768 208 563 321 z m 176 678 b 343 854 176 792 254 846 l 343 464 b 176 678 249 529 176 596 z m 394 -222 l 394 228 b 619 -19 515 147 619 71 b 396 -222 619 -160 496 -218 z "},"%":{"ha":772,"x_min":0,"x_max":0,"o":"m 488 906 l 163 -278 l 215 -278 l 542 906 z m 276 667 b 138 906 276 799 214 906 b 0 667 63 906 0 799 b 138 426 0 533 63 426 b 276 667 214 426 276 533 z m 138 447 b 63 667 96 447 63 546 b 138 885 63 788 96 885 b 214 667 181 885 214 788 b 138 447 214 546 181 447 z m 565 203 b 426 -37 489 203 426 94 b 565 -278 426 -169 489 -278 b 703 -37 642 -278 703 -169 b 565 203 703 94 642 203 z m 565 -257 b 489 -37 524 -257 489 -158 b 565 182 489 83 524 182 b 640 -37 607 182 640 83 b 565 -257 640 -158 607 -257 z "},"&":{"ha":997,"x_min":0,"x_max":0,"o":"m 804 469 b 469 282 747 368 611 293 b 418 203 429 278 418 242 b 435 115 418 167 428 129 l 436 108 b 553 -174 476 -11 553 -112 b 421 -237 553 -214 519 -237 b 125 206 211 -237 125 26 b 189 368 125 299 147 368 b 413 313 272 368 358 313 b 467 390 443 313 464 332 l 467 400 b 193 663 467 569 193 396 b 365 869 193 793 240 869 b 475 757 450 869 475 817 b 465 689 475 735 471 711 b 456 625 458 667 456 644 b 572 513 456 564 490 524 b 563 549 565 524 563 536 b 631 760 563 608 631 683 b 621 806 631 775 628 790 b 361 915 594 868 515 915 b 38 692 225 915 38 856 b 365 403 38 408 365 494 b 347 390 365 393 358 390 b 193 414 318 390 257 414 b 0 94 99 414 0 361 b 340 -276 0 -211 192 -276 b 688 -153 610 -276 688 -226 b 540 158 688 -65 578 54 b 531 207 540 158 531 183 b 560 246 531 226 538 243 b 578 247 565 247 572 247 b 732 229 621 247 671 229 l 743 229 b 839 357 807 231 839 290 b 804 469 839 396 828 438 z "},"'":{"ha":226,"x_min":0,"x_max":0,"o":"m 156 828 b 78 906 156 871 121 906 b 0 828 35 906 0 871 b 78 750 0 785 35 750 b 97 753 85 750 92 751 b 99 740 99 749 99 744 b 86 704 99 722 90 708 b 156 826 154 742 156 813 z "},"(":{"ha":468,"x_min":0,"x_max":0,"o":"m 171 306 b 399 1075 171 696 349 999 l 347 1075 b 0 306 208 946 0 683 b 343 -450 0 -119 225 -342 l 397 -450 b 171 306 350 -383 171 -107 z "},")":{"ha":468,"x_min":0,"x_max":0,"o":"m 228 306 b 1 -450 228 -107 50 -383 l 56 -450 b 399 306 175 -342 399 -119 b 51 1075 399 683 190 946 l 0 1075 b 228 306 50 999 228 696 z "},"*":{"ha":963,"x_min":0,"x_max":0,"o":"m 369 1354 l 447 908 l 524 1354 z m 76 1169 l 447 908 l 186 1279 z m 0 831 l 447 908 l 0 985 z m 186 536 l 447 908 l 76 646 z m 524 461 l 447 908 l 369 461 z m 818 646 l 447 908 l 708 536 z m 893 985 l 447 908 l 893 831 z m 708 1279 l 447 908 l 818 1169 z "},"+":{"ha":801,"x_min":0,"x_max":0,"o":"m 0 339 l 0 288 l 340 288 l 340 -53 l 392 -53 l 392 288 l 732 288 l 732 339 l 392 339 l 392 679 l 340 679 l 340 339 z "},",":{"ha":226,"x_min":0,"x_max":0,"o":"m 156 -200 b 78 -122 156 -157 121 -122 b 0 -200 35 -122 0 -157 b 78 -278 0 -243 35 -278 b 97 -275 85 -278 92 -276 b 99 -287 99 -279 99 -283 b 86 -324 99 -306 90 -319 b 156 -201 154 -286 156 -215 z "},"-":{"ha":718,"x_min":0,"x_max":0,"o":"m 0 288 l 649 288 l 649 339 l 0 339 z "},"­":{"ha":718,"x_min":0,"x_max":0,"o":"m 0 288 l 649 288 l 649 339 l 0 339 z "},".":{"ha":225,"x_min":0,"x_max":0,"o":"m 156 -200 b 78 -122 156 -157 121 -122 b 0 -200 35 -122 0 -157 b 78 -278 0 -243 35 -278 b 156 -200 121 -278 156 -243 z "},"/":{"ha":447,"x_min":0,"x_max":0,"o":"m 378 906 l 325 906 l 0 -278 l 53 -278 z "},":":{"ha":225,"x_min":0,"x_max":0,"o":"m 78 -25 b 0 -103 35 -25 0 -60 b 78 -181 0 -146 35 -181 b 156 -103 121 -181 156 -146 b 78 -25 156 -60 121 -25 z m 78 385 b 156 463 121 385 156 419 b 78 539 156 504 121 539 b 0 463 35 539 0 504 b 78 385 0 419 35 385 z "},";":{"ha":226,"x_min":0,"x_max":0,"o":"m 76 385 b 154 463 119 385 154 419 b 76 539 154 504 119 539 b 0 463 35 539 0 504 b 76 385 0 419 35 385 z m 154 -103 b 76 -25 154 -60 119 -25 b 0 -103 35 -25 0 -60 b 76 -181 0 -146 35 -181 b 97 -178 85 -181 90 -179 b 99 -189 97 -182 99 -185 b 86 -226 99 -208 90 -222 b 154 -106 151 -190 154 -124 z "},"<":{"ha":525,"x_min":0,"x_max":0,"o":"m 456 521 l 429 565 l 0 314 l 429 63 l 456 107 l 101 314 z "},"=":{"ha":718,"x_min":0,"x_max":0,"o":"m 0 451 l 0 400 l 649 400 l 649 451 z m 0 174 l 649 174 l 649 225 l 0 225 z "},">":{"ha":525,"x_min":0,"x_max":0,"o":"m 0 521 l 353 314 l 0 107 l 25 63 l 456 314 l 25 565 z "},"?":{"ha":646,"x_min":0,"x_max":0,"o":"m 261 -124 b 183 -200 218 -124 183 -158 b 261 -278 183 -243 218 -278 b 339 -200 304 -278 339 -243 b 261 -124 339 -158 304 -124 z m 260 874 b 418 686 385 874 418 771 b 231 104 418 522 231 429 b 239 -24 231 65 233 22 l 269 -24 b 268 14 269 -11 268 1 b 576 668 268 419 576 410 b 276 910 576 829 463 910 b 0 679 1 910 0 683 b 85 474 0 547 85 515 b 82 463 85 471 83 467 b 160 561 142 489 160 524 b 122 678 160 601 138 643 b 113 729 115 693 113 711 b 260 874 113 796 158 874 z "},"@":{"ha":1253,"x_min":0,"x_max":0,"o":"m 593 907 b 0 314 265 907 0 640 b 593 -278 0 -12 265 -278 b 993 -121 747 -278 888 -218 l 957 -85 b 593 -226 860 -172 732 -226 b 51 314 294 -226 51 17 b 593 854 51 613 294 854 b 1133 331 885 854 1124 621 l 1132 331 b 997 64 1132 144 1072 75 b 979 63 992 63 986 63 b 782 122 914 63 853 110 b 760 454 781 161 768 288 b 625 660 751 594 706 660 l 619 660 b 422 542 535 658 428 572 b 421 532 422 539 421 536 b 465 456 421 504 436 456 b 493 467 474 456 483 458 b 569 601 546 510 479 601 b 719 369 681 601 719 483 b 706 249 719 326 714 285 b 558 429 704 249 700 429 b 403 219 439 429 403 335 b 406 158 403 199 404 179 b 515 17 415 49 460 17 b 743 83 596 17 697 83 b 969 14 808 83 907 14 b 1068 43 999 14 1032 17 b 1183 347 1125 83 1183 176 b 593 907 1167 658 908 907 z m 460 239 b 549 367 460 293 481 367 b 708 136 632 367 694 215 b 711 119 708 129 710 125 b 561 86 665 110 610 86 b 460 239 504 86 460 118 z "},"A":{"ha":896,"x_min":0,"x_max":0,"o":"m 525 869 b 475 906 521 890 500 906 l 276 906 l 276 900 l 279 900 b 358 829 324 900 358 868 b 357 815 358 825 358 819 b 0 -19 286 474 0 275 b 196 -278 0 -214 119 -278 b 333 -101 307 -278 333 -199 b 315 139 333 -22 315 71 b 332 181 315 168 321 181 b 538 67 361 181 433 89 l 544 35 l 604 -231 l 604 -235 b 551 -272 604 -256 576 -272 l 551 -278 l 826 -278 l 826 -272 b 768 -231 799 -272 774 -254 z m 351 233 b 319 250 339 244 328 250 b 192 -160 247 250 340 -160 b 83 44 138 -160 83 -93 b 379 783 83 289 342 531 l 517 163 b 351 233 442 165 364 222 z "},"B":{"ha":861,"x_min":0,"x_max":0,"o":"m 544 453 b 221 288 411 453 272 288 b 200 325 207 288 200 297 b 701 699 200 489 701 446 b 194 908 701 885 376 908 b 78 906 131 908 85 906 l 0 906 l 0 900 b 32 888 13 900 24 894 b 44 856 39 879 44 868 l 44 -228 b 0 -272 44 -253 25 -272 l 0 -278 l 244 -278 l 244 -272 b 213 -260 232 -272 221 -268 b 200 -228 204 -251 200 -240 b 222 -203 203 -210 211 -203 b 471 -278 261 -203 346 -278 b 792 110 663 -278 792 -129 b 544 453 792 285 736 453 z m 554 700 b 200 397 554 547 276 531 l 200 863 l 224 863 b 554 700 306 863 554 850 z m 439 -226 b 225 -169 332 -226 276 -169 b 200 -174 217 -169 208 -171 l 200 240 b 221 233 207 236 214 233 b 522 418 292 233 413 418 b 632 158 596 418 632 296 b 451 -226 632 -18 572 -222 z "},"C":{"ha":994,"x_min":0,"x_max":0,"o":"m 863 -19 b 590 -226 824 -151 707 -226 b 165 318 361 -226 165 7 b 600 854 165 617 360 854 b 792 728 663 854 792 829 b 636 481 792 597 636 610 b 742 381 636 425 681 381 l 754 381 b 889 671 756 515 889 565 b 553 906 889 831 703 906 b 0 314 256 906 0 671 b 574 -278 0 -42 265 -278 b 925 -128 686 -278 821 -240 z "},"D":{"ha":939,"x_min":0,"x_max":0,"o":"m 0 906 l 0 900 b 32 888 13 900 24 894 b 44 856 39 879 44 868 l 44 -228 b 0 -272 44 -253 25 -272 l 0 -278 l 244 -278 l 244 -272 b 213 -260 232 -272 221 -268 b 200 -229 206 -251 200 -240 b 219 -204 200 -211 207 -204 b 460 -278 257 -204 351 -278 b 808 189 549 -278 808 -247 b 799 351 808 238 806 292 b 104 906 729 926 358 900 z m 424 -226 b 219 -172 346 -226 261 -172 b 200 -181 211 -172 204 -175 l 200 856 b 246 861 204 858 221 861 b 636 351 350 861 597 801 b 643 200 640 296 643 246 b 424 -226 643 -200 478 -226 z "},"E":{"ha":1082,"x_min":0,"x_max":0,"o":"m 708 550 b 696 597 699 565 696 581 b 717 728 696 636 717 678 b 700 800 717 750 713 774 b 407 911 671 863 582 911 b 43 686 254 911 43 850 b 574 399 43 404 574 504 b 542 385 574 389 563 385 b 306 404 494 385 401 404 b 0 108 157 404 0 357 b 433 -281 0 -197 265 -281 b 740 -147 682 -281 740 -225 b 694 97 740 -76 694 13 b 739 219 694 140 706 182 l 722 219 b 579 218 688 219 624 218 l 554 218 b 532 122 539 186 532 154 b 617 -174 532 4 617 -106 b 475 -242 617 -217 583 -242 b 164 110 268 -242 164 -57 b 375 372 164 247 233 372 b 633 318 482 372 576 318 b 688 385 664 318 683 335 l 688 392 b 203 689 688 565 203 419 b 414 881 203 814 286 881 b 575 760 524 881 575 824 b 568 718 575 746 572 732 b 560 667 563 700 560 683 b 708 550 560 597 610 550 z "},"F":{"ha":772,"x_min":0,"x_max":0,"o":"m 626 581 b 339 910 556 675 703 910 b 213 886 293 910 261 903 b 38 685 135 861 38 790 b 200 506 38 574 129 518 b 444 460 313 486 444 513 b 422 447 444 450 436 447 b 263 464 390 447 329 464 b 197 457 242 464 219 463 b 44 213 107 438 44 376 l 44 -228 b 0 -272 44 -253 25 -272 l 0 -278 l 244 -278 l 244 -272 b 213 -260 232 -272 221 -268 b 203 -244 208 -256 206 -250 b 200 -228 201 -239 200 -233 l 200 299 b 261 436 200 390 211 436 b 279 435 267 436 272 436 b 494 392 364 419 442 392 b 558 461 533 392 558 408 b 200 722 558 585 200 424 b 368 864 200 833 299 864 b 481 788 444 864 481 832 b 479 769 481 782 481 776 b 472 700 474 743 472 721 b 597 579 472 613 518 579 b 626 581 607 579 617 579 z "},"G":{"ha":1074,"x_min":0,"x_max":0,"o":"m 825 396 b 332 271 589 396 399 271 b 310 282 321 271 314 274 b 306 296 307 288 306 292 b 907 661 306 394 907 369 b 578 910 907 719 864 910 b 0 321 313 910 0 708 b 576 -281 0 -49 283 -281 l 588 -281 b 843 -212 708 -281 825 -224 b 1004 -278 844 -212 1004 -278 l 1004 165 b 825 396 1004 299 990 396 z m 847 -89 b 596 -222 838 -115 749 -222 b 169 335 325 -222 169 44 b 578 857 169 471 246 857 b 799 628 725 856 799 747 b 228 290 799 304 228 494 b 233 254 228 279 231 267 b 299 188 246 206 268 188 b 608 340 378 188 506 315 b 700 353 644 349 674 353 b 847 165 846 353 847 229 z "},"H":{"ha":906,"x_min":0,"x_max":0,"o":"m 32 886 b 44 856 39 879 44 868 l 44 165 b 129 -278 44 -168 129 -278 l 299 -278 b 192 65 224 -179 192 -40 b 200 147 192 96 194 124 b 636 417 239 321 547 265 l 636 -228 b 592 -272 636 -253 615 -272 l 592 -278 l 836 -278 l 836 -272 b 792 -228 811 -272 792 -253 l 792 856 b 836 900 792 881 811 900 l 836 906 l 592 906 l 592 900 b 636 856 615 900 636 881 l 636 625 b 483 356 636 607 635 422 b 200 281 371 307 294 342 l 200 856 b 244 900 200 881 219 900 l 244 906 l 0 906 l 0 900 b 32 886 13 900 24 894 z "},"I":{"ha":315,"x_min":0,"x_max":0,"o":"m 246 906 l 0 906 l 0 900 b 46 856 25 900 46 881 l 46 -228 b 0 -272 46 -253 25 -272 l 0 -278 l 246 -278 l 246 -272 b 200 -228 221 -272 200 -253 l 200 856 b 246 900 200 881 221 900 z "},"J":{"ha":508,"x_min":0,"x_max":0,"o":"m 194 906 l 194 900 b 226 886 207 900 218 894 b 239 856 235 879 239 867 l 239 389 b 297 -31 239 200 296 133 l 297 -39 b 143 -261 297 -161 217 -261 b 96 -224 108 -261 96 -247 b 163 10 96 -169 163 -68 b 46 138 163 81 119 138 b 8 133 35 138 22 136 b 38 63 29 113 38 93 b 14 -136 38 24 25 -33 b 13 -157 13 -143 13 -150 b 163 -278 13 -275 117 -278 l 169 -278 b 390 -29 272 -278 390 -192 b 394 158 390 26 394 86 l 394 856 b 439 900 394 879 414 900 l 439 906 z "},"K":{"ha":851,"x_min":0,"x_max":0,"o":"m 246 906 l 0 906 l 0 900 b 46 856 25 900 46 879 l 46 -228 b 0 -274 46 -253 25 -274 l 0 -278 l 246 -278 l 246 -274 b 200 -228 221 -274 200 -253 l 200 856 b 246 900 200 879 221 900 z m 738 906 l 542 906 b 483 556 485 776 483 681 b 203 347 483 451 224 496 b 201 322 201 338 201 331 b 244 271 201 285 218 271 b 469 339 304 271 411 339 b 588 -278 561 339 478 -101 l 782 -278 b 526 376 594 -61 732 376 b 304 322 458 376 360 322 b 263 368 279 322 263 335 b 571 521 263 517 551 382 b 738 906 603 757 738 906 z "},"L":{"ha":811,"x_min":0,"x_max":0,"o":"m 576 -87 b 510 58 525 -32 510 18 b 547 178 510 110 533 150 l 536 178 b 375 65 428 178 375 129 b 432 -61 375 26 394 -18 b 571 -210 486 -122 571 -178 b 461 -240 571 -229 542 -240 b 200 -231 389 -240 250 -239 b 122 -182 153 -222 122 -208 b 200 164 122 -118 200 -82 l 200 856 b 244 900 200 879 219 900 l 244 906 l 0 906 l 0 900 b 32 886 13 900 24 894 b 44 856 40 879 44 867 l 44 57 b 0 -229 44 -210 0 -194 b 28 -264 0 -244 11 -256 b 111 -278 50 -274 82 -278 l 503 -278 b 660 -224 585 -278 660 -274 b 576 -87 660 -196 636 -153 z "},"M":{"ha":1064,"x_min":0,"x_max":0,"o":"m 994 906 l 850 906 b 781 888 825 906 801 899 b 532 -182 524 749 615 -182 b 286 789 443 -182 346 625 b 161 899 260 863 207 889 b 128 903 150 900 138 901 b 58 906 106 904 67 906 l 0 906 l 0 900 b 32 886 13 900 24 894 b 44 856 40 879 44 867 l 44 -228 b 0 -274 44 -253 25 -274 l 0 -278 l 142 -278 l 142 -274 b 110 -260 129 -274 118 -268 b 96 -228 101 -251 96 -240 l 96 839 b 489 -278 213 674 193 -276 b 794 838 732 -278 533 607 l 794 -228 b 750 -274 794 -253 775 -274 l 750 -278 l 994 -278 l 994 -274 b 963 -260 982 -274 971 -268 b 950 -228 954 -251 950 -240 l 950 856 b 994 900 950 879 969 900 z "},"N":{"ha":817,"x_min":0,"x_max":0,"o":"m 606 906 l 606 900 b 638 886 618 900 629 894 b 651 856 646 879 651 867 l 651 -31 b 628 -121 651 -85 644 -121 b 158 906 560 -121 169 906 l 0 906 l 0 900 l 4 900 b 32 886 15 899 25 894 b 46 856 40 879 46 867 l 46 -228 b 0 -274 46 -253 25 -274 l 0 -278 l 142 -278 l 142 -274 b 110 -260 129 -274 118 -268 b 97 -228 103 -251 97 -240 l 97 643 b 596 -278 97 643 415 -278 b 703 -57 675 -278 703 -156 l 703 856 b 747 900 703 879 722 900 l 747 906 z "},"O":{"ha":1246,"x_min":0,"x_max":0,"o":"m 671 901 b 649 904 664 903 656 903 b 588 907 639 906 613 907 b 556 906 576 907 565 907 b 500 899 536 904 518 903 b 0 315 217 856 0 610 b 581 -281 0 18 243 -281 b 1176 315 969 -281 1176 43 b 671 901 1176 615 960 863 z m 458 -200 b 171 315 292 -129 171 74 b 550 853 171 597 338 831 l 565 853 b 625 843 579 853 603 851 b 671 775 654 828 667 800 b 675 733 674 764 675 739 b 428 82 675 507 443 315 b 426 39 426 68 426 53 b 483 -207 426 -40 440 -118 b 458 -200 471 -204 458 -200 z m 625 -222 b 613 -224 621 -222 617 -224 b 596 -221 607 -224 601 -222 l 594 -221 b 469 -43 524 -208 483 -122 b 465 14 469 -42 465 -4 b 763 663 465 308 763 403 b 714 824 763 703 750 771 b 711 828 713 825 711 826 b 733 819 724 824 732 819 b 763 803 747 813 749 811 b 1000 315 903 717 1000 531 b 625 -222 1000 35 836 -196 z "},"P":{"ha":772,"x_min":0,"x_max":0,"o":"m 225 863 b 310 858 244 863 272 861 b 419 838 346 856 382 849 b 515 789 457 826 489 810 b 554 699 542 767 554 736 b 518 596 554 661 542 626 b 431 511 494 564 465 536 b 325 440 396 485 360 461 b 200 343 265 406 224 372 l 200 856 b 201 860 200 857 200 858 l 201 863 z m 703 699 b 647 836 703 760 685 806 b 506 896 610 865 563 886 b 325 910 449 906 388 910 b 211 907 286 910 249 908 b 114 906 176 906 143 906 l 0 906 l 0 900 b 32 886 13 900 24 896 b 43 872 36 882 40 878 b 46 856 44 867 46 861 l 46 -228 b 33 -260 46 -240 42 -250 b 0 -274 24 -269 13 -274 l 0 -278 l 246 -278 l 246 -274 b 214 -260 233 -274 224 -269 b 200 -228 204 -250 200 -240 l 200 278 b 274 351 211 304 236 329 b 403 419 311 374 354 396 b 543 490 451 440 497 464 b 657 579 589 517 626 546 b 703 699 688 613 703 653 z "},"Q":{"ha":1267,"x_min":0,"x_max":0,"o":"m 561 -417 b 260 -519 406 -456 307 -519 b 231 -501 246 -519 236 -514 b 226 -481 228 -496 226 -489 b 447 -375 226 -440 263 -375 b 1197 307 744 -375 1197 -190 b 683 899 1197 603 985 851 b 628 904 665 901 647 903 b 599 906 619 906 610 906 b 535 903 568 906 535 903 b 0 314 239 871 0 614 b 568 -278 0 -12 246 -278 b 757 38 711 -278 757 -106 b 756 81 757 53 757 67 b 508 732 740 314 508 506 b 513 774 508 739 510 763 b 558 842 517 799 529 826 b 611 853 572 850 596 853 b 633 851 624 853 633 851 b 1013 314 846 829 1013 597 b 490 -329 1013 -144 674 -319 b 164 -428 231 -344 169 -303 l 164 -446 b 258 -568 164 -539 199 -568 b 724 -490 357 -568 525 -490 b 993 -612 899 -490 993 -612 b 996 -586 993 -612 996 -603 b 965 -474 996 -560 990 -519 b 772 -385 936 -418 875 -385 b 561 -417 715 -385 646 -394 z m 469 822 b 421 661 433 769 421 703 b 718 13 421 401 718 307 b 714 -43 718 -6 714 -42 b 569 -224 699 -131 653 -224 l 558 -224 b 183 314 347 -197 183 33 b 421 801 183 529 281 715 b 474 828 435 810 460 824 b 469 822 472 826 471 825 z "},"R":{"ha":938,"x_min":0,"x_max":0,"o":"m 544 451 b 221 288 413 451 272 288 b 200 325 207 288 200 297 b 703 699 200 489 703 446 b 192 908 703 885 372 908 b 79 906 131 908 86 906 l 0 906 l 0 900 b 32 886 13 900 24 894 b 46 856 40 879 46 867 l 46 -228 b 0 -274 46 -253 25 -274 l 0 -278 l 246 -278 l 246 -274 b 214 -260 233 -274 222 -268 b 200 -228 206 -251 200 -240 l 200 240 b 221 233 207 236 214 233 b 524 417 293 233 414 417 b 561 361 551 417 561 396 b 488 -100 561 268 488 71 b 529 -278 488 -165 499 -228 l 751 -278 b 642 -26 665 -214 642 -124 b 679 314 642 93 679 221 b 544 451 679 396 650 451 z m 200 856 b 201 863 200 858 201 860 l 225 863 b 556 699 306 863 556 850 b 200 396 556 547 278 531 z "},"S":{"ha":838,"x_min":0,"x_max":0,"o":"m 178 676 b 369 856 178 801 271 856 b 547 707 456 856 547 803 b 533 596 547 671 533 631 b 663 500 533 551 557 514 b 639 564 646 525 639 546 b 672 686 639 607 672 638 b 381 906 672 801 535 906 b 38 629 167 906 38 790 b 619 -19 38 329 619 193 b 396 -224 619 -160 496 -218 b 101 -31 207 -224 101 -125 b 235 106 101 69 169 31 b 267 186 257 131 267 160 b 153 296 267 244 218 296 l 149 296 b 156 256 153 282 156 268 b 0 -32 156 144 0 86 b 408 -278 0 -126 139 -278 b 768 33 549 -278 768 -189 b 178 676 768 331 178 444 z "},"T":{"ha":811,"x_min":0,"x_max":0,"o":"m 183 906 b 0 772 154 906 0 906 b 301 619 0 618 301 736 l 301 -228 b 256 -274 301 -253 281 -274 l 256 -278 l 501 -278 l 501 -274 b 469 -260 489 -274 478 -268 b 456 -228 461 -251 456 -240 l 456 529 b 301 736 456 683 385 733 l 286 736 b 97 724 221 736 150 724 b 25 767 54 724 25 732 b 94 804 25 793 53 804 b 546 722 215 804 460 722 b 742 906 693 722 742 804 b 557 854 686 867 622 854 b 183 906 425 854 283 906 z "},"U":{"ha":1068,"x_min":0,"x_max":0,"o":"m 954 856 b 999 900 954 879 974 900 l 999 906 l 857 906 l 857 900 b 889 888 869 900 881 894 b 903 856 897 879 903 868 l 903 507 b 779 90 903 235 779 167 b 940 -18 779 53 940 111 b 635 -244 940 -140 797 -242 l 618 -244 b 358 -71 419 -244 358 -179 b 510 657 358 100 510 374 b 463 906 510 739 497 824 l 294 906 b 344 657 299 900 344 825 b 225 65 344 413 225 254 b 607 -285 225 -101 350 -285 b 999 -15 790 -285 999 -196 b 860 168 999 92 860 111 b 861 178 860 171 860 174 b 954 557 871 208 954 290 z "},"V":{"ha":901,"x_min":0,"x_max":0,"o":"m 690 906 l 690 901 b 724 868 710 901 724 885 b 722 858 724 865 724 861 l 583 353 b 471 164 575 214 476 257 l 471 151 b 486 -11 471 97 486 42 b 460 -103 486 -43 479 -75 l 214 861 l 214 868 b 246 901 214 886 228 901 l 246 906 l 0 906 l 0 901 b 35 889 14 901 25 896 b 56 858 44 882 51 871 l 344 -278 l 522 -278 b 557 -208 549 -278 557 -250 b 521 108 557 -122 521 19 b 535 172 521 136 525 158 b 606 233 558 206 599 213 l 606 235 l 776 858 b 832 901 783 883 806 901 l 832 906 z "},"W":{"ha":1317,"x_min":0,"x_max":0,"o":"m 1107 906 l 1107 901 b 1140 868 1125 901 1140 886 b 1139 858 1140 865 1139 861 l 875 -103 b 868 -11 869 -85 868 -53 b 875 329 868 74 875 199 b 650 911 875 607 844 911 b 449 476 482 911 449 713 b 464 1 449 318 464 143 b 460 -101 464 -35 463 -69 l 458 -103 l 214 861 b 213 869 213 864 213 867 b 244 901 213 888 226 901 l 244 906 l 0 906 l 0 901 b 35 889 13 901 25 897 b 54 858 44 882 51 871 l 343 -278 l 476 -278 b 544 -47 529 -278 544 -182 b 515 594 544 139 515 401 b 596 853 515 744 533 853 b 760 -278 733 853 760 -278 l 881 -278 l 1192 858 b 1247 901 1199 883 1222 901 l 1247 906 z "},"X":{"ha":885,"x_min":0,"x_max":0,"o":"m 764 -240 l 469 368 b 513 538 469 368 483 478 b 619 626 532 578 564 536 b 621 629 619 628 621 628 l 760 868 b 815 901 771 889 793 901 l 815 906 l 675 906 l 675 901 b 700 875 689 901 700 889 b 696 863 700 871 699 867 l 563 632 b 535 617 556 621 546 617 b 457 636 511 617 479 636 b 436 626 449 636 442 633 b 426 571 429 617 426 596 b 442 424 426 508 442 424 l 226 869 b 224 879 225 872 224 876 b 246 901 224 892 233 901 l 246 906 l 0 906 l 0 901 b 33 892 13 901 24 897 b 56 867 42 886 50 878 l 349 261 b 350 236 349 253 350 246 b 325 101 350 210 344 172 b 193 -6 307 39 225 57 l 193 -7 l 60 -237 b 0 -272 47 -258 25 -272 l 0 -278 l 142 -278 l 142 -272 b 117 -247 128 -272 117 -260 b 121 -235 117 -243 118 -239 l 243 -24 b 294 3 256 -1 275 3 b 339 0 310 3 325 0 b 371 14 351 0 364 3 b 386 81 382 31 386 54 b 375 206 386 125 376 176 l 592 -239 b 594 -249 593 -242 594 -246 b 569 -272 594 -261 583 -272 l 569 -278 l 815 -278 l 815 -272 b 785 -264 804 -272 794 -269 b 764 -240 776 -258 769 -250 z "},"Y":{"ha":888,"x_min":0,"x_max":0,"o":"m 676 906 l 676 900 b 703 874 692 900 703 888 b 700 861 703 869 703 865 l 632 726 b 496 626 576 629 531 658 b 460 479 467 600 460 533 b 464 397 460 433 464 397 l 226 869 b 224 879 225 872 224 876 b 244 900 224 890 232 900 l 244 906 l 0 906 l 0 900 b 32 892 11 900 22 897 b 54 867 42 885 49 876 l 331 317 l 331 -228 b 286 -272 331 -253 311 -272 l 286 -278 l 531 -278 l 531 -272 b 499 -260 518 -272 507 -268 b 486 -228 490 -251 486 -240 l 486 326 b 532 535 489 378 486 474 b 669 688 597 622 621 596 l 682 711 l 761 865 b 818 900 772 886 794 900 l 818 906 z "},"Z":{"ha":815,"x_min":0,"x_max":0,"o":"m 485 854 b 547 851 507 854 528 853 b 614 828 585 849 614 842 b 472 732 614 801 513 806 b 331 404 447 688 360 458 b 0 -278 329 403 0 -278 l 692 -278 l 718 -136 l 713 -136 b 547 -225 699 -181 653 -225 l 197 -225 l 506 411 b 581 697 529 460 510 611 b 710 831 613 738 671 790 b 746 883 731 854 746 874 b 740 893 746 888 744 892 b 647 906 726 903 696 906 l 54 906 l 28 765 l 33 765 b 190 854 51 821 113 854 z "},"[":{"ha":308,"x_min":0,"x_max":0,"o":"m 239 1024 l 239 1075 l 0 1075 l 0 -450 l 239 -450 l 239 -399 l 154 -399 l 154 1024 z "},"\\":{"ha":447,"x_min":0,"x_max":0,"o":"m 0 906 l 325 -278 l 378 -278 l 53 906 z "},"]":{"ha":308,"x_min":0,"x_max":0,"o":"m 0 1024 l 83 1024 l 83 -399 l 0 -399 l 0 -450 l 239 -450 l 239 1075 l 0 1075 z "},"^":{"ha":339,"x_min":0,"x_max":0,"o":"m 135 1014 l 0 829 l 29 799 l 135 913 l 240 799 l 269 829 z "},"_":{"ha":976,"x_min":0,"x_max":0,"o":"m 0 -278 l 907 -278 l 907 -226 l 0 -226 z "},"`":{"ha":306,"x_min":0,"x_max":0,"o":"m 210 806 l 236 839 l 38 1006 l 0 958 z "},"a":{"ha":782,"x_min":0,"x_max":0,"o":"m 667 296 b 357 621 667 481 568 621 l 354 621 b 50 404 210 621 50 531 b 188 263 50 315 114 263 b 293 299 222 263 258 274 b 183 431 243 314 183 344 b 349 569 183 515 268 569 l 350 569 b 513 400 465 569 513 488 b 0 -93 513 213 0 175 b 214 -278 0 -211 119 -278 b 486 -44 467 -278 408 -44 b 513 -76 503 -44 508 -57 l 513 -147 b 643 -278 513 -219 571 -278 l 713 -278 l 713 -272 b 667 -114 707 -272 667 -268 z m 513 10 b 474 32 506 17 493 32 b 292 -218 347 32 457 -218 b 167 -82 239 -218 167 -190 l 167 -79 b 513 328 167 122 468 215 z "},"b":{"ha":811,"x_min":0,"x_max":0,"o":"m 415 621 b 213 500 338 621 261 585 l 213 906 l 10 906 l 10 900 b 57 853 36 900 57 879 l 57 -158 b 0 -271 57 -262 0 -271 l 0 -278 b 210 -204 118 -278 149 -204 b 410 -278 300 -204 322 -278 l 422 -278 b 742 172 628 -278 742 -76 b 415 621 742 438 597 621 z m 578 149 b 369 -231 578 -65 465 -231 b 340 -226 358 -231 349 -229 b 213 -129 274 -207 281 -129 l 213 413 b 363 569 226 524 307 569 b 578 172 493 569 578 392 z "},"c":{"ha":779,"x_min":0,"x_max":0,"o":"m 456 -226 b 156 172 283 -226 156 -47 b 457 569 156 392 294 569 b 613 475 507 569 613 546 b 514 326 613 396 514 382 b 603 249 514 281 553 249 l 613 249 b 608 276 610 258 608 268 b 699 447 608 351 699 354 b 433 621 699 517 617 621 b 0 172 185 621 0 446 b 450 -278 0 -111 201 -278 b 710 -182 618 -278 710 -182 b 653 -112 710 -182 689 -158 b 456 -226 606 -189 521 -226 z "},"d":{"ha":811,"x_min":0,"x_max":0,"o":"m 683 906 l 482 906 l 482 900 b 528 854 507 900 528 881 l 528 500 b 325 621 481 585 404 621 b 0 172 143 621 0 438 b 318 -278 0 -76 135 -278 b 475 -149 435 -278 458 -200 b 504 -110 481 -129 490 -110 b 528 -124 511 -110 518 -114 l 528 -278 l 742 -278 l 742 -271 b 683 -158 742 -271 683 -262 z m 528 -25 b 511 -24 522 -24 517 -24 b 401 -226 421 -24 467 -206 l 400 -226 b 385 -229 396 -228 390 -228 b 372 -231 381 -229 376 -231 b 164 149 276 -231 164 -65 b 163 172 164 157 163 165 b 378 569 163 392 247 569 b 528 413 435 569 515 524 z "},"e":{"ha":815,"x_min":0,"x_max":0,"o":"m 456 -226 b 175 24 324 -226 208 -115 l 175 25 b 172 47 174 33 172 40 b 275 181 172 117 232 174 b 290 182 281 181 285 182 b 417 100 351 182 367 133 b 513 74 444 82 478 74 b 746 288 622 74 746 161 b 421 621 746 578 476 621 l 414 621 b 0 172 167 621 0 421 b 449 -278 0 -76 182 -278 b 708 -182 618 -278 708 -182 b 651 -112 708 -182 688 -158 b 456 -226 604 -189 519 -226 z m 154 172 b 397 569 154 392 246 569 l 400 569 b 604 299 457 569 604 528 b 481 108 604 135 524 108 b 314 238 397 108 400 238 b 164 72 240 238 164 158 b 154 172 158 104 154 138 z "},"f":{"ha":432,"x_min":0,"x_max":0,"o":"m 94 833 b 108 860 97 851 103 860 b 250 719 132 860 176 753 b 274 715 257 717 265 715 b 363 781 301 715 336 732 b 189 904 264 782 278 904 b 29 736 89 904 29 844 b 90 571 29 661 68 607 l 0 571 l 0 519 l 79 519 l 79 -228 b 35 -272 79 -253 60 -272 l 35 -278 l 279 -278 l 279 -272 b 249 -258 267 -272 256 -267 b 235 -228 240 -251 235 -240 l 235 519 l 343 519 l 343 571 l 238 571 b 93 819 157 638 93 754 b 94 833 93 824 93 829 z "},"g":{"ha":771,"x_min":0,"x_max":0,"o":"m 233 311 b 276 494 233 382 247 443 b 381 569 306 544 340 569 b 485 494 421 569 456 544 b 528 311 514 443 528 382 b 485 129 528 240 514 179 b 381 53 456 78 421 53 b 276 129 340 53 306 78 b 233 311 247 179 233 240 z m 386 -93 b 228 -146 329 -110 276 -128 b 113 -182 171 -169 133 -182 b 99 -172 103 -182 99 -179 l 99 -171 b 182 -107 103 -153 131 -131 b 354 -36 233 -83 292 -60 b 465 8 396 -21 433 -6 b 528 43 497 22 518 33 b 642 156 575 69 613 107 b 683 313 669 203 683 256 b 610 515 683 390 658 458 b 424 618 561 572 499 606 b 461 646 433 636 446 646 b 529 619 479 646 501 638 b 543 613 533 618 539 615 b 578 603 556 606 568 603 b 626 626 599 603 615 611 b 647 667 636 642 643 656 b 636 664 643 665 640 664 b 593 685 624 664 608 671 b 522 721 575 700 551 713 b 514 722 519 722 517 722 b 467 703 497 722 482 715 b 428 658 451 689 439 674 b 404 621 417 643 408 631 b 393 622 400 621 397 621 l 381 622 b 168 532 297 622 226 592 b 79 313 108 471 79 397 b 156 108 79 233 104 165 b 347 7 206 51 269 17 b 165 -31 286 3 225 -10 b 61 -129 104 -51 69 -83 l 61 -136 b 110 -200 61 -168 78 -190 b 228 -217 142 -211 181 -217 b 383 -208 276 -217 329 -214 b 517 -200 435 -203 479 -200 b 635 -225 569 -200 608 -208 b 672 -290 660 -242 672 -264 b 658 -344 672 -306 668 -324 b 606 -399 649 -365 631 -383 b 499 -422 581 -414 544 -422 b 413 -406 463 -422 433 -417 b 361 -367 392 -396 374 -382 b 326 -321 347 -351 336 -336 b 296 -276 317 -303 306 -289 b 250 -260 285 -265 269 -260 b 189 -279 226 -260 206 -267 b 139 -325 171 -292 154 -307 b 88 -372 124 -343 106 -358 b 17 -394 68 -387 44 -394 b 0 -393 11 -394 6 -394 b 35 -451 7 -414 18 -433 b 96 -481 51 -471 72 -481 l 100 -481 b 151 -443 124 -479 142 -467 b 175 -369 161 -421 169 -396 b 189 -317 179 -349 183 -332 b 214 -294 194 -301 203 -294 b 229 -311 218 -294 224 -300 b 247 -356 235 -322 240 -337 b 289 -454 257 -385 271 -418 b 360 -549 307 -490 331 -522 b 476 -589 389 -575 428 -589 b 640 -514 544 -589 599 -564 b 701 -312 681 -464 701 -397 b 664 -182 701 -260 689 -217 b 571 -107 639 -149 608 -124 b 456 -83 533 -92 494 -83 b 386 -93 432 -83 408 -86 z "},"h":{"ha":763,"x_min":0,"x_max":0,"o":"m 693 -272 b 650 -228 669 -272 650 -253 l 650 308 b 453 621 650 542 568 621 b 238 493 332 621 289 493 b 200 517 226 493 214 500 l 200 906 l 0 906 l 0 900 b 32 888 13 900 24 896 b 44 856 40 879 44 868 l 44 -228 b 0 -272 44 -253 25 -272 l 0 -278 l 244 -278 l 244 -272 b 214 -258 232 -272 221 -267 b 200 -178 206 -251 200 -240 l 200 422 b 228 411 210 415 219 411 b 403 569 283 411 296 569 b 494 339 490 569 494 396 l 494 -226 b 449 -272 494 -251 474 -272 l 449 -278 l 693 -278 z "},"i":{"ha":315,"x_min":0,"x_max":0,"o":"m 214 -258 b 200 -228 206 -251 200 -240 l 200 621 l 0 621 l 0 617 b 32 603 13 617 24 611 b 46 571 40 594 46 583 l 46 -228 b 0 -272 46 -253 25 -272 l 0 -278 l 246 -278 l 246 -272 b 214 -258 233 -272 222 -267 z m 213 815 b 122 906 213 865 172 906 b 33 815 74 906 33 865 b 122 726 33 767 74 726 b 213 815 172 726 213 767 z "},"j":{"ha":371,"x_min":0,"x_max":0,"o":"m 211 725 b 301 815 261 725 301 765 b 211 906 301 865 261 906 b 121 815 161 906 121 865 b 211 725 121 765 161 725 z m 289 621 l 89 621 l 89 615 b 121 603 101 615 113 611 b 133 571 129 594 133 583 l 133 -106 b 168 -278 133 -175 150 -229 b 214 -440 189 -337 214 -387 b 211 -471 214 -450 213 -461 b 150 -524 206 -506 176 -524 b 99 -467 124 -524 99 -506 b 103 -433 99 -457 100 -446 b 108 -394 106 -421 108 -407 b 22 -314 108 -354 88 -318 b 32 -343 29 -324 32 -333 b 0 -456 32 -376 0 -411 b 131 -562 0 -493 28 -562 b 289 -278 249 -562 283 -429 z "},"k":{"ha":722,"x_min":0,"x_max":0,"o":"m 242 181 l 240 181 l 240 179 z m 542 179 b 481 217 525 197 504 210 b 407 225 457 222 432 225 b 340 222 383 225 361 224 b 297 219 324 221 310 219 l 289 219 b 263 236 271 219 263 225 b 278 250 263 243 268 247 b 322 260 288 253 303 256 b 388 274 340 264 361 268 b 478 329 425 283 454 301 b 531 417 501 357 518 386 b 554 486 543 446 550 469 b 578 608 567 544 574 585 b 579 621 579 615 579 619 l 408 621 l 408 618 b 417 586 410 614 413 603 b 425 503 422 563 425 535 b 413 417 425 475 421 446 b 365 339 404 388 389 361 b 265 294 342 317 308 301 b 261 293 264 294 263 294 b 229 283 251 292 240 288 b 200 260 217 279 207 271 l 200 906 l 0 906 l 0 900 b 32 888 13 900 24 896 b 46 856 42 879 46 868 l 46 -228 b 33 -258 46 -240 42 -250 b 0 -272 24 -268 13 -272 l 0 -278 l 246 -278 l 246 -272 b 214 -260 233 -272 224 -268 b 200 -228 204 -250 200 -240 l 200 210 b 236 190 207 200 219 193 b 293 186 253 188 272 186 b 369 181 319 186 344 185 b 431 149 393 176 414 165 b 456 64 447 132 456 104 l 456 58 b 443 -58 454 21 450 -18 b 432 -181 436 -101 432 -143 b 456 -278 432 -218 440 -251 l 653 -278 b 600 -183 625 -257 607 -226 b 589 -46 593 -142 589 -96 b 581 82 589 -1 586 42 b 542 179 575 122 563 154 z "},"l":{"ha":315,"x_min":0,"x_max":0,"o":"m 246 -278 l 246 -272 b 214 -260 233 -272 222 -268 b 200 -228 206 -251 200 -240 l 200 906 l 0 906 l 0 900 b 32 888 13 900 24 896 b 46 856 40 879 46 868 l 46 -228 b 0 -272 46 -253 25 -272 l 0 -278 z "},"m":{"ha":1211,"x_min":0,"x_max":0,"o":"m 1099 308 b 854 621 1099 542 969 621 b 615 514 743 621 651 547 l 615 515 b 614 517 614 515 614 517 b 464 621 582 588 528 618 l 453 621 b 238 493 331 621 289 493 b 200 517 226 493 214 500 l 200 621 l 0 621 l 0 619 b 44 574 39 619 44 585 l 44 -228 b 0 -272 44 -253 25 -272 l 0 -278 l 244 -278 l 244 -272 b 213 -260 232 -272 221 -268 b 200 -178 204 -251 200 -240 l 200 422 b 226 411 210 415 219 411 b 403 569 282 411 296 569 b 494 340 490 569 494 396 l 494 -228 b 493 -232 494 -229 494 -231 l 493 -236 b 453 -272 489 -256 474 -269 l 449 -272 l 449 -278 l 693 -278 l 693 -272 l 685 -272 b 679 -269 683 -271 681 -271 b 674 -268 676 -269 675 -268 b 669 -265 672 -267 671 -267 b 649 -228 657 -258 649 -244 l 649 336 b 632 468 649 372 643 425 b 801 558 668 507 728 558 b 943 375 942 558 943 411 l 943 -226 b 897 -272 943 -251 922 -272 l 897 -278 l 1142 -278 l 1142 -272 b 1099 -228 1118 -272 1099 -253 z "},"n":{"ha":763,"x_min":0,"x_max":0,"o":"m 650 308 b 454 621 650 542 568 621 b 239 493 332 621 290 493 b 200 517 226 493 214 500 l 200 621 l 0 621 l 0 619 b 46 574 40 619 46 585 l 46 -228 b 0 -272 46 -253 25 -272 l 0 -278 l 246 -278 l 246 -272 b 214 -260 233 -272 222 -268 b 200 -178 206 -251 200 -240 l 200 422 b 228 411 210 415 219 411 b 403 569 283 411 296 569 b 494 339 490 569 494 396 l 494 -226 b 449 -272 494 -251 474 -272 l 449 -278 l 693 -278 l 693 -272 b 650 -228 669 -272 650 -253 z "},"o":{"ha":968,"x_min":0,"x_max":0,"o":"m 449 621 b 0 172 201 621 0 419 b 449 -278 0 -76 201 -278 b 899 172 697 -278 899 -76 b 449 621 899 419 697 621 z m 156 172 b 433 569 156 385 278 558 l 435 569 b 485 549 440 569 469 568 b 499 497 494 535 499 517 b 493 425 499 474 496 450 b 442 246 483 365 464 304 b 356 -47 403 136 356 33 b 435 -225 356 -144 404 -200 b 156 172 279 -215 156 -42 z m 535 -208 b 517 -211 529 -210 524 -211 b 453 -187 497 -211 474 -203 b 392 -68 419 -162 392 -119 b 446 114 392 -12 415 50 b 506 238 464 154 486 196 b 569 447 540 310 569 382 b 519 558 569 506 546 540 b 743 172 649 515 743 358 b 535 -208 743 -7 656 -158 z "},"p":{"ha":799,"x_min":0,"x_max":0,"o":"m 403 621 b 200 499 325 621 249 583 l 200 621 l 0 621 l 0 615 b 46 571 25 615 46 596 l 46 -511 b 0 -557 46 -536 25 -557 l 0 -562 l 244 -562 l 244 -557 b 200 -512 221 -557 200 -537 l 200 -139 b 217 -111 200 -128 207 -117 b 225 -110 219 -110 222 -110 b 254 -149 239 -110 249 -129 b 411 -278 271 -201 294 -278 b 729 172 593 -278 729 -76 b 403 621 729 436 585 621 z m 565 149 b 357 -231 565 -65 453 -231 b 344 -229 353 -231 349 -231 b 328 -226 339 -229 333 -228 b 218 -25 263 -206 308 -25 b 200 -26 213 -25 207 -25 l 200 413 b 351 569 214 522 294 569 b 565 172 481 569 565 392 z "},"q":{"ha":799,"x_min":0,"x_max":0,"o":"m 729 621 b 560 590 644 621 629 590 b 325 621 469 590 425 621 b 0 172 143 621 0 436 b 318 -278 0 -76 135 -278 b 475 -149 435 -278 458 -200 b 504 -110 481 -129 490 -110 b 513 -111 507 -110 510 -110 b 528 -139 522 -115 528 -126 l 528 -512 b 483 -557 528 -537 508 -557 l 483 -562 l 729 -562 l 729 -557 b 696 -543 717 -557 704 -551 b 683 -511 689 -535 683 -524 l 683 571 b 729 615 683 596 704 615 z m 528 -26 b 511 -25 522 -25 515 -25 b 400 -226 421 -25 467 -206 b 385 -229 396 -228 390 -229 b 371 -231 381 -231 376 -231 b 164 149 276 -231 164 -65 b 163 172 164 157 163 165 b 378 569 163 392 247 569 b 528 413 435 569 515 524 z "},"r":{"ha":660,"x_min":0,"x_max":0,"o":"m 583 576 b 554 571 574 572 564 571 b 383 636 501 571 469 636 b 200 443 264 636 215 499 l 200 621 l 0 621 l 0 615 b 32 603 13 615 25 611 b 46 571 40 594 46 583 l 46 -228 b 0 -272 46 -253 25 -272 l 0 -278 l 246 -278 l 246 -272 b 214 -260 233 -272 222 -268 b 200 -228 206 -251 200 -240 l 200 278 b 329 565 200 431 271 546 b 353 569 338 568 346 569 b 499 458 419 569 426 458 b 583 571 578 458 583 547 z "},"s":{"ha":679,"x_min":0,"x_max":0,"o":"m 610 -60 b 168 446 610 176 168 283 b 319 569 168 529 244 569 l 325 569 b 494 408 413 569 489 511 l 557 446 b 288 621 526 535 446 621 b 18 414 169 621 18 551 b 454 -83 18 210 454 85 b 289 -226 454 -171 394 -226 b 85 -114 160 -226 85 -158 b 225 -26 85 -78 194 -97 b 229 -7 228 -21 229 -14 b 174 83 229 28 194 69 b 0 -96 140 -11 0 0 b 296 -278 0 -225 186 -278 b 610 -60 421 -275 610 -214 z "},"t":{"ha":446,"x_min":0,"x_max":0,"o":"m 364 -176 b 311 -226 364 -176 351 -226 b 257 -115 265 -226 258 -156 l 257 569 l 369 569 l 369 621 l 257 621 l 257 779 l 249 779 b 101 640 249 779 208 681 b 0 621 74 628 39 621 l 0 569 l 101 569 l 101 -82 b 250 -278 101 -181 150 -278 b 297 -272 268 -278 283 -276 b 376 -185 343 -260 365 -228 z "},"u":{"ha":763,"x_min":0,"x_max":0,"o":"m 649 621 l 449 621 l 449 615 b 479 603 461 615 472 611 b 493 521 488 594 493 583 l 493 -79 b 465 -68 483 -72 474 -68 b 290 -226 410 -68 397 -226 b 199 4 203 -226 199 -53 l 199 621 l 0 621 l 0 615 b 43 572 24 615 43 596 l 43 35 b 240 -278 43 -199 125 -278 b 456 -150 361 -278 404 -150 b 493 -174 467 -150 479 -157 l 493 -278 l 693 -278 l 693 -276 b 649 -231 653 -276 649 -242 z "},"v":{"ha":756,"x_min":0,"x_max":0,"o":"m 686 621 l 544 621 l 544 615 b 578 582 564 615 578 600 b 576 572 578 579 578 575 l 479 250 b 403 186 460 193 424 213 b 393 125 394 175 393 153 b 400 -10 393 81 399 24 l 400 -14 b 376 -86 400 -65 376 -86 l 213 574 b 211 582 211 576 211 579 b 246 615 211 600 226 615 l 246 621 l 0 621 l 0 615 b 33 604 13 615 25 611 b 53 575 43 597 50 588 l 265 -278 l 407 -278 b 450 -237 429 -278 450 -258 b 432 32 450 -199 432 -68 b 443 132 432 72 435 108 b 536 261 456 214 508 169 l 632 575 b 686 615 639 599 661 615 z "},"w":{"ha":1051,"x_min":0,"x_max":0,"o":"m 982 621 l 840 621 l 840 615 b 874 582 858 615 874 600 b 872 572 874 579 874 575 l 649 -208 b 646 -187 646 -207 646 -200 b 667 229 646 -126 667 54 b 525 621 667 428 639 621 b 383 242 411 621 383 436 b 410 -196 383 53 410 -146 b 407 -208 410 -204 408 -208 l 213 574 b 211 582 211 576 211 579 b 244 615 211 600 226 615 l 244 621 l 0 621 l 0 615 b 33 604 13 615 24 611 b 51 575 42 597 49 588 l 269 -278 l 386 -278 b 433 -57 425 -278 433 -183 b 428 293 433 50 428 179 b 497 581 428 451 439 581 b 621 -278 593 581 476 -278 l 682 -278 l 926 575 b 982 615 935 599 957 615 z "},"x":{"ha":743,"x_min":0,"x_max":0,"o":"m 436 371 b 554 478 453 393 508 411 l 568 501 b 569 503 568 503 568 503 l 618 585 b 674 615 629 604 651 615 l 674 621 l 532 621 l 532 615 b 557 590 547 615 557 604 b 554 578 557 586 556 582 l 483 463 b 482 458 483 461 482 460 b 411 431 460 428 432 447 b 374 278 389 413 374 278 l 226 583 b 224 593 225 586 224 590 b 247 615 224 604 233 615 l 247 621 l 3 621 l 3 615 b 33 607 14 615 24 613 b 54 583 42 601 50 593 l 278 119 b 242 -28 278 119 261 -3 b 124 -136 224 -51 168 -69 l 108 -161 l 61 -237 b 0 -272 49 -260 25 -272 l 0 -278 l 140 -278 l 140 -272 b 118 -250 128 -272 118 -262 b 121 -239 118 -246 119 -242 l 193 -119 b 194 -117 193 -119 194 -118 b 267 -87 217 -85 244 -106 b 304 64 288 -69 304 64 l 450 -239 b 453 -249 451 -242 453 -246 b 428 -272 453 -261 442 -272 l 428 -278 l 674 -278 l 674 -272 b 643 -264 663 -272 651 -269 b 622 -240 635 -258 626 -251 l 400 222 b 436 371 400 222 417 344 z "},"y":{"ha":765,"x_min":0,"x_max":0,"o":"m 554 621 l 554 615 b 582 588 571 615 582 603 b 579 576 582 585 581 581 l 390 163 l 221 581 b 219 590 219 583 219 588 b 244 615 219 604 229 615 l 244 621 l 0 621 l 0 615 b 54 579 24 615 46 601 l 301 -31 l 303 -32 l 303 -42 b 483 -390 303 -206 483 -264 b 468 -408 483 -404 478 -408 b 201 -310 428 -408 308 -310 b 139 -324 181 -310 158 -314 b 79 -421 94 -347 79 -386 b 100 -494 79 -451 90 -479 b 228 -439 133 -453 178 -439 b 486 -485 317 -439 419 -485 b 560 -424 525 -485 553 -469 b 561 -407 561 -418 561 -412 b 378 -71 561 -293 378 -256 b 431 128 378 -18 393 46 l 638 578 b 696 615 647 601 671 615 l 696 621 z "},"z":{"ha":672,"x_min":0,"x_max":0,"o":"m 196 -226 l 479 361 l 492 388 b 603 594 553 515 603 549 b 596 606 603 599 601 603 b 457 621 575 619 508 621 l 65 621 l 36 469 l 42 469 b 193 569 42 469 79 569 l 432 569 b 450 558 444 569 450 565 b 307 361 450 529 363 447 l 24 -226 l 0 -278 l 556 -278 l 579 -143 l 575 -143 b 379 -226 575 -143 536 -226 z "},"{":{"ha":476,"x_min":0,"x_max":0,"o":"m 407 1075 b 181 849 281 1075 181 972 l 181 836 l 194 564 l 194 553 b 0 313 194 436 114 335 b 194 72 114 289 194 188 l 194 61 l 181 -211 l 181 -224 b 407 -450 181 -349 281 -450 l 407 -399 b 328 -321 363 -399 328 -364 l 328 -315 l 346 25 l 346 42 b 113 313 346 176 247 293 b 346 582 247 331 346 447 l 346 599 l 328 939 l 328 944 b 407 1024 328 988 363 1024 z "},"|":{"ha":121,"x_min":0,"x_max":0,"o":"m 51 -278 l 51 906 l 0 906 l 0 -278 z "},"}":{"ha":476,"x_min":0,"x_max":0,"o":"m 0 1024 b 79 944 44 1024 79 988 l 79 939 l 61 599 l 61 582 b 294 313 61 447 160 331 b 61 42 160 293 61 176 l 61 25 l 79 -315 l 79 -321 b 0 -399 79 -364 44 -399 l 0 -450 b 226 -224 126 -450 226 -349 l 226 -211 l 213 61 l 213 72 b 407 313 213 188 293 289 b 213 553 293 335 213 436 l 213 564 l 226 836 l 226 849 b 0 1075 226 972 126 1075 z "},"~":{"ha":410,"x_min":0,"x_max":0,"o":"m 0 176 b 39 207 11 190 25 200 b 74 214 50 211 63 214 l 81 214 b 119 206 94 214 108 211 b 151 182 131 201 140 193 b 172 164 157 176 164 171 b 199 147 179 158 189 151 b 215 142 204 144 210 143 b 233 139 222 140 228 139 b 265 143 244 139 256 140 b 315 178 286 149 304 163 b 340 226 328 193 335 210 l 318 211 l 297 199 b 257 188 283 190 269 188 l 251 188 b 239 189 247 188 243 188 b 231 192 235 189 233 190 b 222 194 228 193 225 193 b 190 224 214 201 203 211 b 167 242 183 229 175 236 b 153 250 163 244 157 247 b 138 257 147 253 143 256 b 106 261 126 260 115 261 l 90 261 b 75 258 85 260 79 260 b 22 228 54 254 35 243 b 0 176 8 214 0 194 z "},"¡":{"ha":276,"x_min":0,"x_max":0,"o":"m 90 133 l 0 -796 l 207 -796 l 117 133 z m 103 233 b 181 311 146 233 181 268 b 103 388 181 353 146 388 b 26 311 61 388 26 353 b 103 233 26 268 61 233 z "},"¢":{"ha":994,"x_min":0,"x_max":0,"o":"m 863 -19 b 610 -226 824 -153 726 -226 b 526 -217 582 -226 554 -224 l 526 846 b 600 853 550 850 575 853 b 792 726 663 853 792 828 b 636 481 792 597 636 610 b 740 379 636 424 681 379 b 754 381 746 379 750 381 b 889 669 756 514 889 565 b 553 904 889 831 703 904 l 526 904 l 526 1079 l 475 1079 l 475 899 b 0 313 213 863 0 639 b 475 -271 0 -3 211 -225 l 475 -453 l 526 -453 l 526 -276 b 574 -279 542 -278 558 -279 b 925 -128 686 -279 821 -236 z m 165 318 b 475 831 165 563 296 765 l 475 -200 b 165 318 303 -129 165 69 z "},"£":{"ha":885,"x_min":0,"x_max":0,"o":"m 650 -87 b 582 60 599 -31 582 18 b 621 178 582 111 607 150 l 610 178 b 449 65 501 178 449 129 b 506 -61 449 26 468 -18 b 644 -210 560 -122 644 -178 b 535 -240 644 -229 615 -240 b 121 -207 463 -240 121 -233 b 274 164 121 -143 274 -104 l 274 303 l 463 303 l 463 356 l 274 356 l 274 760 b 322 888 274 854 294 888 b 476 693 376 888 460 757 b 518 778 503 708 518 742 b 346 906 518 838 471 906 b 318 904 336 906 328 904 b 118 643 144 886 118 707 l 118 356 l 0 356 l 0 303 l 118 303 l 118 58 b 74 -228 118 -210 74 -194 b 101 -262 74 -244 85 -256 b 185 -278 124 -272 156 -276 l 576 -278 b 733 -224 658 -278 733 -274 b 650 -87 733 -196 710 -153 z "},"¤":{"ha":676,"x_min":0,"x_max":0,"o":"m 607 311 b 536 507 607 386 581 454 l 581 553 l 544 589 l 499 543 b 304 615 446 588 378 615 b 108 543 229 615 161 588 l 63 589 l 26 553 l 72 507 b 0 311 28 454 0 386 b 72 117 0 238 28 169 l 26 71 l 63 35 l 108 81 b 304 8 161 36 229 8 b 499 81 378 8 446 36 l 544 35 l 581 71 l 536 117 b 607 311 581 169 607 238 z m 463 117 b 304 60 419 82 364 60 b 146 117 243 60 189 82 b 108 153 132 128 119 140 b 53 311 74 197 53 251 b 108 471 53 372 74 426 b 146 507 119 483 132 496 b 304 564 189 542 243 564 b 463 507 364 564 419 542 b 499 471 475 496 488 483 b 556 311 533 426 556 372 b 499 153 556 251 533 197 b 463 117 488 140 475 128 z "},"¥":{"ha":888,"x_min":0,"x_max":0,"o":"m 676 906 l 676 900 b 703 874 692 900 703 888 b 700 861 703 869 703 865 l 632 726 b 494 626 576 629 531 658 b 458 483 465 600 458 536 b 464 397 458 436 464 397 l 226 869 b 224 879 225 872 224 876 b 244 900 224 890 232 900 l 244 906 l 0 906 l 0 900 b 32 892 11 900 22 897 b 54 867 40 885 49 876 l 331 317 l 331 308 l 182 308 l 182 256 l 331 256 l 331 200 l 182 200 l 182 149 l 331 149 l 331 -228 b 285 -272 331 -253 310 -272 l 285 -278 l 531 -278 l 531 -272 b 499 -260 518 -272 507 -268 b 485 -228 490 -251 485 -240 l 485 149 l 635 149 l 635 200 l 485 200 l 485 256 l 635 256 l 635 308 l 485 308 l 485 325 l 486 326 b 532 535 489 378 486 474 b 669 688 597 622 621 597 l 682 711 l 761 865 b 818 900 771 886 793 900 l 818 906 z "},"¦":{"ha":121,"x_min":0,"x_max":0,"o":"m 51 906 l 0 906 l 0 431 l 51 431 z m 0 197 l 0 -278 l 51 -278 l 51 197 z "},"§":{"ha":651,"x_min":0,"x_max":0,"o":"m 582 185 b 504 353 582 250 550 304 b 436 414 483 374 461 394 b 174 618 344 486 232 547 b 143 671 161 635 150 653 b 135 717 138 685 135 700 b 279 864 135 819 206 864 b 414 742 344 864 414 821 b 407 681 414 722 410 701 b 404 650 406 671 404 660 b 406 632 404 644 404 638 b 478 575 411 607 429 586 b 501 571 485 574 493 572 b 485 624 489 592 485 608 b 486 642 485 631 485 636 b 508 725 493 668 508 692 b 289 906 508 819 406 906 b 28 678 126 906 28 811 b 46 592 28 647 35 618 b 0 444 18 554 0 506 b 78 276 0 379 32 324 b 146 215 99 254 121 235 b 408 10 238 143 349 82 b 439 -42 421 -7 432 -24 b 447 -87 444 -57 447 -72 b 303 -236 447 -192 376 -236 b 168 -114 238 -236 168 -193 b 175 -53 168 -93 172 -72 b 178 -21 176 -42 178 -31 b 176 -3 178 -15 178 -8 b 104 54 171 22 153 43 b 81 58 97 56 89 57 b 97 4 93 36 97 19 b 96 -14 97 -1 97 -8 b 74 -96 89 -40 74 -62 b 293 -276 74 -192 176 -276 b 554 -49 456 -276 554 -182 b 535 38 554 -18 547 10 b 582 185 564 75 582 124 z m 189 358 b 157 392 176 369 167 381 b 113 488 129 422 113 454 l 113 496 b 393 271 193 411 314 342 l 426 238 b 469 140 453 207 469 175 l 469 132 b 189 358 389 218 267 288 z "},"¨":{"ha":408,"x_min":0,"x_max":0,"o":"m 75 981 b 0 907 33 981 0 947 b 75 832 0 865 33 832 b 149 907 115 832 149 865 b 75 981 149 947 115 981 z m 265 981 b 190 907 224 981 190 947 b 265 832 190 865 224 832 b 339 907 306 832 339 865 b 265 981 339 947 306 981 z "},"©":{"ha":1253,"x_min":0,"x_max":0,"o":"m 657 -19 b 382 317 515 -19 382 125 b 650 647 382 500 501 647 b 768 569 689 647 768 632 b 672 417 768 489 672 496 b 738 356 672 382 700 356 l 746 356 b 829 533 746 438 829 469 b 621 679 829 632 714 679 b 281 314 438 679 281 535 b 635 -51 281 94 444 -51 b 851 42 703 -51 786 -25 l 813 108 b 657 -19 788 26 728 -19 z m 592 906 b 0 314 265 906 0 640 b 592 -278 0 -12 265 -278 b 1183 314 918 -278 1183 -12 b 592 906 1183 640 918 906 z m 592 -226 b 51 314 294 -226 51 17 b 592 854 51 611 294 854 b 1132 314 889 854 1132 611 b 592 -226 1132 17 889 -226 z "},"ª":{"ha":293,"x_min":0,"x_max":0,"o":"m 142 896 b 129 906 140 901 135 906 l 75 906 l 75 904 l 76 904 b 97 886 88 904 97 896 l 97 882 b 0 657 78 789 0 736 b 53 586 0 604 33 586 b 90 635 83 586 90 608 b 86 699 90 657 86 681 b 90 710 86 707 88 710 b 146 679 99 710 117 685 l 147 671 l 164 600 l 164 599 b 150 588 164 592 156 588 l 150 586 l 224 586 l 224 588 b 208 600 215 588 210 593 z m 94 725 b 86 729 92 728 89 729 b 53 618 67 729 93 618 b 24 674 38 618 24 636 b 103 872 24 739 93 804 l 140 706 b 94 725 119 706 99 721 z "},"«":{"ha":797,"x_min":0,"x_max":0,"o":"m 456 521 l 429 565 l 0 314 l 429 63 l 456 107 l 103 314 z m 728 521 l 701 565 l 272 314 l 701 63 l 728 107 l 374 314 z "},"¬":{"ha":756,"x_min":0,"x_max":0,"o":"m 0 392 l 0 340 l 635 340 l 635 231 l 686 231 l 686 392 z "},"®":{"ha":665,"x_min":0,"x_max":0,"o":"m 350 651 b 250 600 308 651 267 600 b 244 611 247 600 244 603 b 400 728 244 663 400 649 b 243 793 400 785 299 793 b 206 792 222 793 208 792 l 182 792 l 182 790 b 192 786 186 790 189 789 b 196 776 194 783 196 779 l 196 440 b 182 426 196 432 189 426 l 182 425 l 258 425 l 258 426 b 247 431 254 426 250 428 b 244 440 246 433 244 436 l 244 585 b 250 583 246 583 249 583 b 344 640 272 583 310 640 b 356 624 353 640 356 635 b 332 481 356 594 332 533 b 346 425 332 460 336 440 l 414 425 b 381 503 388 444 381 472 b 392 608 381 540 392 579 b 350 651 392 633 383 651 z m 244 778 l 256 778 b 354 728 285 778 354 772 b 244 633 354 681 268 675 z m 299 906 b 0 608 135 906 0 772 b 299 311 0 444 135 311 b 596 608 463 311 596 444 b 299 906 596 772 463 906 z m 299 338 b 26 608 149 338 26 458 b 299 881 26 758 149 881 b 569 608 447 881 569 758 b 299 338 569 458 447 338 z "},"¯":{"ha":328,"x_min":0,"x_max":0,"o":"m 0 881 l 258 881 l 258 932 l 0 932 z "},"°":{"ha":322,"x_min":0,"x_max":0,"o":"m 126 781 b 253 907 196 781 253 838 b 126 1033 253 976 196 1033 b 0 907 57 1033 0 976 b 126 781 0 838 57 781 z m 126 981 b 200 907 167 981 200 947 b 126 832 200 865 167 832 b 51 907 85 832 51 865 b 126 981 51 947 85 981 z "},"±":{"ha":801,"x_min":0,"x_max":0,"o":"m 0 396 l 0 344 l 340 344 l 340 4 l 392 4 l 392 344 l 732 344 l 732 396 l 392 396 l 392 736 l 340 736 l 340 396 z m 3 -119 l 729 -119 l 729 -68 l 3 -68 z "},"²":{"ha":250,"x_min":0,"x_max":0,"o":"m 115 640 b 25 611 93 635 44 611 b 17 617 19 611 17 613 b 181 838 17 633 181 744 b 97 906 181 881 143 906 b 14 858 21 906 14 858 b 13 849 14 854 13 851 b 25 807 13 828 25 821 l 25 801 b 49 831 44 810 49 819 b 44 858 49 839 44 849 l 44 860 b 90 892 46 878 64 892 b 138 843 94 892 138 890 l 138 840 b 0 607 138 754 0 638 b 36 588 0 603 3 588 b 124 607 74 588 97 607 b 176 585 150 607 172 589 b 175 633 176 597 175 633 b 139 644 175 633 163 644 b 115 640 132 644 124 643 z "},"³":{"ha":251,"x_min":0,"x_max":0,"o":"m 182 685 l 178 701 b 138 740 171 724 153 733 b 92 757 122 747 92 746 b 167 833 92 769 167 764 b 88 906 167 878 133 906 b 11 858 19 906 11 858 b 10 849 11 854 10 851 b 22 807 10 828 22 819 l 22 801 b 46 831 42 810 46 819 b 42 858 46 839 42 849 l 42 860 b 85 892 43 878 58 892 b 125 828 88 892 125 890 b 57 756 125 743 57 788 b 139 694 57 735 133 756 l 140 686 l 140 675 b 82 600 140 633 117 600 b 33 668 57 600 33 626 l 33 672 l 0 638 b 83 586 13 610 47 586 b 182 675 136 586 182 626 z "},"´":{"ha":306,"x_min":0,"x_max":0,"o":"m 25 806 l 236 958 l 197 1006 l 0 839 z "},"µ":{"ha":763,"x_min":0,"x_max":0,"o":"m 200 -44 l 199 621 l 0 621 l 0 615 b 31 603 13 615 22 611 b 43 572 39 594 43 585 l 46 -394 b 33 -425 46 -407 42 -417 b 0 -439 24 -435 13 -439 l 0 -444 l 246 -444 l 246 -439 b 214 -425 233 -439 222 -435 b 200 -394 204 -417 200 -407 l 200 -274 b 240 -278 213 -276 226 -278 b 332 -250 278 -278 308 -268 b 393 -193 356 -232 376 -214 b 433 -156 411 -172 424 -160 b 454 -149 443 -151 450 -149 b 493 -174 465 -149 479 -157 l 493 -278 l 693 -278 l 693 -276 b 664 -267 681 -276 671 -274 b 651 -247 657 -261 653 -254 b 649 -231 650 -240 649 -235 l 649 621 l 449 621 l 449 615 b 479 603 461 615 471 611 b 488 592 482 600 485 596 b 492 569 489 588 490 579 b 493 521 493 558 493 542 l 493 -79 b 465 -68 483 -72 474 -68 b 446 -76 458 -68 451 -71 b 408 -128 433 -89 421 -106 b 364 -194 396 -151 382 -174 b 290 -226 346 -215 321 -226 b 238 -196 267 -226 250 -217 b 210 -125 225 -176 215 -153 b 200 -44 204 -97 201 -71 z "},"¶":{"ha":646,"x_min":0,"x_max":0,"o":"m 421 906 l 421 -278 l 576 -278 l 576 906 z m 267 906 b 0 639 119 906 0 786 b 267 372 0 492 119 372 l 339 372 l 339 -278 l 390 -278 l 390 906 z "},"·":{"ha":225,"x_min":0,"x_max":0,"o":"m 156 313 b 78 390 156 356 121 390 b 0 313 35 390 0 356 b 78 235 0 269 35 235 b 156 313 121 235 156 269 z "},"∙":{"ha":225,"x_min":0,"x_max":0,"o":"m 156 313 b 78 390 156 356 121 390 b 0 313 35 390 0 356 b 78 235 0 269 35 235 b 156 313 121 235 156 269 z "},"¸":{"ha":264,"x_min":0,"x_max":0,"o":"m 194 -311 b 103 -251 194 -279 151 -251 b 61 -258 89 -251 75 -254 l 129 -154 l 69 -154 l 33 -278 b 60 -275 42 -276 50 -275 b 86 -278 69 -275 78 -276 b 128 -308 113 -283 128 -297 b 65 -342 128 -324 107 -340 b 25 -322 50 -342 31 -331 l 0 -382 b 60 -393 18 -389 38 -393 b 194 -311 128 -393 194 -362 z "},"¹":{"ha":139,"x_min":0,"x_max":0,"o":"m 61 592 b 58 600 60 594 58 597 l 58 906 l 56 906 b 0 868 56 906 28 878 b 17 828 15 863 17 843 l 17 600 b 4 588 17 593 11 588 l 4 586 l 69 586 l 69 588 b 61 592 67 588 64 589 z "},"º":{"ha":254,"x_min":0,"x_max":0,"o":"m 93 904 b 0 744 42 904 0 832 b 93 585 0 656 42 585 b 185 744 143 585 185 656 b 93 904 185 832 143 904 z m 93 599 b 42 744 65 599 42 664 b 93 890 42 825 65 890 b 143 744 121 890 143 825 b 93 599 143 664 121 599 z "},"»":{"ha":797,"x_min":0,"x_max":0,"o":"m 272 521 l 625 314 l 272 107 l 297 63 l 728 314 l 297 565 z m 0 521 l 354 314 l 0 107 l 26 63 l 456 314 l 26 565 z "},"¼":{"ha":660,"x_min":0,"x_max":0,"o":"m 390 906 l 65 -278 l 118 -278 l 443 906 z m 6 426 l 104 426 l 104 429 b 92 433 100 429 94 431 b 86 447 89 438 86 442 l 86 906 l 82 906 b 0 850 82 906 40 864 b 24 789 22 842 24 813 l 24 447 b 6 429 24 436 15 429 z m 572 131 l 567 131 b 497 69 567 131 538 93 b 508 19 506 63 508 67 l 508 -79 b 386 -90 465 -81 418 -90 b 357 -85 374 -90 364 -89 b 351 -75 353 -83 351 -79 b 464 131 351 -39 451 69 b 467 158 465 142 467 150 b 457 203 467 189 457 203 l 386 203 b 407 149 386 203 407 185 b 404 126 407 142 406 135 b 326 -49 394 74 326 3 b 390 -106 326 -100 363 -106 b 490 -103 413 -106 454 -103 l 508 -103 l 508 -257 b 490 -275 508 -267 501 -275 l 490 -278 l 590 -278 l 590 -275 b 572 -257 581 -275 572 -267 z "},"½":{"ha":694,"x_min":0,"x_max":0,"o":"m 390 906 l 65 -278 l 118 -278 l 444 906 z m 6 426 l 104 426 l 104 429 b 92 433 100 429 96 431 b 86 447 89 438 86 442 l 86 906 l 82 906 b 0 850 82 906 42 864 b 24 789 22 842 24 813 l 24 447 b 6 429 24 436 15 429 z m 526 -194 b 392 -240 494 -203 421 -240 b 379 -231 383 -240 379 -237 b 625 101 379 -206 625 -39 b 499 204 625 165 568 204 b 374 132 386 204 374 133 b 372 118 372 126 372 122 b 392 54 372 86 392 76 l 392 47 b 426 90 419 60 426 75 b 421 131 426 104 421 118 l 421 135 b 488 183 422 163 449 183 b 561 111 493 183 561 182 l 561 106 b 354 -244 561 -24 354 -200 b 408 -275 354 -251 357 -275 b 539 -246 463 -275 500 -246 b 618 -279 579 -246 613 -274 b 617 -207 618 -261 617 -207 b 560 -190 617 -207 596 -190 b 526 -194 550 -190 539 -192 z "},"¾":{"ha":718,"x_min":0,"x_max":0,"o":"m 272 574 b 267 599 271 582 269 590 b 204 657 254 632 228 646 b 136 683 182 668 136 667 b 249 799 136 701 249 693 b 129 906 249 863 199 906 b 15 835 28 906 15 835 b 14 821 14 829 14 825 b 33 756 14 789 33 778 l 33 749 b 68 793 61 763 68 778 b 63 832 68 806 63 819 l 63 836 b 125 885 64 865 86 885 b 188 789 128 885 188 883 l 188 788 b 85 681 188 663 85 729 b 208 588 85 649 199 681 l 208 575 b 210 560 210 569 210 565 b 122 447 210 497 175 447 b 50 547 86 447 50 486 l 50 554 l 0 503 b 124 426 18 461 69 426 b 272 560 203 426 272 486 z m 461 906 l 136 -278 l 189 -278 l 515 906 z m 631 131 l 625 131 b 556 69 625 131 596 93 b 568 19 564 63 568 67 l 568 -79 b 446 -90 524 -81 476 -90 b 417 -85 433 -90 424 -89 b 411 -74 413 -82 411 -79 b 522 131 411 -37 510 69 b 525 158 524 142 525 150 b 515 203 525 189 515 203 l 444 203 b 465 149 444 203 465 185 b 463 126 465 142 464 135 b 385 -49 453 74 385 3 b 449 -106 385 -100 422 -106 b 550 -103 471 -106 513 -103 l 568 -103 l 568 -257 b 549 -275 568 -267 560 -275 l 549 -278 l 649 -278 l 649 -275 b 631 -257 639 -275 631 -267 z "},"¿":{"ha":646,"x_min":0,"x_max":0,"o":"m 315 233 b 393 311 358 233 393 268 b 315 388 393 353 358 388 b 238 311 272 388 238 353 b 315 233 238 268 272 233 z m 317 -764 b 158 -576 192 -764 158 -661 b 346 7 158 -412 346 -319 b 338 133 346 46 343 88 l 307 133 b 308 96 307 121 308 108 b 0 -558 308 -308 0 -300 b 299 -800 0 -719 114 -800 b 576 -569 574 -800 576 -574 b 492 -365 576 -437 492 -406 b 494 -353 492 -361 493 -357 b 415 -451 433 -379 415 -415 b 453 -568 415 -492 438 -533 b 464 -619 460 -583 464 -601 b 317 -764 464 -687 417 -764 z "},"À":{"ha":896,"x_min":0,"x_max":0,"o":"m 525 869 b 475 906 521 890 500 906 l 276 906 l 276 900 l 279 900 b 358 829 324 900 358 868 b 357 815 358 825 358 819 b 0 -19 286 474 0 275 b 196 -278 0 -214 119 -278 b 333 -101 307 -278 333 -199 b 315 139 333 -22 315 71 b 332 181 315 168 321 181 b 538 67 361 181 433 89 l 544 35 l 604 -231 l 604 -235 b 551 -272 604 -256 576 -272 l 551 -278 l 826 -278 l 826 -272 b 768 -231 799 -272 774 -254 z m 351 233 b 319 250 339 244 328 250 b 192 -160 247 250 340 -160 b 83 44 138 -160 83 -93 b 379 783 83 289 342 531 l 517 163 b 351 233 442 165 364 222 z m 506 993 l 531 1026 l 333 1193 l 294 1146 z "},"Á":{"ha":896,"x_min":0,"x_max":0,"o":"m 525 869 b 475 906 521 890 500 906 l 276 906 l 276 900 l 279 900 b 358 829 324 900 358 868 b 357 815 358 825 358 819 b 0 -19 286 474 0 275 b 196 -278 0 -214 119 -278 b 333 -101 307 -278 333 -199 b 315 139 333 -22 315 71 b 332 181 315 168 321 181 b 538 67 361 181 433 89 l 544 35 l 604 -231 l 604 -235 b 551 -272 604 -256 576 -272 l 551 -278 l 826 -278 l 826 -272 b 768 -231 799 -272 774 -254 z m 351 233 b 319 250 339 244 328 250 b 192 -160 247 250 340 -160 b 83 44 138 -160 83 -93 b 379 783 83 289 342 531 l 517 163 b 351 233 442 165 364 222 z m 321 988 l 531 1140 l 493 1188 l 294 1021 z "},"Â":{"ha":896,"x_min":0,"x_max":0,"o":"m 525 869 b 475 906 521 890 500 906 l 276 906 l 276 900 l 279 900 b 358 829 324 900 358 868 b 357 815 358 825 358 819 b 0 -19 286 474 0 275 b 196 -278 0 -214 119 -278 b 333 -101 307 -278 333 -199 b 315 139 333 -22 315 71 b 332 181 315 168 321 181 b 538 67 361 181 433 89 l 544 35 l 604 -231 l 604 -235 b 551 -272 604 -256 576 -272 l 551 -278 l 826 -278 l 826 -272 b 768 -231 799 -272 774 -254 z m 351 233 b 319 250 339 244 328 250 b 192 -160 247 250 340 -160 b 83 44 138 -160 83 -93 b 379 783 83 289 342 531 l 517 163 b 351 233 442 165 364 222 z m 413 1201 l 279 1017 l 307 986 l 413 1100 l 518 986 l 547 1017 z "},"Ã":{"ha":896,"x_min":0,"x_max":0,"o":"m 525 869 b 475 906 521 890 500 906 l 276 906 l 276 900 l 279 900 b 358 829 324 900 358 868 b 357 815 358 825 358 819 b 0 -19 286 474 0 275 b 196 -278 0 -214 119 -278 b 333 -101 307 -278 333 -199 b 315 139 333 -22 315 71 b 332 181 315 168 321 181 b 538 67 361 181 433 89 l 544 35 l 604 -231 l 604 -235 b 551 -272 604 -256 576 -272 l 551 -278 l 826 -278 l 826 -272 b 768 -231 799 -272 774 -254 z m 351 233 b 319 250 339 244 328 250 b 192 -160 247 250 340 -160 b 83 44 138 -160 83 -93 b 379 783 83 289 342 531 l 517 163 b 351 233 442 165 364 222 z m 243 1069 b 282 1100 254 1083 268 1093 b 317 1107 293 1104 304 1107 l 324 1107 b 363 1099 338 1107 351 1104 b 394 1075 374 1094 383 1086 b 415 1057 400 1069 407 1064 b 442 1040 422 1051 432 1044 b 458 1035 447 1038 453 1036 b 476 1032 465 1033 471 1032 b 508 1036 488 1032 499 1033 b 558 1071 529 1042 547 1056 b 583 1119 571 1086 578 1103 l 561 1104 l 540 1092 b 500 1081 526 1083 513 1081 l 494 1081 b 482 1082 490 1081 486 1081 b 474 1085 478 1082 476 1083 b 465 1088 471 1086 468 1086 b 433 1117 457 1094 446 1104 b 410 1135 426 1122 418 1129 b 396 1143 406 1138 400 1140 b 381 1150 390 1146 386 1149 b 349 1154 369 1153 358 1154 l 333 1154 b 318 1151 328 1153 322 1153 b 265 1121 297 1147 278 1136 b 243 1069 251 1107 243 1088 z "},"Ä":{"ha":896,"x_min":0,"x_max":0,"o":"m 525 869 b 475 906 521 890 500 906 l 276 906 l 276 900 l 279 900 b 358 829 324 900 358 868 b 357 815 358 825 358 819 b 0 -19 286 474 0 275 b 196 -278 0 -214 119 -278 b 333 -101 307 -278 333 -199 b 315 139 333 -22 315 71 b 332 181 315 168 321 181 b 538 67 361 181 433 89 l 544 35 l 604 -231 l 604 -235 b 551 -272 604 -256 576 -272 l 551 -278 l 826 -278 l 826 -272 b 768 -231 799 -272 774 -254 z m 351 233 b 319 250 339 244 328 250 b 192 -160 247 250 340 -160 b 83 44 138 -160 83 -93 b 379 783 83 289 342 531 l 517 163 b 351 233 442 165 364 222 z m 318 1168 b 243 1094 276 1168 243 1135 b 318 1019 243 1053 276 1019 b 392 1094 358 1019 392 1053 b 318 1168 392 1135 358 1168 z m 508 1168 b 433 1094 467 1168 433 1135 b 508 1019 433 1053 467 1019 b 582 1094 549 1019 582 1053 b 508 1168 582 1135 549 1168 z "},"Å":{"ha":896,"x_min":0,"x_max":0,"o":"m 525 869 b 475 906 521 890 500 906 l 276 906 l 276 900 l 279 900 b 358 829 324 900 358 868 b 357 815 358 825 358 819 b 0 -19 286 474 0 275 b 196 -278 0 -214 119 -278 b 333 -101 307 -278 333 -199 b 315 139 333 -22 315 71 b 332 181 315 168 321 181 b 538 67 361 181 433 89 l 544 35 l 604 -231 l 604 -235 b 551 -272 604 -256 576 -272 l 551 -278 l 826 -278 l 826 -272 b 768 -231 799 -272 774 -254 z m 351 233 b 319 250 339 244 328 250 b 192 -160 247 250 340 -160 b 83 44 138 -160 83 -93 b 379 783 83 289 342 531 l 517 163 b 351 233 442 165 364 222 z m 413 968 b 539 1094 482 968 539 1025 b 413 1221 539 1164 482 1221 b 288 1094 343 1221 288 1164 b 413 968 288 1025 343 968 z m 413 1168 b 488 1094 454 1168 488 1135 b 413 1019 488 1053 454 1019 b 339 1094 372 1019 339 1053 b 413 1168 339 1135 372 1168 z "},"Æ":{"ha":1322,"x_min":0,"x_max":0,"o":"m 351 233 b 318 250 338 244 326 250 b 296 226 307 250 300 243 b 285 99 289 196 285 153 b 279 -19 285 58 283 19 b 254 -119 275 -60 267 -93 b 192 -160 242 -146 221 -160 b 118 -108 165 -160 140 -143 b 83 44 94 -75 83 -24 b 129 240 83 110 99 175 b 232 436 158 306 193 371 b 324 608 265 493 296 551 b 379 783 351 665 369 724 l 517 163 b 444 181 492 164 468 171 b 383 211 421 190 400 200 b 351 233 367 221 356 229 z m 765 -219 b 876 -262 800 -239 838 -253 b 1014 -281 926 -275 972 -281 b 1257 -247 1132 -281 1214 -269 b 1322 -158 1300 -225 1321 -196 b 1300 -37 1322 -122 1315 -82 b 1276 63 1286 6 1278 39 b 1275 104 1275 86 1275 100 b 1319 219 1275 144 1290 183 l 1250 219 b 1189 218 1229 218 1210 218 b 1136 218 1168 218 1150 218 b 1114 119 1121 185 1114 151 b 1119 71 1114 103 1115 88 b 1164 -65 1129 22 1144 -24 b 1193 -142 1179 -100 1189 -126 b 1197 -175 1196 -158 1197 -169 b 1176 -219 1197 -193 1190 -208 b 1056 -242 1157 -235 1117 -242 b 871 -179 979 -242 918 -221 b 772 -37 822 -137 790 -90 b 746 108 754 15 746 64 b 749 157 746 125 747 140 b 811 310 756 217 776 268 b 956 372 846 351 893 372 b 1044 363 986 372 1015 369 b 1124 339 1074 356 1100 347 b 1217 319 1161 326 1192 319 l 1225 319 b 1268 385 1250 321 1264 342 l 1268 388 b 1211 468 1268 426 1249 454 b 1065 499 1171 482 1122 492 b 933 524 1019 504 976 513 b 826 578 890 535 856 553 b 783 689 797 601 783 639 b 842 832 783 751 803 800 b 996 881 881 864 932 881 b 1100 857 1039 881 1074 872 b 1147 804 1125 840 1140 822 b 1157 758 1153 786 1157 771 b 1150 718 1157 744 1154 732 b 1142 667 1144 700 1142 682 b 1164 599 1142 640 1149 618 b 1290 550 1188 567 1229 551 b 1278 593 1282 564 1278 579 l 1278 601 b 1286 656 1279 619 1282 638 b 1297 707 1293 676 1296 693 b 1299 732 1299 719 1299 728 b 1282 800 1299 753 1293 776 b 1190 881 1267 832 1236 860 b 988 911 1143 901 1075 911 b 826 889 936 911 883 904 b 683 818 769 874 722 850 b 624 686 643 785 624 740 b 658 581 624 643 635 607 b 746 517 681 553 710 532 b 861 482 781 501 819 489 b 982 463 903 474 943 467 b 1106 440 1031 456 1072 449 b 1154 399 1138 432 1154 418 b 1129 385 1154 389 1146 385 l 1125 385 b 1044 392 1104 385 1078 388 b 938 403 1001 399 967 401 b 885 404 908 404 890 404 b 751 386 838 404 794 399 b 646 321 711 375 675 353 l 525 869 b 507 896 522 879 517 889 b 475 906 497 903 488 906 l 276 906 l 276 900 l 279 900 b 338 876 306 899 325 892 b 358 829 351 863 358 846 b 357 815 358 825 358 819 b 279 596 339 736 314 663 b 167 404 244 529 207 465 b 86 268 138 358 111 314 b 24 129 60 222 39 176 b 0 -19 8 82 0 32 b 33 -174 0 -85 11 -136 b 113 -254 56 -211 82 -239 b 196 -278 142 -269 169 -278 b 304 -231 249 -278 285 -262 b 332 -115 322 -200 332 -161 b 324 28 332 -69 329 -21 b 315 139 318 69 315 107 b 331 182 315 168 321 182 l 333 182 b 383 149 344 178 361 167 b 450 103 401 133 424 118 b 538 67 476 86 506 74 l 544 35 l 604 -231 l 604 -235 b 589 -260 604 -244 600 -253 b 551 -272 576 -268 564 -272 l 551 -278 l 826 -278 l 826 -272 b 789 -260 813 -272 800 -268 b 768 -231 778 -253 771 -243 z "},"Ç":{"ha":994,"x_min":0,"x_max":0,"o":"m 538 -276 l 506 -386 b 532 -383 514 -385 522 -383 b 558 -386 542 -383 550 -385 b 589 -399 571 -389 582 -393 b 600 -417 596 -406 600 -411 b 585 -439 600 -425 594 -432 b 538 -450 575 -446 558 -449 b 514 -443 529 -450 521 -447 b 497 -431 506 -439 500 -435 l 472 -490 b 532 -501 490 -497 510 -501 b 625 -479 565 -501 596 -494 b 667 -419 653 -465 667 -446 b 635 -374 667 -399 656 -383 b 578 -360 613 -364 594 -360 b 533 -367 564 -360 549 -362 l 592 -278 b 753 -244 643 -275 696 -264 b 925 -128 815 -222 872 -183 l 863 -19 b 754 -172 842 -86 806 -137 b 590 -226 703 -208 649 -226 b 381 -154 514 -226 444 -203 b 225 40 315 -107 264 -42 b 165 318 185 122 165 214 b 224 589 165 418 185 508 b 381 782 263 669 315 733 b 600 854 446 831 519 854 b 676 844 621 854 646 851 b 757 806 707 838 733 824 b 792 728 781 788 792 761 b 768 653 792 696 783 671 b 714 604 753 635 735 618 b 660 557 693 590 675 575 b 636 481 644 539 636 513 b 668 407 636 450 647 425 b 742 381 689 389 713 381 l 754 381 b 779 472 756 415 764 446 b 828 544 793 499 810 522 b 871 604 844 564 858 583 b 889 671 883 624 889 646 b 836 803 889 724 871 768 b 706 881 801 838 757 863 b 553 906 654 897 603 906 b 279 832 454 906 363 881 b 76 626 194 783 128 714 b 0 314 25 538 0 433 b 79 3 0 196 26 92 b 289 -204 132 -86 201 -156 b 538 -276 365 -247 449 -272 z "},"È":{"ha":1082,"x_min":0,"x_max":0,"o":"m 708 550 b 696 597 699 565 696 581 b 717 728 696 636 717 678 b 700 800 717 750 713 774 b 407 911 671 863 582 911 b 43 686 254 911 43 850 b 574 399 43 404 574 504 b 542 385 574 389 563 385 b 306 404 494 385 401 404 b 0 108 157 404 0 357 b 433 -281 0 -197 265 -281 b 740 -147 682 -281 740 -225 b 694 97 740 -76 694 13 b 739 219 694 140 706 182 l 722 219 b 579 218 688 219 624 218 l 554 218 b 532 122 539 186 532 154 b 617 -174 532 4 617 -106 b 475 -242 617 -217 583 -242 b 164 110 268 -242 164 -57 b 375 372 164 247 233 372 b 633 318 482 372 576 318 b 688 385 664 318 683 335 l 688 392 b 203 689 688 565 203 419 b 414 881 203 814 286 881 b 575 760 524 881 575 824 b 568 718 575 746 572 732 b 560 667 563 700 560 683 b 708 550 560 597 610 550 z m 463 993 l 489 1026 l 290 1193 l 253 1146 z "},"É":{"ha":1082,"x_min":0,"x_max":0,"o":"m 708 550 b 696 597 699 565 696 581 b 717 728 696 636 717 678 b 700 800 717 750 713 774 b 407 911 671 863 582 911 b 43 686 254 911 43 850 b 574 399 43 404 574 504 b 542 385 574 389 563 385 b 306 404 494 385 401 404 b 0 108 157 404 0 357 b 433 -281 0 -197 265 -281 b 740 -147 682 -281 740 -225 b 694 97 740 -76 694 13 b 739 219 694 140 706 182 l 722 219 b 579 218 688 219 624 218 l 554 218 b 532 122 539 186 532 154 b 617 -174 532 4 617 -106 b 475 -242 617 -217 583 -242 b 164 110 268 -242 164 -57 b 375 372 164 247 233 372 b 633 318 482 372 576 318 b 688 385 664 318 683 335 l 688 392 b 203 689 688 565 203 419 b 414 881 203 814 286 881 b 575 760 524 881 575 824 b 568 718 575 746 572 732 b 560 667 563 700 560 683 b 708 550 560 597 610 550 z m 279 993 l 489 1146 l 450 1193 l 253 1026 z "},"Ê":{"ha":1082,"x_min":0,"x_max":0,"o":"m 708 550 b 696 597 699 565 696 581 b 717 728 696 636 717 678 b 700 800 717 750 713 774 b 407 911 671 863 582 911 b 43 686 254 911 43 850 b 574 399 43 404 574 504 b 542 385 574 389 563 385 b 306 404 494 385 401 404 b 0 108 157 404 0 357 b 433 -281 0 -197 265 -281 b 740 -147 682 -281 740 -225 b 694 97 740 -76 694 13 b 739 219 694 140 706 182 l 722 219 b 579 218 688 219 624 218 l 554 218 b 532 122 539 186 532 154 b 617 -174 532 4 617 -106 b 475 -242 617 -217 583 -242 b 164 110 268 -242 164 -57 b 375 372 164 247 233 372 b 633 318 482 372 576 318 b 688 385 664 318 683 335 l 688 392 b 203 689 688 565 203 419 b 414 881 203 814 286 881 b 575 760 524 881 575 824 b 568 718 575 746 572 732 b 560 667 563 700 560 683 b 708 550 560 597 610 550 z m 371 1201 l 236 1017 l 265 986 l 371 1100 l 476 986 l 504 1017 z "},"Ë":{"ha":1082,"x_min":0,"x_max":0,"o":"m 708 550 b 696 597 699 565 696 581 b 717 728 696 636 717 678 b 700 800 717 750 713 774 b 407 911 671 863 582 911 b 43 686 254 911 43 850 b 574 399 43 404 574 504 b 542 385 574 389 563 385 b 306 404 494 385 401 404 b 0 108 157 404 0 357 b 433 -281 0 -197 265 -281 b 740 -147 682 -281 740 -225 b 694 97 740 -76 694 13 b 739 219 694 140 706 182 l 722 219 b 579 218 688 219 624 218 l 554 218 b 532 122 539 186 532 154 b 617 -174 532 4 617 -106 b 475 -242 617 -217 583 -242 b 164 110 268 -242 164 -57 b 375 372 164 247 233 372 b 633 318 482 372 576 318 b 688 385 664 318 683 335 l 688 392 b 203 689 688 565 203 419 b 414 881 203 814 286 881 b 575 760 524 881 575 824 b 568 718 575 746 572 732 b 560 667 563 700 560 683 b 708 550 560 597 610 550 z m 275 1168 b 201 1094 235 1168 201 1135 b 275 1019 201 1053 235 1019 b 350 1094 317 1019 350 1053 b 275 1168 350 1135 317 1168 z m 465 1168 b 392 1094 425 1168 392 1135 b 465 1019 392 1053 425 1019 b 540 1094 507 1019 540 1053 b 465 1168 540 1135 507 1168 z "},"Ì":{"ha":315,"x_min":0,"x_max":0,"o":"m 246 906 l 0 906 l 0 900 b 46 856 25 900 46 881 l 46 -228 b 0 -272 46 -253 25 -272 l 0 -278 l 246 -278 l 246 -272 b 200 -228 221 -272 200 -253 l 200 856 b 246 900 200 881 221 900 z m 215 979 l 240 1013 l 43 1179 l 6 1132 z "},"Í":{"ha":315,"x_min":0,"x_max":0,"o":"m 246 906 l 0 906 l 0 900 b 46 856 25 900 46 881 l 46 -228 b 0 -272 46 -253 25 -272 l 0 -278 l 246 -278 l 246 -272 b 200 -228 221 -272 200 -253 l 200 856 b 246 900 200 881 221 900 z m 31 979 l 240 1132 l 203 1179 l 6 1013 z "},"Î":{"ha":315,"x_min":0,"x_max":0,"o":"m 246 906 l 0 906 l 0 900 b 46 856 25 900 46 881 l 46 -228 b 0 -272 46 -253 25 -272 l 0 -278 l 246 -278 l 246 -272 b 200 -228 221 -272 200 -253 l 200 856 b 246 900 200 881 221 900 z m 124 1188 l -11 1003 l 18 972 l 124 1086 l 229 972 l 258 1003 z "},"Ï":{"ha":315,"x_min":0,"x_max":0,"o":"m 246 906 l 0 906 l 0 900 b 46 856 25 900 46 881 l 46 -228 b 0 -272 46 -253 25 -272 l 0 -278 l 246 -278 l 246 -272 b 200 -228 221 -272 200 -253 l 200 856 b 246 900 200 881 221 900 z m 29 1126 b -46 1053 -12 1126 -46 1093 b 29 978 -46 1011 -12 978 b 103 1053 69 978 103 1011 b 29 1126 103 1093 69 1126 z m 219 1126 b 144 1053 178 1126 144 1093 b 219 978 144 1011 178 978 b 293 1053 260 978 293 1011 b 219 1126 293 1093 260 1126 z "},"Ð":{"ha":939,"x_min":0,"x_max":0,"o":"m 200 288 l 475 288 l 475 339 l 200 339 l 200 856 b 253 861 206 860 224 861 l 271 861 b 408 817 311 860 357 844 b 551 667 460 789 508 739 b 636 351 594 593 622 489 b 643 196 640 294 643 242 b 631 32 643 131 639 76 b 569 -142 617 -47 596 -104 b 488 -211 543 -179 515 -201 b 424 -226 460 -221 439 -226 b 357 -215 401 -226 379 -222 b 293 -193 333 -208 313 -201 b 244 -176 271 -185 254 -179 b 222 -172 233 -174 226 -172 b 200 -181 213 -172 206 -175 z m 44 339 l -232 339 l -232 288 l 44 288 l 44 -228 b 32 -258 44 -240 40 -250 b 0 -272 22 -268 13 -272 l 0 -278 l 244 -278 l 244 -272 b 213 -260 232 -272 222 -268 b 200 -229 204 -251 200 -242 b 218 -204 200 -212 206 -204 l 222 -204 b 282 -228 238 -207 257 -215 b 364 -261 306 -239 333 -250 b 460 -278 393 -272 425 -278 b 539 -268 479 -278 506 -275 b 643 -226 572 -262 607 -249 b 739 -126 678 -206 710 -172 b 794 28 767 -81 785 -29 b 808 185 804 86 808 138 b 799 351 808 235 806 290 b 656 736 775 529 726 657 b 419 879 585 814 506 861 b 178 904 335 896 254 904 l 144 904 b 104 906 131 906 117 906 l 0 906 l 0 900 b 32 888 13 900 22 896 b 44 856 40 878 44 868 z "},"Ñ":{"ha":817,"x_min":0,"x_max":0,"o":"m 606 906 l 606 900 b 638 886 618 900 629 894 b 651 856 646 879 651 867 l 651 -31 b 628 -121 651 -85 644 -121 b 158 906 560 -121 169 906 l 0 906 l 0 900 l 4 900 b 32 886 15 899 25 894 b 46 856 40 879 46 867 l 46 -228 b 0 -274 46 -253 25 -274 l 0 -278 l 142 -278 l 142 -274 b 110 -260 129 -274 118 -268 b 97 -228 103 -251 97 -240 l 97 643 b 596 -278 97 643 415 -278 b 703 -57 675 -278 703 -156 l 703 856 b 747 900 703 879 722 900 l 747 906 z m 239 1014 b 278 1044 250 1028 264 1038 b 313 1051 289 1049 301 1051 l 319 1051 b 358 1043 333 1051 347 1049 b 390 1019 369 1039 379 1031 b 411 1001 396 1014 403 1008 b 438 985 418 996 428 989 b 454 979 443 982 449 981 b 472 976 461 978 467 976 b 504 981 483 976 494 978 b 554 1015 525 986 543 1000 b 579 1064 567 1031 574 1047 l 557 1049 l 536 1036 b 496 1025 522 1028 508 1025 l 490 1025 b 478 1026 486 1025 482 1025 b 469 1029 474 1026 472 1028 b 461 1032 467 1031 464 1031 b 429 1061 453 1039 442 1049 b 406 1079 422 1067 414 1074 b 392 1088 401 1082 396 1085 b 376 1094 386 1090 382 1093 b 344 1099 365 1097 354 1099 l 329 1099 b 314 1096 324 1097 318 1097 b 261 1065 293 1092 274 1081 b 239 1014 247 1051 239 1032 z "},"Ò":{"ha":1246,"x_min":0,"x_max":0,"o":"m 671 901 b 649 904 664 903 656 903 b 588 907 639 906 613 907 b 556 906 576 907 565 907 b 500 899 536 904 518 903 b 0 315 217 856 0 610 b 581 -281 0 18 243 -281 b 1176 315 969 -281 1176 43 b 671 901 1176 615 960 863 z m 458 -200 b 171 315 292 -129 171 74 b 550 853 171 597 338 831 l 565 853 b 625 843 579 853 603 851 b 671 775 654 828 667 800 b 675 733 674 764 675 739 b 428 82 675 507 443 315 b 426 39 426 68 426 53 b 483 -207 426 -40 440 -118 b 458 -200 471 -204 458 -200 z m 625 -222 b 613 -224 621 -222 617 -224 b 596 -221 607 -224 601 -222 l 594 -221 b 469 -43 524 -208 483 -122 b 465 14 469 -42 465 -4 b 763 663 465 308 763 403 b 714 824 763 703 750 771 b 711 828 713 825 711 826 b 733 819 724 824 732 819 b 763 803 747 813 749 811 b 1000 315 903 717 1000 531 b 625 -222 1000 35 836 -196 z m 674 972 l 700 1006 l 501 1172 l 464 1125 z "},"Ó":{"ha":1246,"x_min":0,"x_max":0,"o":"m 671 901 b 649 904 664 903 656 903 b 588 907 639 906 613 907 b 556 906 576 907 565 907 b 500 899 536 904 518 903 b 0 315 217 856 0 610 b 581 -281 0 18 243 -281 b 1176 315 969 -281 1176 43 b 671 901 1176 615 960 863 z m 458 -200 b 171 315 292 -129 171 74 b 550 853 171 597 338 831 l 565 853 b 625 843 579 853 603 851 b 671 775 654 828 667 800 b 675 733 674 764 675 739 b 428 82 675 507 443 315 b 426 39 426 68 426 53 b 483 -207 426 -40 440 -118 b 458 -200 471 -204 458 -200 z m 625 -222 b 613 -224 621 -222 617 -224 b 596 -221 607 -224 601 -222 l 594 -221 b 469 -43 524 -208 483 -122 b 465 14 469 -42 465 -4 b 763 663 465 308 763 403 b 714 824 763 703 750 771 b 711 828 713 825 711 826 b 733 819 724 824 732 819 b 763 803 747 813 749 811 b 1000 315 903 717 1000 531 b 625 -222 1000 35 836 -196 z m 515 967 l 726 1119 l 688 1167 l 490 1000 z "},"Ô":{"ha":1246,"x_min":0,"x_max":0,"o":"m 671 901 b 649 904 664 903 656 903 b 588 907 639 906 613 907 b 556 906 576 907 565 907 b 500 899 536 904 518 903 b 0 315 217 856 0 610 b 581 -281 0 18 243 -281 b 1176 315 969 -281 1176 43 b 671 901 1176 615 960 863 z m 458 -200 b 171 315 292 -129 171 74 b 550 853 171 597 338 831 l 565 853 b 625 843 579 853 603 851 b 671 775 654 828 667 800 b 675 733 674 764 675 739 b 428 82 675 507 443 315 b 426 39 426 68 426 53 b 483 -207 426 -40 440 -118 b 458 -200 471 -204 458 -200 z m 625 -222 b 613 -224 621 -222 617 -224 b 596 -221 607 -224 601 -222 l 594 -221 b 469 -43 524 -208 483 -122 b 465 14 469 -42 465 -4 b 763 663 465 308 763 403 b 714 824 763 703 750 771 b 711 828 713 825 711 826 b 733 819 724 824 732 819 b 763 803 747 813 749 811 b 1000 315 903 717 1000 531 b 625 -222 1000 35 836 -196 z m 603 1178 l 468 993 l 497 963 l 603 1076 l 708 963 l 738 993 z "},"Õ":{"ha":1246,"x_min":0,"x_max":0,"o":"m 671 901 b 649 904 664 903 656 903 b 588 907 639 906 613 907 b 556 906 576 907 565 907 b 500 899 536 904 518 903 b 0 315 217 856 0 610 b 581 -281 0 18 243 -281 b 1176 315 969 -281 1176 43 b 671 901 1176 615 960 863 z m 458 -200 b 171 315 292 -129 171 74 b 550 853 171 597 338 831 l 565 853 b 625 843 579 853 603 851 b 671 775 654 828 667 800 b 675 733 674 764 675 739 b 428 82 675 507 443 315 b 426 39 426 68 426 53 b 483 -207 426 -40 440 -118 b 458 -200 471 -204 458 -200 z m 625 -222 b 613 -224 621 -222 617 -224 b 596 -221 607 -224 601 -222 l 594 -221 b 469 -43 524 -208 483 -122 b 465 14 469 -42 465 -4 b 763 663 465 308 763 403 b 714 824 763 703 750 771 b 711 828 713 825 711 826 b 733 819 724 824 732 819 b 763 803 747 813 749 811 b 1000 315 903 717 1000 531 b 625 -222 1000 35 836 -196 z m 446 1021 b 485 1051 457 1035 471 1044 b 519 1058 496 1056 508 1058 l 526 1058 b 565 1050 540 1058 554 1056 b 597 1026 576 1046 586 1038 b 618 1008 603 1021 610 1015 b 644 992 625 1003 635 996 b 661 986 650 989 656 988 b 679 983 668 985 674 983 b 711 988 690 983 701 985 b 761 1022 732 993 750 1007 b 786 1071 774 1038 781 1054 l 764 1056 l 743 1043 b 703 1032 729 1035 715 1032 l 697 1032 b 685 1033 693 1032 689 1032 b 676 1036 681 1033 679 1035 b 668 1039 674 1038 671 1038 b 636 1068 660 1046 649 1056 b 613 1086 629 1074 621 1081 b 599 1094 608 1089 603 1092 b 583 1101 593 1097 589 1100 b 551 1106 572 1104 561 1106 l 536 1106 b 521 1103 531 1104 525 1104 b 468 1072 500 1099 481 1088 b 446 1021 454 1058 446 1039 z "},"Ö":{"ha":1246,"x_min":0,"x_max":0,"o":"m 671 901 b 649 904 664 903 656 903 b 588 907 639 906 613 907 b 556 906 576 907 565 907 b 500 899 536 904 518 903 b 0 315 217 856 0 610 b 581 -281 0 18 243 -281 b 1176 315 969 -281 1176 43 b 671 901 1176 615 960 863 z m 458 -200 b 171 315 292 -129 171 74 b 550 853 171 597 338 831 l 565 853 b 625 843 579 853 603 851 b 671 775 654 828 667 800 b 675 733 674 764 675 739 b 428 82 675 507 443 315 b 426 39 426 68 426 53 b 483 -207 426 -40 440 -118 b 458 -200 471 -204 458 -200 z m 625 -222 b 613 -224 621 -222 617 -224 b 596 -221 607 -224 601 -222 l 594 -221 b 469 -43 524 -208 483 -122 b 465 14 469 -42 465 -4 b 763 663 465 308 763 403 b 714 824 763 703 750 771 b 711 828 713 825 711 826 b 733 819 724 824 732 819 b 763 803 747 813 749 811 b 1000 315 903 717 1000 531 b 625 -222 1000 35 836 -196 z m 518 1125 b 443 1051 476 1125 443 1092 b 518 976 443 1010 476 976 b 592 1051 558 976 592 1010 b 518 1125 592 1092 558 1125 z m 708 1125 b 633 1051 667 1125 633 1092 b 708 976 633 1010 667 976 b 782 1051 749 976 782 1010 b 708 1125 782 1092 749 1125 z "},"×":{"ha":801,"x_min":0,"x_max":0,"o":"m 0 339 l 0 288 l 340 288 l 340 -53 l 392 -53 l 392 288 l 732 288 l 732 339 l 392 339 l 392 679 l 340 679 l 340 339 z "},"Ø":{"ha":1246,"x_min":0,"x_max":0,"o":"m 1176 315 b 614 904 1176 632 926 890 l 614 1082 l 563 1082 l 563 904 b -1 315 249 890 -1 632 b 563 -272 -1 -1 249 -260 l 563 -450 l 614 -450 l 614 -272 b 1176 315 926 -260 1176 -1 z m 154 313 b 563 851 154 600 335 835 l 563 -226 b 154 313 335 -210 154 26 z m 614 851 b 1021 313 842 835 1021 600 b 614 -226 1021 26 842 -210 z "},"Ù":{"ha":1068,"x_min":0,"x_max":0,"o":"m 954 856 b 999 900 954 879 974 900 l 999 906 l 857 906 l 857 900 b 889 888 869 900 881 894 b 903 856 897 879 903 868 l 903 507 b 779 90 903 235 779 167 b 940 -18 779 53 940 111 b 635 -244 940 -140 797 -242 l 618 -244 b 358 -71 419 -244 358 -179 b 510 657 358 100 510 374 b 463 906 510 739 497 824 l 294 906 b 344 657 299 900 344 825 b 225 65 344 413 225 254 b 607 -285 225 -101 350 -285 b 999 -15 790 -285 999 -196 b 860 168 999 92 860 111 b 861 178 860 171 860 174 b 954 557 871 208 954 290 z m 733 993 l 760 1026 l 561 1193 l 524 1146 z "},"Ú":{"ha":1068,"x_min":0,"x_max":0,"o":"m 954 856 b 999 900 954 879 974 900 l 999 906 l 857 906 l 857 900 b 889 888 869 900 881 894 b 903 856 897 879 903 868 l 903 507 b 779 90 903 235 779 167 b 940 -18 779 53 940 111 b 635 -244 940 -140 797 -242 l 618 -244 b 358 -71 419 -244 358 -179 b 510 657 358 100 510 374 b 463 906 510 739 497 824 l 294 906 b 344 657 299 900 344 825 b 225 65 344 413 225 254 b 607 -285 225 -101 350 -285 b 999 -15 790 -285 999 -196 b 860 168 999 92 860 111 b 861 178 860 171 860 174 b 954 557 871 208 954 290 z m 586 979 l 797 1132 l 758 1179 l 561 1013 z "},"Û":{"ha":1068,"x_min":0,"x_max":0,"o":"m 954 856 b 999 900 954 879 974 900 l 999 906 l 857 906 l 857 900 b 889 888 869 900 881 894 b 903 856 897 879 903 868 l 903 507 b 779 90 903 235 779 167 b 940 -18 779 53 940 111 b 635 -244 940 -140 797 -242 l 618 -244 b 358 -71 419 -244 358 -179 b 510 657 358 100 510 374 b 463 906 510 739 497 824 l 294 906 b 344 657 299 900 344 825 b 225 65 344 413 225 254 b 607 -285 225 -101 350 -285 b 999 -15 790 -285 999 -196 b 860 168 999 92 860 111 b 861 178 860 171 860 174 b 954 557 871 208 954 290 z m 661 1194 l 526 1010 l 556 979 l 661 1093 l 767 979 l 796 1010 z "},"Ü":{"ha":1068,"x_min":0,"x_max":0,"o":"m 954 856 b 999 900 954 879 974 900 l 999 906 l 857 906 l 857 900 b 889 888 869 900 881 894 b 903 856 897 879 903 868 l 903 507 b 779 90 903 235 779 167 b 940 -18 779 53 940 111 b 635 -244 940 -140 797 -242 l 618 -244 b 358 -71 419 -244 358 -179 b 510 657 358 100 510 374 b 463 906 510 739 497 824 l 294 906 b 344 657 299 900 344 825 b 225 65 344 413 225 254 b 607 -285 225 -101 350 -285 b 999 -15 790 -285 999 -196 b 860 168 999 92 860 111 b 861 178 860 171 860 174 b 954 557 871 208 954 290 z m 575 1139 b 500 1065 533 1139 500 1106 b 575 990 500 1024 533 990 b 649 1065 615 990 649 1024 b 575 1139 649 1106 615 1139 z m 765 1139 b 690 1065 724 1139 690 1106 b 765 990 690 1024 724 990 b 839 1065 806 990 839 1024 b 765 1139 839 1106 806 1139 z "},"Ý":{"ha":888,"x_min":0,"x_max":0,"o":"m 676 906 l 676 900 b 703 874 692 900 703 888 b 700 861 703 869 703 865 l 632 726 b 496 626 576 629 531 658 b 460 479 467 600 460 533 b 464 397 460 433 464 397 l 226 869 b 224 879 225 872 224 876 b 244 900 224 890 232 900 l 244 906 l 0 906 l 0 900 b 32 892 11 900 22 897 b 54 867 42 885 49 876 l 331 317 l 331 -228 b 286 -272 331 -253 311 -272 l 286 -278 l 531 -278 l 531 -272 b 499 -260 518 -272 507 -268 b 486 -228 490 -251 486 -240 l 486 326 b 532 535 489 378 486 474 b 669 688 597 622 621 596 l 682 711 l 761 865 b 818 900 772 886 794 900 l 818 906 z m 369 946 l 581 1099 l 542 1146 l 344 979 z "},"Þ":{"ha":772,"x_min":0,"x_max":0,"o":"m 200 771 l 200 856 b 214 888 200 868 204 878 b 246 900 222 896 233 900 l 246 906 l 0 906 l 0 900 b 33 888 13 900 24 896 b 46 856 42 878 46 868 l 46 -364 b 33 -396 46 -376 42 -387 b 0 -410 24 -406 13 -410 l 0 -414 l 246 -414 l 246 -410 b 214 -396 233 -410 222 -406 b 200 -364 204 -387 200 -376 l 200 142 b 274 215 211 168 236 193 b 403 282 311 238 354 260 b 543 354 451 304 497 328 b 657 443 589 381 626 410 b 703 563 688 476 703 517 b 657 690 703 618 688 661 b 538 753 626 719 586 740 b 406 772 488 765 443 771 b 319 772 367 772 339 772 b 207 771 282 772 244 772 z m 200 207 l 200 719 b 201 726 200 722 200 725 b 218 728 204 726 210 728 b 249 726 226 728 236 726 b 338 719 274 725 303 724 b 438 696 371 715 404 707 b 521 647 471 683 499 668 b 554 563 543 626 554 597 b 519 460 554 525 543 490 b 431 375 496 428 465 400 b 325 303 396 349 360 325 b 200 207 265 268 224 236 z "},"ß":{"ha":861,"x_min":0,"x_max":0,"o":"m 46 -228 b 0 -272 46 -253 25 -272 l 0 -278 l 200 -278 l 200 856 b 201 864 200 858 201 861 l 215 864 b 556 700 282 864 556 856 b 282 475 556 583 392 546 b 244 407 258 460 244 433 b 328 325 244 358 285 325 b 379 344 344 325 364 331 b 524 418 426 383 476 418 b 633 158 597 418 633 296 b 453 -226 633 -18 574 -221 l 442 -226 b 282 -185 369 -226 322 -201 l 282 -189 b 472 -278 313 -222 392 -278 b 792 110 664 -278 792 -129 b 544 453 792 286 738 453 b 325 388 425 453 354 388 b 307 425 313 388 307 397 b 703 699 307 554 703 447 b 268 906 703 851 458 894 l 256 906 b 46 694 140 906 46 811 z "},"à":{"ha":782,"x_min":0,"x_max":0,"o":"m 667 296 b 357 621 667 481 568 621 l 354 621 b 50 404 210 621 50 531 b 188 263 50 315 114 263 b 293 299 222 263 258 274 b 183 431 243 314 183 344 b 349 569 183 515 268 569 l 350 569 b 513 400 465 569 513 488 b 0 -93 513 213 0 175 b 214 -278 0 -211 119 -278 b 486 -44 467 -278 408 -44 b 513 -76 503 -44 508 -57 l 513 -147 b 643 -278 513 -219 571 -278 l 713 -278 l 713 -272 b 667 -114 707 -272 667 -268 z m 513 10 b 474 32 506 17 493 32 b 292 -218 347 32 457 -218 b 167 -82 239 -218 167 -190 l 167 -79 b 513 328 167 122 468 215 z m 447 694 l 474 728 l 276 894 l 238 847 z "},"á":{"ha":782,"x_min":0,"x_max":0,"o":"m 667 296 b 357 621 667 481 568 621 l 354 621 b 50 404 210 621 50 531 b 188 263 50 315 114 263 b 293 299 222 263 258 274 b 183 431 243 314 183 344 b 349 569 183 515 268 569 l 350 569 b 513 400 465 569 513 488 b 0 -93 513 213 0 175 b 214 -278 0 -211 119 -278 b 486 -44 467 -278 408 -44 b 513 -76 503 -44 508 -57 l 513 -147 b 643 -278 513 -219 571 -278 l 713 -278 l 713 -272 b 667 -114 707 -272 667 -268 z m 513 10 b 474 32 506 17 493 32 b 292 -218 347 32 457 -218 b 167 -82 239 -218 167 -190 l 167 -79 b 513 328 167 122 468 215 z m 264 694 l 474 847 l 436 894 l 238 728 z "},"â":{"ha":782,"x_min":0,"x_max":0,"o":"m 667 296 b 357 621 667 481 568 621 l 354 621 b 50 404 210 621 50 531 b 188 263 50 315 114 263 b 293 299 222 263 258 274 b 183 431 243 314 183 344 b 349 569 183 515 268 569 l 350 569 b 513 400 465 569 513 488 b 0 -93 513 213 0 175 b 214 -278 0 -211 119 -278 b 486 -44 467 -278 408 -44 b 513 -76 503 -44 508 -57 l 513 -147 b 643 -278 513 -219 571 -278 l 713 -278 l 713 -272 b 667 -114 707 -272 667 -268 z m 513 10 b 474 32 506 17 493 32 b 292 -218 347 32 457 -218 b 167 -82 239 -218 167 -190 l 167 -79 b 513 328 167 122 468 215 z m 356 917 l 221 732 l 250 701 l 356 815 l 461 701 l 490 732 z "},"ã":{"ha":782,"x_min":0,"x_max":0,"o":"m 667 296 b 357 621 667 481 568 621 l 354 621 b 50 404 210 621 50 531 b 188 263 50 315 114 263 b 293 299 222 263 258 274 b 183 431 243 314 183 344 b 349 569 183 515 268 569 l 350 569 b 513 400 465 569 513 488 b 0 -93 513 213 0 175 b 214 -278 0 -211 119 -278 b 486 -44 467 -278 408 -44 b 513 -76 503 -44 508 -57 l 513 -147 b 643 -278 513 -219 571 -278 l 713 -278 l 713 -272 b 667 -114 707 -272 667 -268 z m 513 10 b 474 32 506 17 493 32 b 292 -218 347 32 457 -218 b 167 -82 239 -218 167 -190 l 167 -79 b 513 328 167 122 468 215 z m 186 757 b 225 788 197 771 211 781 b 260 794 236 792 247 794 l 267 794 b 306 786 281 794 294 792 b 338 763 317 782 326 774 b 358 744 343 757 350 751 b 385 728 365 739 375 732 b 401 722 390 725 396 724 b 419 719 408 721 414 719 b 451 724 431 719 442 721 b 501 758 472 729 490 743 b 526 807 514 774 521 790 l 504 792 l 483 779 b 443 768 469 771 456 768 l 438 768 b 425 769 433 768 429 768 b 417 772 421 769 419 771 b 408 775 414 774 411 774 b 376 804 400 782 389 792 b 353 822 369 810 361 817 b 339 831 349 825 343 828 b 324 838 333 833 329 836 b 292 842 313 840 301 842 l 276 842 b 261 839 271 840 265 840 b 208 808 240 835 221 824 b 186 757 194 794 186 775 z "},"ä":{"ha":782,"x_min":0,"x_max":0,"o":"m 667 296 b 357 621 667 481 568 621 l 354 621 b 50 404 210 621 50 531 b 188 263 50 315 114 263 b 293 299 222 263 258 274 b 183 431 243 314 183 344 b 349 569 183 515 268 569 l 350 569 b 513 400 465 569 513 488 b 0 -93 513 213 0 175 b 214 -278 0 -211 119 -278 b 486 -44 467 -278 408 -44 b 513 -76 503 -44 508 -57 l 513 -147 b 643 -278 513 -219 571 -278 l 713 -278 l 713 -272 b 667 -114 707 -272 667 -268 z m 513 10 b 474 32 506 17 493 32 b 292 -218 347 32 457 -218 b 167 -82 239 -218 167 -190 l 167 -79 b 513 328 167 122 468 215 z m 261 856 b 186 782 219 856 186 822 b 261 707 186 740 219 707 b 335 782 301 707 335 740 b 261 856 335 822 301 856 z m 451 856 b 376 782 410 856 376 822 b 451 707 376 740 410 707 b 525 782 492 707 525 740 b 451 856 525 822 492 856 z "},"å":{"ha":782,"x_min":0,"x_max":0,"o":"m 667 296 b 357 621 667 481 568 621 l 354 621 b 50 404 210 621 50 531 b 188 263 50 315 114 263 b 293 299 222 263 258 274 b 183 431 243 314 183 344 b 349 569 183 515 268 569 l 350 569 b 513 400 465 569 513 488 b 0 -93 513 213 0 175 b 214 -278 0 -211 119 -278 b 486 -44 467 -278 408 -44 b 513 -76 503 -44 508 -57 l 513 -147 b 643 -278 513 -219 571 -278 l 713 -278 l 713 -272 b 667 -114 707 -272 667 -268 z m 513 10 b 474 32 506 17 493 32 b 292 -218 347 32 457 -218 b 167 -82 239 -218 167 -190 l 167 -79 b 513 328 167 122 468 215 z m 356 683 b 482 810 425 683 482 740 b 356 936 482 879 425 936 b 229 810 286 936 229 879 b 356 683 229 740 286 683 z m 356 883 b 431 810 397 883 431 850 b 356 735 431 768 397 735 b 282 810 315 735 282 768 b 356 883 282 850 315 883 z "},"æ":{"ha":1307,"x_min":0,"x_max":0,"o":"m 513 10 b 474 32 506 17 493 32 b 292 -218 347 32 457 -218 b 167 -82 239 -218 167 -190 l 167 -79 b 513 328 167 122 468 215 z m 717 172 b 746 372 717 246 726 313 b 829 517 765 432 793 481 b 958 569 865 551 908 569 l 961 569 b 1017 560 975 569 993 567 b 1085 521 1040 553 1063 539 b 1142 439 1107 501 1126 474 b 1165 299 1157 403 1165 356 b 1144 176 1165 244 1158 203 b 1093 122 1129 149 1113 131 b 1042 108 1074 113 1057 108 b 993 128 1021 108 1006 115 b 960 172 981 140 969 156 b 926 218 950 189 939 204 b 875 238 914 231 896 238 b 772 188 838 238 804 221 b 725 72 740 153 725 115 b 717 172 719 104 717 138 z m 667 -124 b 776 -217 697 -160 733 -190 b 1010 -278 843 -257 921 -278 b 1153 -254 1067 -278 1114 -269 b 1242 -206 1192 -239 1221 -222 b 1268 -183 1256 -194 1264 -187 l 1269 -183 l 1271 -182 l 1213 -112 b 1121 -197 1189 -150 1158 -179 b 1017 -226 1083 -217 1049 -226 b 842 -154 951 -226 893 -203 b 736 24 790 -106 754 -47 l 736 25 b 735 49 735 33 735 40 b 763 131 735 79 744 107 b 836 181 786 160 810 176 l 849 181 b 896 171 868 181 883 178 b 935 138 910 163 922 151 b 978 100 947 125 961 113 b 1072 74 1007 82 1039 74 b 1115 78 1086 74 1100 75 b 1250 149 1167 88 1211 111 b 1307 288 1288 186 1307 232 b 1265 463 1307 360 1293 418 b 1167 563 1238 506 1204 539 b 1056 610 1128 586 1090 601 b 982 621 1021 617 996 621 l 976 621 b 758 561 893 621 821 601 b 640 444 711 531 672 492 b 633 463 639 451 636 457 b 532 579 611 511 578 550 b 357 621 486 607 428 621 l 354 621 b 213 593 306 621 258 611 b 96 517 165 575 126 549 b 50 404 65 485 50 447 b 89 303 50 361 63 326 b 156 264 114 278 136 265 b 189 263 176 263 188 263 b 293 299 224 263 258 275 b 242 321 275 303 258 311 b 200 361 225 331 211 343 b 183 431 189 379 183 401 b 236 532 183 474 201 507 b 349 569 271 557 308 569 l 350 569 b 444 546 389 569 421 561 b 496 483 468 529 485 508 b 513 400 507 457 513 429 b 481 324 513 371 501 346 b 399 260 460 300 432 279 b 289 201 365 240 329 221 b 153 125 242 178 196 151 b 44 32 110 99 74 67 b 0 -93 15 -3 0 -44 b 35 -193 0 -132 11 -165 b 118 -256 57 -221 85 -242 b 214 -278 150 -271 182 -278 b 339 -250 268 -278 310 -268 b 403 -185 368 -232 389 -211 b 435 -112 417 -160 428 -136 b 456 -64 442 -93 449 -76 b 486 -44 463 -51 472 -44 b 513 -76 503 -44 511 -56 l 513 -147 b 551 -239 513 -183 525 -214 b 643 -278 576 -265 607 -278 l 713 -278 l 713 -272 l 711 -272 b 706 -271 710 -272 707 -272 b 699 -265 703 -269 700 -268 b 690 -254 696 -262 693 -258 b 682 -236 686 -250 683 -243 b 675 -207 679 -229 676 -219 b 669 -167 672 -196 671 -182 b 667 -124 668 -154 667 -140 z "},"ç":{"ha":779,"x_min":0,"x_max":0,"o":"m 411 -276 l 381 -382 b 407 -379 389 -381 397 -379 b 433 -382 417 -379 425 -381 b 464 -394 446 -385 457 -389 b 475 -412 471 -401 475 -407 b 460 -435 475 -421 469 -428 b 413 -446 450 -442 433 -444 b 389 -439 404 -446 396 -443 b 372 -426 381 -435 375 -431 l 347 -486 b 407 -497 365 -493 385 -497 b 500 -475 440 -497 471 -490 b 542 -415 528 -461 542 -442 b 510 -369 542 -394 531 -379 b 453 -356 488 -360 469 -356 b 408 -362 439 -356 424 -358 l 464 -278 b 592 -254 514 -276 557 -269 b 681 -206 631 -239 660 -222 b 707 -183 694 -194 703 -187 l 708 -183 l 710 -182 l 653 -112 b 560 -197 628 -150 597 -179 b 456 -226 522 -217 488 -226 b 242 -110 369 -226 299 -187 b 156 172 185 -32 156 63 b 246 453 156 282 186 375 b 457 569 306 531 375 569 b 519 561 474 569 494 567 b 585 531 543 554 565 544 b 613 475 603 517 613 499 b 596 424 613 454 607 436 b 557 386 583 410 571 397 b 526 360 544 378 535 369 b 514 326 518 350 514 339 b 540 269 514 303 522 283 b 603 249 557 256 579 249 l 613 249 b 610 276 610 258 610 268 b 617 310 610 290 611 301 b 650 350 625 325 636 338 b 683 389 663 361 674 374 b 699 447 693 403 699 422 b 671 522 699 471 689 496 b 585 592 653 549 624 572 b 433 621 544 611 494 621 b 124 500 310 621 206 581 b 0 172 42 418 0 310 b 61 -69 0 78 21 -3 b 224 -224 101 -137 156 -189 b 411 -276 281 -254 343 -272 z "},"è":{"ha":815,"x_min":0,"x_max":0,"o":"m 456 -226 b 175 24 324 -226 208 -115 l 175 25 b 172 47 174 33 172 40 b 275 181 172 117 232 174 b 290 182 281 181 285 182 b 417 100 351 182 367 133 b 513 74 444 82 478 74 b 746 288 622 74 746 161 b 421 621 746 578 476 621 l 414 621 b 0 172 167 621 0 421 b 449 -278 0 -76 182 -278 b 708 -182 618 -278 708 -182 b 651 -112 708 -182 688 -158 b 456 -226 604 -189 519 -226 z m 154 172 b 397 569 154 392 246 569 l 400 569 b 604 299 457 569 604 528 b 481 108 604 135 524 108 b 314 238 397 108 400 238 b 164 72 240 238 164 158 b 154 172 158 104 154 138 z m 464 674 l 490 707 l 292 874 l 254 826 z "},"é":{"ha":815,"x_min":0,"x_max":0,"o":"m 456 -226 b 175 24 324 -226 208 -115 l 175 25 b 172 47 174 33 172 40 b 275 181 172 117 232 174 b 290 182 281 181 285 182 b 417 100 351 182 367 133 b 513 74 444 82 478 74 b 746 288 622 74 746 161 b 421 621 746 578 476 621 l 414 621 b 0 172 167 621 0 421 b 449 -278 0 -76 182 -278 b 708 -182 618 -278 708 -182 b 651 -112 708 -182 688 -158 b 456 -226 604 -189 519 -226 z m 154 172 b 397 569 154 392 246 569 l 400 569 b 604 299 457 569 604 528 b 481 108 604 135 524 108 b 314 238 397 108 400 238 b 164 72 240 238 164 158 b 154 172 158 104 154 138 z m 281 667 l 490 819 l 453 867 l 254 700 z "},"ê":{"ha":815,"x_min":0,"x_max":0,"o":"m 456 -226 b 175 24 324 -226 208 -115 l 175 25 b 172 47 174 33 172 40 b 275 181 172 117 232 174 b 290 182 281 181 285 182 b 417 100 351 182 367 133 b 513 74 444 82 478 74 b 746 288 622 74 746 161 b 421 621 746 578 476 621 l 414 621 b 0 172 167 621 0 421 b 449 -278 0 -76 182 -278 b 708 -182 618 -278 708 -182 b 651 -112 708 -182 688 -158 b 456 -226 604 -189 519 -226 z m 154 172 b 397 569 154 392 246 569 l 400 569 b 604 299 457 569 604 528 b 481 108 604 135 524 108 b 314 238 397 108 400 238 b 164 72 240 238 164 158 b 154 172 158 104 154 138 z m 372 889 l 238 704 l 267 674 l 372 788 l 478 674 l 507 704 z "},"ë":{"ha":815,"x_min":0,"x_max":0,"o":"m 456 -226 b 175 24 324 -226 208 -115 l 175 25 b 172 47 174 33 172 40 b 275 181 172 117 232 174 b 290 182 281 181 285 182 b 417 100 351 182 367 133 b 513 74 444 82 478 74 b 746 288 622 74 746 161 b 421 621 746 578 476 621 l 414 621 b 0 172 167 621 0 421 b 449 -278 0 -76 182 -278 b 708 -182 618 -278 708 -182 b 651 -112 708 -182 688 -158 b 456 -226 604 -189 519 -226 z m 154 172 b 397 569 154 392 246 569 l 400 569 b 604 299 457 569 604 528 b 481 108 604 135 524 108 b 314 238 397 108 400 238 b 164 72 240 238 164 158 b 154 172 158 104 154 138 z m 278 842 b 203 768 236 842 203 808 b 278 693 203 726 236 693 b 351 768 318 693 351 726 b 278 842 351 808 318 842 z m 468 842 b 393 768 426 842 393 808 b 468 693 393 726 426 693 b 542 768 508 693 542 726 b 468 842 542 808 508 842 z "},"ì":{"ha":315,"x_min":0,"x_max":0,"o":"m 214 -258 b 200 -228 206 -251 200 -240 l 200 621 l 0 621 l 0 617 b 32 603 13 617 24 611 b 46 571 40 594 46 583 l 46 -228 b 0 -272 46 -253 25 -272 l 0 -278 l 246 -278 l 246 -272 b 214 -258 233 -272 222 -267 z m 206 694 l 232 728 l 33 894 l -4 847 z "},"í":{"ha":315,"x_min":0,"x_max":0,"o":"m 214 -258 b 200 -228 206 -251 200 -240 l 200 621 l 0 621 l 0 617 b 32 603 13 617 24 611 b 46 571 40 594 46 583 l 46 -228 b 0 -272 46 -253 25 -272 l 0 -278 l 246 -278 l 246 -272 b 214 -258 233 -272 222 -267 z m 3 681 l 214 833 l 175 881 l -22 714 z "},"î":{"ha":315,"x_min":0,"x_max":0,"o":"m 214 -258 b 200 -228 206 -251 200 -240 l 200 621 l 0 621 l 0 617 b 32 603 13 617 24 611 b 46 571 40 594 46 583 l 46 -228 b 0 -272 46 -253 25 -272 l 0 -278 l 246 -278 l 246 -272 b 214 -258 233 -272 222 -267 z m 111 903 l -24 718 l 6 688 l 111 801 l 217 688 l 246 718 z "},"ï":{"ha":315,"x_min":0,"x_max":0,"o":"m 214 -258 b 200 -228 206 -251 200 -240 l 200 621 l 0 621 l 0 617 b 32 603 13 617 24 611 b 46 571 40 594 46 583 l 46 -228 b 0 -272 46 -253 25 -272 l 0 -278 l 246 -278 l 246 -272 b 214 -258 233 -272 222 -267 z m 17 842 b -58 768 -25 842 -58 808 b 17 693 -58 726 -25 693 b 90 768 57 693 90 726 b 17 842 90 808 57 842 z m 207 842 b 132 768 165 842 132 808 b 207 693 132 726 165 693 b 281 768 247 693 281 726 b 207 842 281 808 247 842 z "},"ð":{"ha":811,"x_min":0,"x_max":0,"o":"m 528 -25 b 511 -24 522 -24 517 -24 b 401 -226 421 -24 467 -206 l 400 -226 b 385 -229 396 -228 390 -228 b 372 -231 381 -229 376 -231 b 164 149 276 -231 164 -65 b 163 172 164 157 163 165 b 378 569 163 392 247 569 b 528 413 435 569 515 524 z m 683 718 l 911 718 l 911 769 l 683 769 l 683 906 l 482 906 l 482 900 b 515 888 494 900 506 896 b 528 854 524 878 528 867 l 528 769 l 263 769 l 263 718 l 528 718 l 528 500 b 439 592 504 542 474 572 b 325 621 403 611 365 621 b 94 496 235 621 157 579 b 0 172 32 413 0 304 b 42 -53 0 90 14 15 b 156 -217 69 -121 107 -176 b 318 -278 203 -257 257 -278 b 408 -256 357 -278 388 -271 b 454 -204 429 -242 444 -225 b 475 -149 464 -185 471 -167 b 486 -122 478 -139 482 -131 b 500 -110 490 -115 496 -111 l 506 -110 b 528 -124 513 -110 519 -114 l 528 -278 l 742 -278 l 742 -271 l 740 -271 l 739 -269 b 736 -268 738 -269 738 -269 b 721 -261 732 -267 726 -265 b 704 -243 715 -257 710 -251 b 690 -210 699 -235 694 -224 b 683 -158 686 -197 683 -179 z "},"ñ":{"ha":763,"x_min":0,"x_max":0,"o":"m 650 308 b 454 621 650 542 568 621 b 239 493 332 621 290 493 b 200 517 226 493 214 500 l 200 621 l 0 621 l 0 619 b 46 574 40 619 46 585 l 46 -228 b 0 -272 46 -253 25 -272 l 0 -278 l 246 -278 l 246 -272 b 214 -260 233 -272 222 -268 b 200 -178 206 -251 200 -240 l 200 422 b 228 411 210 415 219 411 b 403 569 283 411 296 569 b 494 339 490 569 494 396 l 494 -226 b 449 -272 494 -251 474 -272 l 449 -278 l 693 -278 l 693 -272 b 650 -228 669 -272 650 -253 z m 181 756 b 219 786 192 769 206 779 b 254 793 231 790 243 793 l 261 793 b 300 785 275 793 289 790 b 332 761 311 781 321 772 b 353 743 338 756 344 750 b 379 726 360 738 369 731 b 396 721 385 724 390 722 b 414 718 403 719 408 718 b 446 722 425 718 436 719 b 496 757 467 728 485 742 b 521 806 508 772 515 789 l 499 790 l 478 778 b 438 767 464 769 450 767 l 432 767 b 419 768 428 767 424 767 b 411 771 415 768 414 769 b 403 774 408 772 406 772 b 371 803 394 781 383 790 b 347 821 364 808 356 815 b 333 829 343 824 338 826 b 318 836 328 832 324 835 b 286 840 307 839 296 840 l 271 840 b 256 838 265 839 260 839 b 203 807 235 833 215 822 b 181 756 189 793 181 774 z "},"ò":{"ha":968,"x_min":0,"x_max":0,"o":"m 449 621 b 0 172 201 621 0 419 b 449 -278 0 -76 201 -278 b 899 172 697 -278 899 -76 b 449 621 899 419 697 621 z m 156 172 b 433 569 156 385 278 558 l 435 569 b 485 549 440 569 469 568 b 499 497 494 535 499 517 b 493 425 499 474 496 450 b 442 246 483 365 464 304 b 356 -47 403 136 356 33 b 435 -225 356 -144 404 -200 b 156 172 279 -215 156 -42 z m 535 -208 b 517 -211 529 -210 524 -211 b 453 -187 497 -211 474 -203 b 392 -68 419 -162 392 -119 b 446 114 392 -12 415 50 b 506 238 464 154 486 196 b 569 447 540 310 569 382 b 519 558 569 506 546 540 b 743 172 649 515 743 358 b 535 -208 743 -7 656 -158 z m 525 688 l 551 721 l 353 888 l 315 840 z "},"ó":{"ha":968,"x_min":0,"x_max":0,"o":"m 449 621 b 0 172 201 621 0 419 b 449 -278 0 -76 201 -278 b 899 172 697 -278 899 -76 b 449 621 899 419 697 621 z m 156 172 b 433 569 156 385 278 558 l 435 569 b 485 549 440 569 469 568 b 499 497 494 535 499 517 b 493 425 499 474 496 450 b 442 246 483 365 464 304 b 356 -47 403 136 356 33 b 435 -225 356 -144 404 -200 b 156 172 279 -215 156 -42 z m 535 -208 b 517 -211 529 -210 524 -211 b 453 -187 497 -211 474 -203 b 392 -68 419 -162 392 -119 b 446 114 392 -12 415 50 b 506 238 464 154 486 196 b 569 447 540 310 569 382 b 519 558 569 506 546 540 b 743 172 649 515 743 358 b 535 -208 743 -7 656 -158 z m 361 682 l 572 835 l 533 882 l 336 715 z "},"ô":{"ha":968,"x_min":0,"x_max":0,"o":"m 449 621 b 0 172 201 621 0 419 b 449 -278 0 -76 201 -278 b 899 172 697 -278 899 -76 b 449 621 899 419 697 621 z m 156 172 b 433 569 156 385 278 558 l 435 569 b 485 549 440 569 469 568 b 499 497 494 535 499 517 b 493 425 499 474 496 450 b 442 246 483 365 464 304 b 356 -47 403 136 356 33 b 435 -225 356 -144 404 -200 b 156 172 279 -215 156 -42 z m 535 -208 b 517 -211 529 -210 524 -211 b 453 -187 497 -211 474 -203 b 392 -68 419 -162 392 -119 b 446 114 392 -12 415 50 b 506 238 464 154 486 196 b 569 447 540 310 569 382 b 519 558 569 506 546 540 b 743 172 649 515 743 358 b 535 -208 743 -7 656 -158 z m 449 890 l 314 706 l 343 675 l 449 789 l 554 675 l 583 706 z "},"õ":{"ha":968,"x_min":0,"x_max":0,"o":"m 449 621 b 0 172 201 621 0 419 b 449 -278 0 -76 201 -278 b 899 172 697 -278 899 -76 b 449 621 899 419 697 621 z m 156 172 b 433 569 156 385 278 558 l 435 569 b 485 549 440 569 469 568 b 499 497 494 535 499 517 b 493 425 499 474 496 450 b 442 246 483 365 464 304 b 356 -47 403 136 356 33 b 435 -225 356 -144 404 -200 b 156 172 279 -215 156 -42 z m 535 -208 b 517 -211 529 -210 524 -211 b 453 -187 497 -211 474 -203 b 392 -68 419 -162 392 -119 b 446 114 392 -12 415 50 b 506 238 464 154 486 196 b 569 447 540 310 569 382 b 519 558 569 506 546 540 b 743 172 649 515 743 358 b 535 -208 743 -7 656 -158 z m 271 742 b 310 772 282 756 296 765 b 344 779 321 776 333 779 l 351 779 b 390 771 365 779 379 776 b 422 747 401 767 411 758 b 443 729 428 742 435 736 b 469 713 450 724 460 717 b 486 707 475 710 481 708 b 504 704 493 706 499 704 b 536 708 515 704 526 706 b 586 743 557 714 575 728 b 611 792 599 758 606 775 l 589 776 l 568 764 b 528 753 554 756 540 753 l 522 753 b 510 754 518 753 514 753 b 501 757 506 754 504 756 b 493 760 499 758 496 758 b 461 789 485 767 474 776 b 438 807 454 794 446 801 b 424 815 433 810 428 813 b 408 822 418 818 414 821 b 376 826 397 825 386 826 l 361 826 b 346 824 356 825 350 825 b 293 793 325 819 306 808 b 271 742 279 779 271 760 z "},"ö":{"ha":968,"x_min":0,"x_max":0,"o":"m 449 621 b 0 172 201 621 0 419 b 449 -278 0 -76 201 -278 b 899 172 697 -278 899 -76 b 449 621 899 419 697 621 z m 156 172 b 433 569 156 385 278 558 l 435 569 b 485 549 440 569 469 568 b 499 497 494 535 499 517 b 493 425 499 474 496 450 b 442 246 483 365 464 304 b 356 -47 403 136 356 33 b 435 -225 356 -144 404 -200 b 156 172 279 -215 156 -42 z m 535 -208 b 517 -211 529 -210 524 -211 b 453 -187 497 -211 474 -203 b 392 -68 419 -162 392 -119 b 446 114 392 -12 415 50 b 506 238 464 154 486 196 b 569 447 540 310 569 382 b 519 558 569 506 546 540 b 743 172 649 515 743 358 b 535 -208 743 -7 656 -158 z m 363 854 b 288 781 321 854 288 821 b 363 706 288 739 321 706 b 436 781 403 706 436 739 b 363 854 436 821 403 854 z m 553 854 b 478 781 511 854 478 821 b 553 706 478 739 511 706 b 626 781 593 706 626 739 b 553 854 626 821 593 854 z "},"÷":{"ha":718,"x_min":0,"x_max":0,"o":"m 0 288 l 649 288 l 649 339 l 0 339 z m 324 108 b 246 31 281 108 246 74 b 324 -47 246 -12 281 -47 b 401 31 367 -47 401 -12 b 324 108 401 74 367 108 z m 324 518 b 401 596 367 518 401 553 b 324 674 401 639 367 674 b 246 596 281 674 246 639 b 324 518 246 553 281 518 z "},"ø":{"ha":968,"x_min":0,"x_max":0,"o":"m 494 435 l 444 253 b 442 246 443 250 443 249 b 419 188 435 225 426 206 b 375 63 403 143 388 101 b 356 -47 363 22 356 -14 l 356 -68 l 324 -187 b 235 -100 290 -167 261 -137 b 156 172 182 -25 156 65 b 235 444 156 278 182 368 b 433 569 288 519 354 561 l 439 569 b 453 567 443 568 447 568 b 469 561 458 565 464 564 b 485 549 475 558 481 554 b 499 497 494 533 499 517 b 494 435 499 478 497 457 z m 528 556 l 526 553 b 519 558 525 554 522 557 z m 399 -112 l 481 188 l 506 238 b 551 346 524 274 539 310 b 569 447 564 381 569 415 b 564 492 569 464 568 479 l 575 532 b 681 418 615 506 651 467 b 743 172 722 347 743 265 b 686 -65 743 82 724 3 b 535 -208 647 -135 597 -182 b 518 -210 529 -210 524 -210 b 453 -187 497 -210 476 -203 b 410 -137 435 -175 421 -158 b 399 -112 406 -129 401 -121 z m 371 -211 l 383 -165 b 435 -225 401 -193 418 -214 b 371 -211 413 -224 392 -218 z m 356 -269 b 449 -278 385 -275 417 -278 b 767 -146 572 -278 679 -233 b 899 172 854 -58 899 49 b 767 490 899 296 854 403 b 593 599 715 540 657 578 l 639 764 l 585 764 l 543 611 b 449 621 513 618 482 621 b 132 490 325 621 219 578 b 0 172 44 403 0 296 b 132 -146 0 49 44 -58 b 306 -256 183 -197 240 -235 l 260 -419 l 314 -419 z "},"ù":{"ha":763,"x_min":0,"x_max":0,"o":"m 649 621 l 449 621 l 449 615 b 479 603 461 615 472 611 b 493 521 488 594 493 583 l 493 -79 b 465 -68 483 -72 474 -68 b 290 -226 410 -68 397 -226 b 199 4 203 -226 199 -53 l 199 621 l 0 621 l 0 615 b 43 572 24 615 43 596 l 43 35 b 240 -278 43 -199 125 -278 b 456 -150 361 -278 404 -150 b 493 -174 467 -150 479 -157 l 493 -278 l 693 -278 l 693 -276 b 649 -231 653 -276 649 -242 z m 439 688 l 464 721 l 267 888 l 228 840 z "},"ú":{"ha":763,"x_min":0,"x_max":0,"o":"m 649 621 l 449 621 l 449 615 b 479 603 461 615 472 611 b 493 521 488 594 493 583 l 493 -79 b 465 -68 483 -72 474 -68 b 290 -226 410 -68 397 -226 b 199 4 203 -226 199 -53 l 199 621 l 0 621 l 0 615 b 43 572 24 615 43 596 l 43 35 b 240 -278 43 -199 125 -278 b 456 -150 361 -278 404 -150 b 493 -174 467 -150 479 -157 l 493 -278 l 693 -278 l 693 -276 b 649 -231 653 -276 649 -242 z m 254 692 l 464 844 l 426 892 l 228 725 z "},"û":{"ha":763,"x_min":0,"x_max":0,"o":"m 649 621 l 449 621 l 449 615 b 479 603 461 615 472 611 b 493 521 488 594 493 583 l 493 -79 b 465 -68 483 -72 474 -68 b 290 -226 410 -68 397 -226 b 199 4 203 -226 199 -53 l 199 621 l 0 621 l 0 615 b 43 572 24 615 43 596 l 43 35 b 240 -278 43 -199 125 -278 b 456 -150 361 -278 404 -150 b 493 -174 467 -150 479 -157 l 493 -278 l 693 -278 l 693 -276 b 649 -231 653 -276 649 -242 z m 346 917 l 213 732 l 240 701 l 346 815 l 451 701 l 481 732 z "},"ü":{"ha":763,"x_min":0,"x_max":0,"o":"m 649 621 l 449 621 l 449 615 b 479 603 461 615 472 611 b 493 521 488 594 493 583 l 493 -79 b 465 -68 483 -72 474 -68 b 290 -226 410 -68 397 -226 b 199 4 203 -226 199 -53 l 199 621 l 0 621 l 0 615 b 43 572 24 615 43 596 l 43 35 b 240 -278 43 -199 125 -278 b 456 -150 361 -278 404 -150 b 493 -174 467 -150 479 -157 l 493 -278 l 693 -278 l 693 -276 b 649 -231 653 -276 649 -242 z m 251 842 b 176 768 210 842 176 808 b 251 693 176 726 210 693 b 325 768 292 693 325 726 b 251 842 325 808 292 842 z m 442 842 b 367 768 400 842 367 808 b 442 693 367 726 400 693 b 515 768 482 693 515 726 b 442 842 515 808 482 842 z "},"ý":{"ha":765,"x_min":0,"x_max":0,"o":"m 554 621 l 554 615 b 582 588 571 615 582 603 b 579 576 582 585 581 581 l 390 163 l 221 581 b 219 590 219 583 219 588 b 244 615 219 604 229 615 l 244 621 l 0 621 l 0 615 b 54 579 24 615 46 601 l 301 -31 l 303 -32 l 303 -42 b 483 -390 303 -206 483 -264 b 468 -408 483 -404 478 -408 b 201 -310 428 -408 308 -310 b 139 -324 181 -310 158 -314 b 79 -421 94 -347 79 -386 b 100 -494 79 -451 90 -479 b 228 -439 133 -453 178 -439 b 486 -485 317 -439 419 -485 b 560 -424 525 -485 553 -469 b 561 -407 561 -418 561 -412 b 378 -71 561 -293 378 -256 b 431 128 378 -18 393 46 l 638 578 b 696 615 647 601 671 615 l 696 621 z m 294 708 l 506 861 l 467 908 l 269 742 z "},"þ":{"ha":799,"x_min":0,"x_max":0,"o":"m 565 149 b 357 -231 565 -65 453 -231 b 344 -229 353 -231 349 -231 b 328 -226 339 -229 333 -228 b 218 -25 263 -206 308 -25 b 200 -26 213 -25 207 -25 l 200 413 b 351 569 214 522 294 569 b 565 172 481 569 565 392 z m 200 499 l 200 781 l 0 781 l 0 775 b 32 763 13 775 24 771 b 46 731 42 753 46 743 l 46 -511 b 33 -543 46 -524 42 -535 b 0 -557 24 -553 13 -557 l 0 -562 l 244 -562 l 244 -557 b 214 -543 232 -557 222 -553 b 200 -512 204 -535 200 -525 l 200 -139 b 217 -111 200 -126 206 -118 b 225 -110 219 -110 222 -110 b 240 -118 231 -110 236 -112 b 254 -149 246 -128 250 -137 b 276 -206 258 -167 267 -186 b 322 -256 286 -225 301 -242 b 411 -278 343 -271 372 -278 b 575 -217 472 -278 526 -257 b 688 -54 622 -176 660 -122 b 729 172 715 14 729 89 b 635 496 729 304 697 413 b 403 621 572 579 494 621 b 292 592 364 621 326 611 b 200 499 256 572 225 542 z "},"ÿ":{"ha":765,"x_min":0,"x_max":0,"o":"m 554 621 l 554 615 b 582 588 571 615 582 603 b 579 576 582 585 581 581 l 390 163 l 221 581 b 219 590 219 583 219 588 b 244 615 219 604 229 615 l 244 621 l 0 621 l 0 615 b 54 579 24 615 46 601 l 301 -31 l 303 -32 l 303 -42 b 483 -390 303 -206 483 -264 b 468 -408 483 -404 478 -408 b 201 -310 428 -408 308 -310 b 139 -324 181 -310 158 -314 b 79 -421 94 -347 79 -386 b 100 -494 79 -451 90 -479 b 228 -439 133 -453 178 -439 b 486 -485 317 -439 419 -485 b 560 -424 525 -485 553 -469 b 561 -407 561 -418 561 -412 b 378 -71 561 -293 378 -256 b 431 128 378 -18 393 46 l 638 578 b 696 615 647 601 671 615 l 696 621 z m 293 817 b 218 743 251 817 218 783 b 293 668 218 701 251 668 b 367 743 333 668 367 701 b 293 817 367 783 333 817 z m 483 817 b 408 743 442 817 408 783 b 483 668 408 701 442 668 b 557 743 524 668 557 701 b 483 817 557 783 524 817 z "},"ı":{"ha":315,"x_min":0,"x_max":0,"o":"m 214 -258 b 200 -228 206 -251 200 -240 l 200 621 l 0 621 l 0 617 b 32 603 13 617 24 611 b 46 571 40 594 46 583 l 46 -228 b 0 -272 46 -253 25 -272 l 0 -278 l 246 -278 l 246 -272 b 214 -258 233 -272 222 -267 z "},"̀":{"ha":306,"x_min":0,"x_max":0,"o":"m 210 708 l 236 742 l 38 908 l 0 861 z "},"́":{"ha":306,"x_min":0,"x_max":0,"o":"m 25 708 l 236 861 l 197 908 l 0 742 z "},"̂":{"ha":339,"x_min":0,"x_max":0,"o":"m 135 917 l 0 732 l 29 701 l 135 815 l 240 701 l 269 732 z "},"̃":{"ha":410,"x_min":0,"x_max":0,"o":"m 0 785 b 39 815 11 799 25 808 b 74 822 50 819 63 822 l 81 822 b 119 814 94 822 108 819 b 151 790 131 810 140 801 b 172 772 157 785 164 779 b 199 756 179 767 189 760 b 215 750 204 753 210 751 b 233 747 222 749 228 747 b 265 751 244 747 256 749 b 315 786 286 757 304 771 b 340 835 328 801 335 818 l 318 819 l 297 807 b 257 796 283 799 269 796 l 251 796 b 239 797 247 796 243 796 b 231 800 235 797 233 799 b 222 803 228 801 225 801 b 190 832 214 810 203 819 b 167 850 183 838 175 844 b 153 858 163 853 157 856 b 138 865 147 861 143 864 b 106 869 126 868 115 869 l 90 869 b 75 867 85 868 79 868 b 22 836 54 863 35 851 b 0 785 8 822 0 803 z "},"̄":{"ha":328,"x_min":0,"x_max":0,"o":"m 0 783 l 258 783 l 258 835 l 0 835 z "},"̇":{"ha":218,"x_min":0,"x_max":0,"o":"m 75 883 b 0 810 33 883 0 850 b 75 735 0 768 33 735 b 149 810 115 735 149 768 b 75 883 149 850 115 883 z "},"̈":{"ha":408,"x_min":0,"x_max":0,"o":"m 75 883 b 0 810 33 883 0 850 b 75 735 0 768 33 735 b 149 810 115 735 149 768 b 75 883 149 850 115 883 z m 265 883 b 190 810 224 883 190 850 b 265 735 190 768 224 735 b 339 810 306 735 339 768 b 265 883 339 850 306 883 z "},"̊":{"ha":322,"x_min":0,"x_max":0,"o":"m 126 683 b 253 810 196 683 253 740 b 126 936 253 879 196 936 b 0 810 57 936 0 879 b 126 683 0 740 57 683 z m 126 883 b 200 810 167 883 200 850 b 126 735 200 768 167 735 b 51 810 85 735 51 768 b 126 883 51 850 85 883 z "},"̌":{"ha":339,"x_min":0,"x_max":0,"o":"m 135 701 l 269 886 l 240 917 l 135 801 l 29 917 l 0 886 z "},"̧":{"ha":264,"x_min":0,"x_max":0,"o":"m 194 -311 b 103 -251 194 -279 151 -251 b 61 -258 89 -251 75 -254 l 129 -154 l 69 -154 l 33 -278 b 60 -275 42 -276 50 -275 b 86 -278 69 -275 78 -276 b 128 -308 113 -283 128 -297 b 65 -342 128 -324 107 -340 b 25 -322 50 -342 31 -331 l 0 -382 b 60 -393 18 -389 38 -393 b 194 -311 128 -393 194 -362 z "},"–":{"ha":718,"x_min":0,"x_max":0,"o":"m 0 288 l 649 288 l 649 339 l 0 339 z "},"—":{"ha":1078,"x_min":0,"x_max":0,"o":"m 0 288 l 1008 288 l 1008 339 l 0 339 z "},"‘":{"ha":228,"x_min":0,"x_max":0,"o":"m 3 782 b 81 704 3 739 38 704 b 158 782 124 704 158 739 b 81 860 158 825 124 860 b 60 857 74 860 67 858 l 60 867 b 72 906 60 888 67 900 b 3 785 6 869 3 803 z "},"’":{"ha":226,"x_min":0,"x_max":0,"o":"m 156 828 b 78 906 156 871 121 906 b 0 828 35 906 0 871 b 78 750 0 785 35 750 b 97 753 85 750 92 751 b 99 740 99 749 99 744 b 86 704 99 722 90 708 b 156 826 154 742 156 813 z "},"‚":{"ha":226,"x_min":0,"x_max":0,"o":"m 156 -200 b 78 -122 156 -157 121 -122 b 0 -200 35 -122 0 -157 b 78 -278 0 -243 35 -278 b 97 -275 85 -278 92 -276 b 99 -287 99 -279 99 -283 b 86 -324 99 -306 90 -319 b 156 -201 154 -286 156 -215 z "},"“":{"ha":411,"x_min":0,"x_max":0,"o":"m 186 782 b 264 704 186 739 221 704 b 342 782 307 704 342 739 b 264 860 342 825 307 860 b 243 857 257 860 250 858 l 243 867 b 256 906 243 888 250 900 b 186 785 189 869 186 803 z m 3 782 b 81 704 3 739 38 704 b 158 782 124 704 158 739 b 81 860 158 825 124 860 b 60 857 74 860 67 858 l 60 867 b 72 906 60 888 67 900 b 3 785 6 869 3 803 z "},"”":{"ha":410,"x_min":0,"x_max":0,"o":"m 156 828 b 78 906 156 871 121 906 b 0 828 35 906 0 871 b 78 750 0 785 35 750 b 97 753 85 750 92 751 b 99 740 99 749 99 744 b 86 704 99 722 90 708 b 156 826 154 742 156 813 z m 339 828 b 261 906 339 871 304 906 b 183 828 218 906 183 871 b 261 750 183 785 218 750 b 281 753 268 750 275 751 b 282 740 282 749 282 744 b 269 704 282 722 274 708 b 339 826 338 742 339 813 z "},"„":{"ha":410,"x_min":0,"x_max":0,"o":"m 156 -200 b 78 -122 156 -157 121 -122 b 0 -200 35 -122 0 -157 b 78 -278 0 -243 35 -278 b 97 -275 85 -278 92 -276 b 99 -287 99 -279 99 -283 b 86 -324 99 -306 90 -319 b 156 -201 154 -286 156 -215 z m 339 -200 b 261 -122 339 -157 304 -122 b 183 -200 218 -122 183 -157 b 261 -278 183 -243 218 -278 b 281 -275 268 -278 275 -276 b 282 -287 282 -279 282 -283 b 269 -324 282 -306 274 -319 b 339 -201 338 -286 339 -215 z "},"†":{"ha":643,"x_min":0,"x_max":0,"o":"m 264 -278 l 310 -278 l 310 646 l 574 646 l 574 692 l 310 692 l 310 906 l 264 906 l 264 692 l 0 692 l 0 646 l 264 646 z "},"‡":{"ha":644,"x_min":0,"x_max":0,"o":"m 575 646 l 575 692 l 311 692 l 311 906 l 265 906 l 265 692 l 0 692 l 0 646 l 265 646 l 265 -18 l 0 -18 l 0 -64 l 265 -64 l 265 -278 l 311 -278 l 311 -64 l 575 -64 l 575 -18 l 311 -18 l 311 646 z "},"•":{"ha":694,"x_min":0,"x_max":0,"o":"m 308 453 b 154 607 308 538 240 607 b 0 453 69 607 0 538 b 154 299 0 368 69 299 b 308 453 240 299 308 368 z "},"…":{"ha":1389,"x_min":0,"x_max":0,"o":"m 156 -200 b 78 -122 156 -157 121 -122 b 0 -200 35 -122 0 -157 b 78 -278 0 -243 35 -278 b 156 -200 121 -278 156 -243 z m 618 -200 b 540 -122 618 -157 583 -122 b 463 -200 497 -122 463 -157 b 540 -278 463 -243 497 -278 b 618 -200 583 -278 618 -243 z m 1081 -200 b 1003 -122 1081 -157 1046 -122 b 925 -200 960 -122 925 -157 b 1003 -278 925 -243 960 -278 b 1081 -200 1046 -278 1081 -243 z "},"‹":{"ha":525,"x_min":0,"x_max":0,"o":"m 456 521 l 429 565 l 0 314 l 429 63 l 456 107 l 101 314 z "},"›":{"ha":525,"x_min":0,"x_max":0,"o":"m 0 521 l 353 314 l 0 107 l 25 63 l 456 314 l 25 565 z "},"⁄":{"ha":447,"x_min":0,"x_max":0,"o":"m 378 906 l 325 906 l 0 -278 l 53 -278 z "},"∕":{"ha":447,"x_min":0,"x_max":0,"o":"m 378 906 l 325 906 l 0 -278 l 53 -278 z "},"₣":{"ha":885,"x_min":0,"x_max":0,"o":"m 650 714 b 733 851 710 779 733 822 b 576 904 733 901 658 904 l 185 904 b 101 890 156 904 124 900 b 74 856 85 882 74 871 b 118 569 74 821 118 836 l 118 324 l 0 324 l 0 272 l 118 272 l 118 -17 b 318 -276 118 -81 144 -260 b 346 -278 328 -278 336 -278 b 518 -150 471 -278 518 -210 b 476 -65 518 -114 503 -81 b 322 -261 460 -131 376 -261 b 274 -133 294 -261 274 -228 l 274 272 l 463 272 l 463 324 l 274 324 l 274 463 b 121 835 274 731 121 769 b 535 867 121 860 463 867 b 644 836 615 867 644 856 b 506 688 644 804 560 749 b 449 563 468 646 449 601 b 613 449 449 497 501 449 l 621 449 b 582 567 607 476 582 517 b 650 714 582 608 599 657 z "},"₤":{"ha":886,"x_min":0,"x_max":0,"o":"m 651 -87 b 583 61 600 -31 583 18 b 621 178 583 111 607 150 l 610 178 b 450 65 501 178 450 129 b 507 -61 450 26 469 -18 b 646 -210 561 -122 646 -178 b 536 -240 646 -229 617 -240 b 122 -207 464 -240 122 -233 b 275 164 122 -143 275 -104 l 275 261 l 464 261 l 464 314 l 275 314 l 275 381 l 464 381 l 464 432 l 275 432 l 275 760 b 324 888 275 854 296 888 b 478 693 378 888 461 757 b 519 778 504 708 519 742 b 347 906 519 838 472 906 b 319 904 338 906 328 904 b 119 643 146 886 119 707 l 119 432 l 0 432 l 0 381 l 119 381 l 119 314 l 0 314 l 0 261 l 119 261 l 119 58 b 74 -228 119 -210 74 -194 b 101 -262 74 -244 85 -256 b 186 -278 124 -272 157 -276 l 576 -278 b 735 -224 660 -278 735 -274 b 651 -87 735 -196 711 -153 z "},"€":{"ha":1097,"x_min":0,"x_max":0,"o":"m 964 -19 b 713 -226 925 -153 828 -226 b 275 222 507 -226 314 -40 l 453 222 l 453 274 l 269 274 b 268 318 268 289 268 303 b 269 351 268 329 268 340 l 453 351 l 453 403 l 274 403 b 701 853 306 660 485 853 b 893 726 764 853 893 828 b 738 481 893 597 738 610 b 843 379 738 424 782 379 b 857 381 847 379 853 381 b 992 669 858 514 992 565 b 654 904 992 831 806 904 b 108 403 383 904 147 710 l 0 403 l 0 351 l 103 351 l 103 274 l 0 274 l 0 222 l 108 222 b 676 -279 149 -82 394 -279 b 1028 -128 788 -279 922 -236 z "},"№":{"ha":1703,"x_min":0,"x_max":0,"o":"m 606 906 l 606 900 b 638 886 618 900 629 894 b 651 856 646 879 651 867 l 651 -31 b 628 -121 651 -85 644 -121 b 158 906 560 -121 169 906 l 0 906 l 0 900 l 4 900 b 32 886 15 899 25 894 b 46 856 40 879 46 867 l 46 -228 b 0 -274 46 -253 25 -274 l 0 -278 l 142 -278 l 142 -274 b 110 -260 129 -274 118 -268 b 97 -228 103 -251 97 -240 l 97 643 b 596 -278 97 643 415 -278 b 703 -57 675 -278 703 -156 l 703 856 b 747 900 703 879 722 900 l 747 906 z m 1253 906 b 804 457 1006 906 804 704 b 1253 7 804 208 1006 7 b 1703 457 1501 7 1703 208 b 1253 906 1703 704 1501 906 z m 960 457 b 1238 854 960 669 1082 843 l 1239 854 b 1289 833 1244 854 1274 853 b 1303 782 1299 819 1303 801 b 1297 710 1303 758 1300 735 b 1246 531 1288 650 1268 589 b 1160 238 1207 421 1160 318 b 1239 60 1160 140 1208 85 b 960 457 1083 69 960 243 z m 1339 76 b 1321 74 1333 75 1328 74 b 1257 97 1301 74 1278 82 b 1196 217 1224 122 1196 165 b 1250 399 1196 272 1219 335 b 1310 522 1268 439 1290 481 b 1374 732 1344 594 1374 667 b 1324 843 1374 790 1350 825 b 1547 457 1453 800 1547 643 b 1339 76 1547 278 1460 126 z m 929 -229 l 1578 -229 l 1578 -178 l 929 -178 z "},"™":{"ha":539,"x_min":0,"x_max":0,"o":"m 469 906 l 431 906 b 413 900 424 906 418 904 b 371 817 392 886 378 858 b 358 692 364 774 360 732 b 356 639 357 671 357 653 b 347 618 354 625 351 618 b 332 643 343 618 338 626 b 317 706 326 660 321 681 b 301 782 311 731 306 756 b 282 875 294 825 288 857 b 268 896 278 885 274 892 b 249 903 261 900 256 901 b 240 904 246 904 243 904 b 229 906 236 906 233 906 b 221 906 225 906 222 906 l 206 906 l 206 904 b 214 900 210 904 213 903 b 218 892 217 899 218 896 l 218 606 b 215 597 218 601 217 599 b 206 594 213 596 210 594 l 206 593 l 243 593 l 243 594 b 235 597 240 594 238 596 b 232 606 233 600 232 603 l 232 888 b 257 783 242 869 250 835 b 282 657 263 738 271 696 b 335 593 293 617 311 596 b 367 629 351 593 363 606 b 374 717 371 653 372 682 b 385 815 375 751 379 783 b 417 888 389 847 400 871 l 417 606 b 414 597 417 601 415 599 b 404 594 411 596 408 594 l 404 593 l 469 593 l 469 594 b 461 597 465 594 463 596 b 457 606 458 600 457 603 l 457 892 b 461 901 457 896 458 899 b 469 904 463 903 465 904 z m 49 906 b 33 904 47 906 42 906 b 11 896 25 903 18 900 b 0 869 4 890 0 882 b 14 850 0 858 4 851 b 43 846 24 847 33 846 b 69 843 53 844 63 844 b 79 829 76 842 79 836 l 79 606 b 68 594 79 599 75 594 l 68 593 l 133 593 l 133 594 b 124 597 129 594 126 596 b 121 606 122 600 121 603 l 121 806 b 110 849 121 826 117 840 b 79 861 101 857 92 861 b 50 858 69 861 60 860 b 25 857 40 857 32 857 l 19 857 b 7 868 11 857 7 860 b 26 878 8 875 14 878 b 94 867 43 878 65 874 b 144 857 118 860 135 857 b 185 871 164 857 178 861 b 196 906 192 881 196 892 b 147 892 181 896 165 892 b 92 900 129 892 110 894 b 49 906 76 904 61 906 z "},"−":{"ha":718,"x_min":0,"x_max":0,"o":"m 0 288 l 649 288 l 649 339 l 0 339 z "},"≈":{"ha":410,"x_min":0,"x_max":0,"o":"m 0 121 b 39 151 11 135 25 144 b 74 158 50 156 63 158 l 81 158 b 119 150 94 158 108 156 b 151 126 131 146 140 138 b 172 108 157 121 164 115 b 199 92 179 103 189 96 b 215 86 204 89 210 88 b 233 83 222 85 228 83 b 265 88 244 83 256 85 b 315 122 286 93 304 107 b 340 171 328 138 335 154 l 318 156 l 297 143 b 257 132 283 135 269 132 l 251 132 b 239 133 247 132 243 132 b 231 136 235 133 233 135 b 222 139 228 138 225 138 b 190 168 214 146 203 156 b 167 186 183 174 175 181 b 153 194 163 189 157 192 b 138 201 147 197 143 200 b 106 206 126 204 115 206 l 90 206 b 75 203 85 204 79 204 b 22 172 54 199 35 188 b 0 121 8 158 0 139 z m 0 244 b 39 275 11 258 25 268 b 74 282 50 279 63 282 l 81 282 b 119 274 94 282 108 279 b 151 250 131 269 140 261 b 172 232 157 244 164 239 b 199 215 179 226 189 219 b 215 210 204 213 210 211 b 233 207 222 208 228 207 b 265 211 244 207 256 208 b 315 246 286 217 304 231 b 340 294 328 261 335 278 l 318 279 l 297 267 b 257 256 283 258 269 256 l 251 256 b 239 257 247 256 243 256 b 231 260 235 257 233 258 b 222 263 228 261 225 261 b 190 292 214 269 203 279 b 167 310 183 297 175 304 b 153 318 163 313 157 315 b 138 325 147 321 143 324 b 106 329 126 328 115 329 l 90 329 b 75 326 85 328 79 328 b 22 296 54 322 35 311 b 0 244 8 282 0 263 z "},"≤":{"ha":546,"x_min":0,"x_max":0,"o":"m 0 -119 l 476 -119 l 476 -68 l 0 -68 z m 465 461 l 440 506 l 10 254 l 440 3 l 465 47 l 113 254 z "},"≥":{"ha":546,"x_min":0,"x_max":0,"o":"m 0 -119 l 476 -119 l 476 -68 l 0 -68 z m 10 47 l 36 3 l 465 254 l 36 506 l 10 461 l 364 254 z "},"ﬁ":{"ha":749,"x_min":0,"x_max":0,"o":"m 94 833 b 108 860 97 851 103 860 b 250 719 132 860 176 753 b 274 715 257 717 265 715 b 363 781 301 715 336 732 b 189 904 264 782 278 904 b 29 736 89 904 29 844 b 90 571 29 661 68 607 l 0 571 l 0 519 l 79 519 l 79 -228 b 35 -272 79 -253 60 -272 l 35 -278 l 279 -278 l 279 -272 b 249 -258 267 -272 256 -267 b 235 -228 240 -251 235 -240 l 235 519 l 343 519 l 343 571 l 238 571 b 93 819 157 638 93 754 b 94 833 93 824 93 829 z m 646 -258 b 632 -228 638 -251 632 -240 l 632 621 l 432 621 l 432 617 b 464 603 444 617 456 611 b 478 571 472 594 478 583 l 478 -228 b 432 -272 478 -253 457 -272 l 432 -278 l 678 -278 l 678 -272 b 646 -258 665 -272 654 -267 z m 644 815 b 554 906 644 865 604 906 b 465 815 506 906 465 865 b 554 726 465 767 506 726 b 644 815 604 726 644 767 z "},"ﬂ":{"ha":749,"x_min":0,"x_max":0,"o":"m 94 833 b 108 860 97 851 103 860 b 250 719 132 860 176 753 b 274 715 257 717 265 715 b 363 781 301 715 336 732 b 189 904 264 782 278 904 b 29 736 89 904 29 844 b 90 571 29 661 68 607 l 0 571 l 0 519 l 79 519 l 79 -228 b 35 -272 79 -253 60 -272 l 35 -278 l 279 -278 l 279 -272 b 249 -258 267 -272 256 -267 b 235 -228 240 -251 235 -240 l 235 519 l 343 519 l 343 571 l 238 571 b 93 819 157 638 93 754 b 94 833 93 824 93 829 z m 678 -278 l 678 -272 b 646 -260 665 -272 654 -268 b 632 -228 638 -251 632 -240 l 632 906 l 432 906 l 432 900 b 464 888 444 900 456 896 b 478 856 472 879 478 868 l 478 -228 b 432 -272 478 -253 457 -272 l 432 -278 z "},"Œ":{"ha":1744,"x_min":0,"x_max":0,"o":"m 458 -200 b 251 -4 374 -162 304 -97 b 171 315 197 89 171 194 b 279 679 171 456 207 578 b 550 853 351 781 442 838 b 563 854 551 853 556 853 b 590 853 569 854 579 854 b 625 843 601 851 613 847 b 657 814 639 836 650 826 b 671 775 664 801 669 788 b 674 751 672 768 672 761 b 675 733 675 742 675 736 b 639 565 675 675 663 619 b 553 403 614 511 585 457 b 471 247 522 351 494 300 b 428 82 447 193 432 139 b 425 33 426 65 425 49 b 483 -207 425 -44 444 -124 b 471 -204 479 -206 475 -206 b 463 -201 467 -203 464 -203 b 460 -200 461 -201 461 -201 z m 625 -222 l 615 -222 b 596 -221 608 -222 601 -222 l 594 -221 b 511 -156 560 -212 532 -190 b 469 -43 490 -121 476 -83 b 468 -31 469 -42 469 -37 b 467 -7 467 -24 467 -17 b 465 14 465 1 465 8 b 489 150 465 65 474 110 b 547 261 504 190 524 226 b 621 360 571 296 594 328 b 690 450 644 389 668 419 b 743 549 711 481 729 514 b 763 663 756 583 763 621 b 753 738 763 683 760 708 b 714 824 746 767 732 796 b 713 825 714 825 714 825 l 711 828 b 733 819 724 824 732 821 b 746 814 738 817 742 815 b 756 808 749 813 751 810 b 763 803 757 807 760 804 b 935 607 833 758 892 693 b 1000 315 978 519 1000 422 b 893 -47 1000 175 964 54 b 625 -222 822 -149 732 -207 z m 1039 -67 b 1047 -81 1042 -72 1044 -76 b 1157 -200 1076 -132 1113 -171 b 1299 -262 1201 -229 1249 -250 b 1436 -281 1349 -275 1394 -281 b 1679 -247 1554 -281 1636 -269 b 1744 -158 1722 -225 1743 -196 b 1722 -37 1744 -122 1738 -82 b 1699 63 1708 6 1700 39 b 1697 104 1697 86 1697 100 b 1742 219 1697 144 1713 183 l 1672 219 b 1611 218 1651 218 1632 218 b 1557 218 1590 218 1572 218 b 1535 119 1542 185 1535 151 b 1540 71 1535 103 1536 88 b 1586 -65 1551 22 1567 -24 b 1615 -142 1601 -100 1611 -126 b 1619 -175 1618 -158 1619 -169 b 1599 -219 1619 -193 1613 -208 b 1478 -242 1579 -235 1539 -242 b 1293 -179 1401 -242 1340 -221 b 1194 -37 1244 -137 1213 -90 b 1168 108 1176 15 1168 64 b 1171 157 1168 125 1169 140 b 1233 310 1178 217 1199 268 b 1378 372 1268 351 1315 372 b 1467 363 1408 372 1438 369 b 1546 339 1496 356 1522 347 b 1639 319 1583 326 1614 319 l 1647 319 b 1690 385 1672 321 1686 342 l 1690 388 b 1633 468 1690 426 1671 454 b 1488 499 1593 482 1544 492 b 1356 524 1442 504 1399 513 b 1249 578 1313 535 1278 553 b 1206 689 1219 601 1206 639 b 1264 832 1206 751 1225 800 b 1418 881 1303 864 1354 881 b 1522 857 1461 881 1496 872 b 1569 804 1547 840 1563 822 b 1579 758 1575 786 1579 771 b 1572 718 1579 744 1576 732 b 1564 667 1567 700 1564 682 b 1586 599 1564 640 1571 618 b 1713 550 1610 567 1651 551 b 1699 597 1703 565 1699 581 l 1699 601 b 1708 656 1700 619 1703 638 b 1719 706 1715 676 1718 693 b 1721 728 1721 718 1721 725 b 1704 800 1721 750 1715 774 b 1613 881 1689 832 1658 860 b 1410 911 1565 901 1497 911 b 1249 889 1358 911 1306 904 b 1106 818 1192 874 1144 850 b 1046 690 1067 786 1047 743 l 1035 704 b 671 901 939 814 818 879 l 649 904 b 608 907 640 906 626 906 b 556 906 590 907 572 907 b 500 899 538 904 518 903 b 142 699 356 874 236 807 b 0 315 47 590 0 463 b 75 31 0 217 25 121 b 281 -193 125 -61 193 -136 b 581 -281 368 -251 468 -281 b 838 -226 678 -281 764 -262 b 1025 -85 911 -190 974 -143 b 1039 -67 1029 -79 1035 -74 z m 1139 531 b 1168 517 1149 525 1158 521 b 1283 482 1203 501 1242 489 b 1404 463 1325 474 1365 467 b 1528 440 1453 456 1494 449 b 1576 399 1560 432 1576 418 b 1551 385 1576 389 1568 385 l 1547 385 b 1467 392 1526 385 1500 388 b 1360 403 1424 399 1389 401 b 1307 404 1331 404 1313 404 b 1174 386 1260 404 1217 399 l 1172 386 b 1139 531 1168 438 1157 485 z "},"œ":{"ha":1561,"x_min":0,"x_max":0,"o":"m 156 172 b 235 444 156 278 182 368 b 433 569 288 519 354 561 l 439 569 b 453 567 443 568 447 568 b 469 561 458 565 464 564 b 485 549 475 558 481 554 b 499 497 494 533 499 517 b 493 425 499 474 497 450 b 442 246 482 365 465 306 b 419 188 435 225 426 206 b 375 63 403 143 388 101 b 356 -47 363 22 356 -14 b 383 -162 356 -96 365 -133 b 435 -225 401 -192 418 -212 b 235 -100 354 -218 288 -176 b 156 172 182 -25 156 65 z m 969 172 b 999 372 969 246 979 313 b 1083 517 1018 432 1046 481 b 1213 569 1119 551 1163 569 l 1215 569 b 1271 560 1229 569 1247 567 b 1339 521 1293 553 1315 539 b 1396 439 1361 501 1381 474 b 1419 299 1411 403 1419 356 b 1399 176 1419 244 1413 203 b 1347 122 1383 149 1367 131 b 1296 108 1328 113 1311 108 b 1247 128 1275 108 1260 115 b 1214 172 1235 140 1224 156 b 1181 218 1204 189 1193 204 b 1129 238 1168 231 1150 238 b 1026 188 1092 238 1058 221 b 979 72 994 153 979 115 b 969 172 972 104 969 138 z m 535 -208 b 518 -210 529 -210 524 -210 b 453 -187 497 -210 476 -203 b 410 -137 435 -175 421 -158 b 392 -68 397 -117 392 -94 b 407 19 392 -40 397 -11 b 446 114 417 50 431 82 b 476 179 456 135 467 157 b 506 238 486 199 496 218 b 551 346 524 274 539 310 b 569 447 564 381 569 415 b 554 518 569 476 564 500 b 519 558 544 536 532 549 b 681 418 585 535 639 489 b 743 172 722 347 743 265 b 686 -65 743 82 724 3 b 535 -208 647 -135 597 -182 z m 856 -22 b 872 -53 860 -32 865 -43 b 1029 -217 910 -121 961 -176 b 1264 -278 1097 -257 1175 -278 b 1407 -254 1321 -278 1368 -269 b 1494 -206 1444 -239 1474 -222 b 1521 -183 1508 -194 1517 -187 l 1522 -183 l 1524 -182 l 1467 -112 b 1375 -197 1442 -150 1411 -179 b 1271 -226 1338 -217 1303 -226 b 1096 -154 1206 -226 1147 -203 b 990 24 1044 -106 1008 -47 l 990 25 b 989 49 989 33 989 40 b 1017 131 989 79 999 107 b 1090 181 1040 160 1064 176 l 1103 181 b 1149 171 1121 181 1136 178 b 1189 138 1164 163 1176 151 b 1232 100 1200 125 1214 113 b 1326 74 1261 82 1293 74 b 1369 78 1340 74 1354 75 b 1503 149 1419 88 1464 111 b 1561 288 1542 186 1561 232 b 1519 463 1561 360 1547 418 b 1419 563 1490 506 1457 539 b 1310 610 1381 586 1344 601 b 1236 621 1275 617 1250 621 l 1229 621 b 1013 561 1147 621 1075 601 b 867 399 950 521 901 467 b 854 371 863 389 858 381 b 767 490 833 414 804 453 b 449 621 679 578 572 621 b 132 490 325 621 219 578 b 0 172 44 403 0 296 b 132 -146 0 49 44 -58 b 449 -278 219 -233 325 -278 b 767 -146 572 -278 679 -233 b 856 -22 804 -108 835 -67 z "},"Š":{"ha":838,"x_min":0,"x_max":0,"o":"m 178 676 b 369 856 178 801 271 856 b 547 707 456 856 547 803 b 533 596 547 671 533 631 b 663 500 533 551 557 514 b 639 564 646 525 639 546 b 672 686 639 607 672 638 b 381 906 672 801 535 906 b 38 629 167 906 38 790 b 619 -19 38 329 619 193 b 396 -224 619 -160 496 -218 b 101 -31 207 -224 101 -125 b 235 106 101 69 169 31 b 267 186 257 131 267 160 b 153 296 267 244 218 296 l 149 296 b 156 256 153 282 156 268 b 0 -32 156 144 0 86 b 408 -278 0 -126 139 -278 b 768 33 549 -278 768 -189 b 178 676 768 331 178 444 z m 361 975 l 494 1160 l 467 1190 l 361 1075 l 256 1190 l 226 1160 z "},"š":{"ha":679,"x_min":0,"x_max":0,"o":"m 610 -60 b 168 446 610 176 168 283 b 319 569 168 529 244 569 l 325 569 b 494 408 413 569 489 511 l 557 446 b 288 621 526 535 446 621 b 18 414 169 621 18 551 b 454 -83 18 210 454 85 b 289 -226 454 -171 394 -226 b 85 -114 160 -226 85 -158 b 225 -26 85 -78 194 -97 b 229 -7 228 -21 229 -14 b 174 83 229 28 194 69 b 0 -96 140 -11 0 0 b 296 -278 0 -225 186 -278 b 610 -60 421 -275 610 -214 z m 293 675 l 428 860 l 399 890 l 293 775 l 188 890 l 158 860 z "},"Ÿ":{"ha":888,"x_min":0,"x_max":0,"o":"m 676 906 l 676 900 b 703 874 692 900 703 888 b 700 861 703 869 703 865 l 632 726 b 496 626 576 629 531 658 b 460 479 467 600 460 533 b 464 397 460 433 464 397 l 226 869 b 224 879 225 872 224 876 b 244 900 224 890 232 900 l 244 906 l 0 906 l 0 900 b 32 892 11 900 22 897 b 54 867 42 885 49 876 l 331 317 l 331 -228 b 286 -272 331 -253 311 -272 l 286 -278 l 531 -278 l 531 -272 b 499 -260 518 -272 507 -268 b 486 -228 490 -251 486 -240 l 486 326 b 532 535 489 378 486 474 b 669 688 597 622 621 596 l 682 711 l 761 865 b 818 900 772 886 794 900 l 818 906 z m 369 1119 b 294 1046 328 1119 294 1086 b 369 971 294 1004 328 971 b 443 1046 410 971 443 1004 b 369 1119 443 1086 410 1119 z m 560 1119 b 485 1046 518 1119 485 1086 b 560 971 485 1004 518 971 b 633 1046 600 971 633 1004 b 560 1119 633 1086 600 1119 z "},"ž":{"ha":672,"x_min":0,"x_max":0,"o":"m 196 -226 l 479 361 l 492 388 b 603 594 553 515 603 549 b 596 606 603 599 601 603 b 457 621 575 619 508 621 l 65 621 l 36 469 l 42 469 b 193 569 42 469 79 569 l 432 569 b 450 558 444 569 450 565 b 307 361 450 529 363 447 l 24 -226 l 0 -278 l 556 -278 l 579 -143 l 575 -143 b 379 -226 575 -143 536 -226 z m 310 675 l 444 860 l 415 890 l 310 775 l 204 890 l 175 860 z "},"‰":{"ha":1111,"x_min":0,"x_max":0,"o":"m 488 906 l 163 -278 l 215 -278 l 542 906 z m 276 667 b 138 906 276 799 214 906 b 0 667 63 906 0 799 b 138 426 0 533 63 426 b 276 667 214 426 276 533 z m 138 447 b 63 667 96 447 63 546 b 138 885 63 788 96 885 b 214 667 181 885 214 788 b 138 447 214 546 181 447 z m 565 203 b 426 -37 489 203 426 94 b 565 -278 426 -169 489 -278 b 703 -37 642 -278 703 -169 b 565 203 703 94 642 203 z m 565 -257 b 489 -37 524 -257 489 -158 b 565 182 489 83 524 182 b 640 -37 607 182 640 83 b 565 -257 640 -158 607 -257 z m 904 203 b 765 -37 828 203 765 94 b 904 -278 765 -169 828 -278 b 1042 -37 981 -278 1042 -169 b 904 203 1042 94 981 203 z m 904 -257 b 828 -37 863 -257 828 -158 b 904 182 828 83 863 182 b 979 -37 946 182 979 83 b 904 -257 979 -158 946 -257 z "},"":{"ha":740,"x_min":0,"x_max":0,"o":"m 919 -492 b 672 -229 693 -492 674 -249 b 668 -92 669 -189 668 -143 l 668 289 b 358 615 668 474 569 615 l 356 615 b 50 397 211 615 50 524 b 188 256 50 308 114 256 b 293 292 222 256 260 267 b 197 424 249 313 197 338 b 350 563 197 508 279 563 l 351 563 b 513 393 467 563 513 481 b 0 -100 513 206 0 168 b 215 -285 0 -218 121 -285 b 488 -51 468 -285 410 -51 b 517 -126 514 -51 514 -85 b 968 -556 517 -403 740 -556 b 1024 -553 986 -556 1006 -556 b 1461 -462 1178 -535 1311 -462 b 1565 -475 1494 -462 1529 -467 b 1443 -342 1544 -375 1501 -342 b 919 -492 1318 -342 1124 -492 z m 513 4 b 475 25 507 10 494 25 b 293 -225 349 25 458 -225 b 168 -89 240 -225 168 -197 l 168 -86 b 513 321 168 115 468 208 z "},"":{"ha":775,"x_min":0,"x_max":0,"o":"m 529 -26 b 513 -25 524 -25 517 -25 b 401 -226 421 -25 467 -207 b 386 -231 396 -228 392 -229 l 372 -231 b 164 149 276 -231 164 -65 l 164 171 b 378 569 164 390 249 569 b 529 411 435 569 515 522 z m 551 -278 b 732 -494 589 -379 650 -451 b 978 -558 814 -536 896 -558 b 1040 -554 999 -558 1019 -557 b 1233 -511 1107 -544 1171 -531 b 1376 -475 1289 -493 1336 -482 b 1472 -465 1417 -468 1449 -465 b 1581 -478 1507 -465 1543 -469 b 1521 -358 1567 -412 1547 -372 b 1447 -339 1496 -344 1471 -339 b 1392 -346 1431 -339 1411 -340 b 1235 -404 1344 -358 1292 -378 b 1090 -460 1189 -424 1142 -442 b 936 -494 1039 -478 988 -489 b 881 -499 917 -497 899 -499 b 774 -472 839 -499 803 -490 b 693 -278 733 -449 706 -383 b 688 -178 690 -249 689 -215 b 685 -94 686 -140 685 -112 l 685 906 l 483 906 l 483 900 b 515 886 496 900 506 896 b 529 854 525 876 529 867 l 529 499 b 439 592 504 542 474 572 b 326 621 403 611 365 621 b 96 496 236 621 158 579 b 0 171 32 411 0 303 b 42 -54 0 89 14 14 b 156 -217 69 -122 107 -176 b 319 -278 204 -257 258 -278 b 408 -256 358 -278 388 -271 b 454 -206 429 -242 444 -225 b 476 -150 464 -186 471 -168 b 488 -122 479 -140 483 -131 b 500 -110 492 -115 496 -111 l 506 -110 b 529 -125 513 -110 519 -115 l 529 -137 b 551 -278 529 -189 536 -235 z "},"":{"ha":758,"x_min":0,"x_max":0,"o":"m 900 -492 b 839 -494 879 -493 858 -494 b 658 -278 743 -494 681 -458 b 656 -251 657 -269 656 -261 b 649 -92 651 -207 649 -154 l 649 307 b 453 621 649 540 568 621 b 238 492 331 621 289 492 b 200 515 226 492 214 499 l 200 906 l 0 906 l 0 900 b 32 886 13 900 24 894 b 44 856 39 879 44 867 l 44 -228 b 0 -274 44 -253 25 -274 l 0 -278 l 244 -278 l 244 -274 b 213 -260 232 -274 221 -268 b 200 -179 204 -251 200 -240 l 200 422 b 228 411 210 414 219 411 b 403 569 282 411 294 569 b 493 339 489 569 493 394 l 493 -135 b 517 -278 493 -187 501 -235 b 944 -556 581 -460 761 -556 b 1006 -551 965 -556 985 -554 b 1440 -462 1158 -535 1290 -462 b 1546 -475 1475 -462 1510 -465 b 1415 -336 1525 -371 1478 -336 b 900 -492 1290 -336 1100 -474 z "},"":{"ha":708,"x_min":0,"x_max":0,"o":"m 856 -501 b 811 -504 840 -503 825 -504 b 596 -278 700 -504 619 -456 b 588 -101 590 -229 588 -171 b 542 179 582 0 588 115 b 406 246 503 232 451 246 b 303 232 360 246 318 232 b 296 236 299 232 296 233 b 297 242 296 238 296 239 b 576 588 299 247 576 588 b 636 615 592 606 613 615 l 636 621 l 494 621 l 494 615 b 513 597 504 615 513 607 b 508 586 513 593 511 590 b 200 204 508 586 213 238 l 200 906 l 0 906 l 0 900 b 32 886 13 900 24 894 b 46 856 40 879 46 867 l 46 -228 b 0 -274 46 -253 25 -274 l 0 -278 l 246 -278 l 246 -274 b 214 -260 233 -274 222 -268 b 200 -228 206 -251 200 -240 l 200 182 b 217 176 204 178 210 176 b 333 194 243 176 288 194 b 456 57 386 194 438 169 b 458 -8 458 40 458 18 l 458 -54 b 933 -556 458 -244 476 -556 b 1389 -474 1090 -556 1233 -474 b 1486 -485 1421 -474 1453 -476 b 1360 -346 1465 -381 1421 -346 b 856 -501 1239 -346 1054 -483 z "},"":{"ha":1175,"x_min":0,"x_max":0,"o":"m 1351 -497 b 1290 -500 1329 -499 1310 -500 b 1107 -278 1192 -500 1129 -462 b 1104 -251 1107 -269 1106 -260 b 1099 -97 1101 -207 1099 -157 l 1099 307 b 856 621 1099 540 969 621 b 617 513 744 621 651 547 l 615 514 l 615 517 b 464 621 582 588 529 618 l 454 621 b 238 492 332 621 290 492 b 200 515 226 492 214 499 l 200 621 l 0 621 l 0 619 b 46 574 40 619 46 583 l 46 -228 b 0 -274 46 -253 25 -274 l 0 -278 l 246 -278 l 246 -274 b 214 -260 233 -274 222 -268 b 200 -178 206 -251 200 -240 l 200 422 b 228 411 211 414 219 411 b 404 569 283 411 296 569 b 494 339 492 569 494 396 l 494 -236 b 454 -272 490 -256 474 -271 b 450 -274 453 -274 451 -274 l 449 -274 l 449 -278 l 694 -278 l 694 -274 b 690 -272 693 -274 692 -272 l 686 -272 b 679 -271 683 -272 682 -271 b 675 -268 678 -269 676 -269 b 671 -265 674 -268 672 -267 b 650 -229 658 -258 650 -244 l 650 335 b 632 467 650 372 643 425 b 801 558 669 507 728 558 b 944 375 942 558 944 411 l 944 -140 b 965 -278 944 -190 951 -236 b 1396 -561 1026 -464 1211 -561 b 1456 -558 1415 -561 1436 -561 b 1892 -468 1608 -540 1742 -468 b 1996 -481 1925 -468 1960 -472 b 1865 -342 1975 -378 1928 -342 b 1351 -497 1740 -342 1550 -479 z "},"":{"ha":761,"x_min":0,"x_max":0,"o":"m 899 -497 b 838 -500 876 -499 857 -500 b 657 -278 739 -500 678 -462 b 654 -250 656 -269 656 -260 b 649 -97 650 -207 649 -157 l 649 307 b 453 621 649 540 568 621 b 238 492 331 621 289 492 b 200 515 226 492 214 499 l 200 621 l 0 621 l 0 619 b 44 574 39 619 44 583 l 44 -228 b 0 -274 44 -253 24 -274 l 0 -278 l 244 -278 l 244 -274 b 213 -260 232 -274 221 -268 b 200 -178 204 -251 200 -240 l 200 422 b 228 411 210 414 219 411 b 403 569 282 411 294 569 b 493 339 489 569 493 394 l 493 -140 b 515 -278 493 -190 501 -236 b 943 -561 575 -464 758 -561 b 1003 -558 963 -561 983 -561 b 1439 -468 1156 -540 1289 -468 b 1543 -481 1472 -468 1507 -472 b 1413 -342 1522 -378 1475 -342 b 899 -497 1288 -342 1097 -479 z "},"":{"ha":739,"x_min":0,"x_max":0,"o":"m 899 -497 b 838 -500 876 -499 857 -500 b 657 -278 740 -500 678 -462 b 654 -256 656 -271 656 -264 b 647 -97 650 -211 647 -158 l 647 621 l 447 621 l 447 615 b 479 603 460 615 471 610 b 493 521 488 594 493 583 l 493 -79 b 465 -68 483 -72 474 -68 b 290 -226 410 -68 397 -226 b 199 4 203 -226 199 -53 l 199 621 l 0 621 l 0 615 b 43 571 24 615 43 596 l 43 35 b 240 -278 43 -199 125 -278 b 454 -150 361 -278 403 -150 b 493 -174 467 -150 479 -157 b 507 -278 493 -211 497 -246 b 942 -561 560 -461 750 -561 b 1003 -558 963 -561 983 -561 b 1440 -468 1157 -540 1290 -468 b 1544 -481 1474 -468 1508 -472 b 1414 -342 1524 -378 1476 -342 b 899 -497 1289 -342 1099 -479 z "},"":{"ha":811,"x_min":0,"x_max":0,"o":"m 415 621 b 213 499 338 621 261 583 l 213 535 b 117 906 213 736 178 847 b -78 965 67 953 0 965 b -153 963 -101 965 -126 964 b -736 864 -364 947 -562 864 b -839 875 -772 864 -806 867 b -699 743 -825 776 -772 743 b -51 917 -533 743 -258 911 b 11 904 -25 917 -4 915 l 15 900 b 58 492 51 865 58 767 l 58 -158 b 0 -272 58 -264 0 -272 l 0 -278 b 210 -204 118 -278 149 -204 b 410 -278 300 -204 322 -278 l 424 -278 b 742 171 628 -278 742 -76 b 415 621 742 436 597 621 z m 578 149 b 369 -231 578 -65 465 -231 b 340 -226 360 -231 350 -229 b 213 -131 274 -208 281 -131 l 213 411 b 364 569 226 522 307 569 b 578 171 493 569 578 390 z "},"":{"ha":763,"x_min":0,"x_max":0,"o":"m 649 307 b 453 621 649 540 568 621 b 238 492 331 621 289 492 b 200 515 226 492 214 499 l 200 535 b 103 906 200 736 164 846 b -90 965 54 953 -12 965 b -167 963 -115 965 -140 964 b -750 864 -378 947 -576 864 b -853 875 -786 864 -819 867 b -712 743 -839 776 -786 743 b -64 917 -547 743 -272 911 b 0 901 -36 917 -17 915 l 1 900 b 44 492 38 865 44 767 l 44 -228 b 0 -274 44 -253 25 -274 l 0 -278 l 244 -278 l 244 -274 b 213 -260 232 -274 221 -268 b 200 -179 204 -251 200 -240 l 200 422 b 228 411 210 414 219 411 b 403 569 282 411 294 569 b 493 344 489 569 493 403 l 493 -228 b 449 -274 493 -253 474 -274 l 449 -278 l 693 -278 l 693 -274 b 649 -229 668 -274 649 -253 z "},"":{"ha":722,"x_min":0,"x_max":0,"o":"m 542 179 b 406 246 503 232 451 246 b 301 232 358 246 317 232 b 294 236 297 232 294 233 b 296 242 294 238 294 239 b 576 588 299 247 576 588 b 635 615 590 606 613 615 l 635 621 l 493 621 l 493 615 b 511 597 504 615 511 607 b 507 586 511 593 510 590 b 200 204 507 586 213 238 l 200 535 b 104 906 200 736 165 846 b -89 965 54 953 -11 965 b -165 963 -114 965 -139 964 b -749 864 -378 947 -576 864 b -851 875 -785 864 -818 867 b -711 743 -837 776 -785 743 b -64 917 -546 743 -271 911 b 0 901 -36 917 -15 915 b 3 900 1 901 1 900 b 44 492 39 865 44 767 l 44 -228 b 0 -274 44 -253 25 -274 l 0 -278 l 244 -278 l 244 -274 b 214 -260 232 -274 221 -268 b 200 -228 206 -251 200 -240 l 200 182 b 217 176 204 178 210 176 b 335 196 242 176 289 196 b 456 57 388 196 440 169 b 458 18 457 44 458 32 b 435 -199 458 -51 435 -132 b 456 -278 435 -229 440 -257 l 653 -278 b 542 179 542 -206 622 67 z "},"":{"ha":314,"x_min":0,"x_max":0,"o":"m 213 -260 b 200 -228 204 -251 200 -240 l 200 535 b 103 906 200 736 164 846 b -90 965 54 953 -12 965 b -167 963 -115 965 -140 964 b -750 864 -378 947 -576 864 b -853 875 -786 864 -819 867 b -712 743 -839 776 -786 743 b -64 917 -547 743 -272 911 b 0 901 -37 917 -17 915 l 1 900 b 44 492 38 865 44 767 l 44 -228 b 0 -274 44 -253 25 -274 l 0 -278 l 244 -278 l 244 -274 b 213 -260 232 -274 221 -268 z "},"":{"ha":722,"x_min":0,"x_max":0,"o":"m 542 178 b 404 246 501 232 450 246 b 301 232 358 246 318 232 b 294 236 297 232 294 233 b 296 242 294 238 294 239 b 576 588 299 247 576 588 b 635 615 590 606 613 615 l 635 621 l 494 621 l 494 615 b 511 597 504 615 511 607 b 507 586 511 593 510 590 b 200 204 507 586 213 238 l 200 906 l 0 906 l 0 900 b 32 886 13 900 24 894 b 44 856 40 879 44 867 l 44 -228 b 0 -274 44 -253 25 -274 l 0 -278 l 244 -278 l 244 -274 b 214 -260 233 -274 222 -268 b 200 -228 206 -251 200 -240 l 200 182 b 217 176 204 178 210 176 b 333 194 242 176 289 194 b 456 57 388 194 440 169 b 458 18 457 44 458 32 b 435 -199 458 -51 435 -132 b 456 -278 435 -229 440 -257 l 653 -278 b 542 178 542 -206 622 67 z "},"":{"ha":676,"x_min":0,"x_max":0,"o":"m 157 303 b 200 486 157 374 171 435 b 304 561 229 536 264 561 b 408 486 344 561 379 536 b 451 303 438 435 451 374 b 408 121 451 232 438 171 b 304 44 379 69 344 44 b 200 121 264 44 229 69 b 157 303 171 171 157 232 z m 310 -101 b 151 -156 253 -118 200 -136 b 35 -190 94 -179 56 -190 b 22 -182 26 -190 22 -187 l 22 -181 b 107 -117 26 -162 54 -140 b 279 -44 158 -93 217 -68 b 390 1 321 -28 358 -12 b 451 35 422 14 442 25 b 565 146 499 61 536 99 b 607 304 593 193 607 246 b 533 507 607 382 582 450 b 347 610 485 564 422 597 b 385 638 358 628 371 638 b 451 611 403 638 425 629 b 467 603 456 608 461 606 b 501 593 479 596 492 593 b 550 618 522 593 539 601 b 571 658 560 633 567 647 b 560 656 567 657 564 656 b 517 676 547 656 532 663 b 446 711 499 692 475 703 b 436 713 443 713 440 713 b 390 693 421 713 406 706 b 351 649 375 679 363 664 b 328 611 340 633 332 621 b 304 613 321 613 313 613 b 92 522 221 613 150 582 b 3 304 32 463 3 389 b 79 100 3 225 28 157 b 271 -3 129 43 193 8 b 89 -40 210 -7 149 -19 b -15 -139 28 -61 -7 -93 l -15 -146 b 32 -208 -15 -178 0 -199 b 149 -225 64 -219 103 -225 b 306 -217 197 -225 250 -222 b 440 -208 357 -211 401 -208 b 575 -233 493 -208 538 -217 b 629 -300 611 -251 629 -274 b 489 -396 629 -329 582 -361 b 186 -449 394 -431 293 -449 b -69 -421 94 -449 10 -439 b -275 -367 -149 -403 -217 -385 b -422 -332 -340 -343 -390 -332 b -506 -343 -456 -332 -483 -336 b -568 -371 -529 -351 -550 -361 b -619 -393 -585 -379 -601 -386 b -682 -403 -637 -400 -658 -403 b -708 -401 -690 -403 -699 -403 b -676 -469 -708 -422 -697 -444 b -606 -507 -656 -494 -632 -507 b -507 -482 -565 -507 -533 -499 b -440 -426 -482 -465 -460 -447 b -392 -383 -425 -410 -408 -396 b -335 -367 -376 -372 -357 -367 b -290 -382 -322 -367 -308 -372 b -229 -424 -272 -393 -253 -407 b -111 -499 -197 -447 -157 -472 b 47 -568 -65 -525 -12 -549 b 253 -599 107 -589 176 -599 b 374 -579 288 -599 328 -592 b 507 -524 419 -567 464 -547 b 615 -436 550 -500 586 -471 b 658 -322 644 -401 658 -364 b 615 -190 658 -268 644 -225 b 507 -117 586 -157 550 -132 b 381 -93 464 -101 422 -93 b 310 -101 356 -93 332 -96 z "}}}
